Recursive Mono-SemiCasual A Slanted.ufo
<glyph name="exclam" format="2">
  <advance width="500.0"/>
  <unicode hex="0021"/>
  <outline>
    <contour>
      <point x="262.5" y="240.0" type="curve"/>
      <point x="275.41665" y="314.0"/>
      <point x="291.6667" y="387.0"/>
      <point x="316.25" y="479.5" type="curve"/>
      <point x="316.25" y="479.5"/>
      <point x="356.66665" y="644.0"/>
      <point x="356.66665" y="644.0" type="curve" smooth="yes"/>
      <point x="368.75" y="685.5"/>
      <point x="364.1667" y="705.0"/>
      <point x="345.8333" y="705.0" type="curve" smooth="yes"/>
      <point x="330.4167" y="705.0"/>
      <point x="324.58335" y="703.5"/>
      <point x="313.33335" y="702.0" type="curve"/>
      <point x="312.91665" y="667.0"/>
      <point x="306.66665" y="632.0"/>
      <point x="293.75" y="578.0" type="curve" smooth="yes"/>
      <point x="293.75" y="578.0"/>
      <point x="272.9167" y="488.5"/>
      <point x="272.9167" y="488.5" type="curve"/>
      <point x="234.16665" y="303.0"/>
      <point x="230.4167" y="262.5"/>
      <point x="232.5" y="252.0" type="curve" smooth="yes"/>
      <point x="233.75" y="244.0"/>
      <point x="239.1667" y="240.0"/>
      <point x="245.83335" y="240.0" type="curve"/>
      <point x="245.83335" y="240.0"/>
      <point x="262.5" y="240.0"/>
    </contour>
    <component base="period"/>
  </outline>
</glyph>
<glyph name="quotedbl" format="2">
  <advance width="500.0"/>
  <unicode hex="0022"/>
  <outline>
    <contour>
      <point x="225.4167" y="444.0" type="curve"/>
      <point x="225.4167" y="444.0"/>
      <point x="289.5833" y="714.5"/>
      <point x="289.5833" y="714.5" type="curve" smooth="yes"/>
      <point x="295.8333" y="739.5"/>
      <point x="289.16665" y="752.0"/>
      <point x="268.75" y="752.0" type="curve" smooth="yes"/>
      <point x="250.4167" y="752.0"/>
      <point x="240.0" y="751.0"/>
      <point x="222.08335" y="750.0" type="curve"/>
      <point x="220.4167" y="720.5"/>
      <point x="217.91665" y="701.5"/>
      <point x="210.0" y="655.5" type="curve" smooth="yes"/>
      <point x="210.0" y="655.5"/>
      <point x="179.58335" y="466.0"/>
      <point x="179.58335" y="466.0" type="curve" smooth="yes"/>
      <point x="177.08335" y="450.5"/>
      <point x="182.5" y="444.0"/>
      <point x="200.4167" y="444.0" type="curve" smooth="yes"/>
      <point x="209.1667" y="444.0"/>
      <point x="217.08335" y="444.0"/>
    </contour>
    <contour>
      <point x="404.58335" y="444.0" type="curve"/>
      <point x="404.58335" y="444.0"/>
      <point x="467.5" y="708.5"/>
      <point x="467.5" y="708.5" type="curve" smooth="yes"/>
      <point x="475.0" y="739.5"/>
      <point x="468.3333" y="752.0"/>
      <point x="447.0833" y="752.0" type="curve" smooth="yes"/>
      <point x="431.6667" y="752.0"/>
      <point x="422.5" y="751.5"/>
      <point x="403.75" y="750.0" type="curve"/>
      <point x="398.89374999999995" y="719.031"/>
      <point x="394.02295000000004" y="687.969"/>
      <point x="389.1667" y="657.0" type="curve"/>
      <point x="389.1667" y="657.0"/>
      <point x="358.75" y="466.0"/>
      <point x="358.75" y="466.0" type="curve"/>
      <point x="355.8333" y="450.5"/>
      <point x="361.66665" y="444.0"/>
      <point x="379.58335" y="444.0" type="curve" smooth="yes"/>
      <point x="388.33335" y="444.0"/>
      <point x="396.25" y="444.0"/>
    </contour>
  </outline>
</glyph>
<glyph name="numbersign" format="2">
  <advance width="500.0"/>
  <unicode hex="0023"/>
  <outline>
    <contour>
      <point x="282.5" y="717.5" type="curve"/>
      <point x="215.41665" y="493.5"/>
      <point x="127.5" y="232.5"/>
      <point x="10.0" y="-17.0" type="curve"/>
      <point x="17.91665" y="-19.0"/>
      <point x="27.5" y="-20.0"/>
      <point x="36.25" y="-20.0" type="curve" smooth="yes"/>
      <point x="46.666650000000004" y="-20.0"/>
      <point x="52.916650000000004" y="-17.5"/>
      <point x="60.833349999999996" y="-2.0" type="curve" smooth="yes"/>
      <point x="172.08335" y="240.0"/>
      <point x="259.16665" y="501.5"/>
      <point x="321.25" y="704.5" type="curve" smooth="yes"/>
      <point x="324.58335" y="718.5"/>
      <point x="316.25" y="720.0"/>
      <point x="309.58335" y="720.0" type="curve" smooth="yes"/>
      <point x="300.8333" y="720.0"/>
      <point x="291.25" y="719.0"/>
    </contour>
    <contour>
      <point x="455.4167" y="717.5" type="curve"/>
      <point x="388.75" y="495.5"/>
      <point x="300.41665" y="232.5"/>
      <point x="182.91665" y="-17.0" type="curve"/>
      <point x="190.83335" y="-19.0"/>
      <point x="200.41665" y="-20.0"/>
      <point x="209.16665" y="-20.0" type="curve" smooth="yes"/>
      <point x="219.58335" y="-20.0"/>
      <point x="225.83335" y="-17.5"/>
      <point x="233.75" y="-2.0" type="curve" smooth="yes"/>
      <point x="345.0" y="240.0"/>
      <point x="432.0833" y="501.5"/>
      <point x="494.16665" y="704.5" type="curve" smooth="yes"/>
      <point x="497.5" y="718.5"/>
      <point x="489.16665" y="720.0"/>
      <point x="482.5" y="720.0" type="curve" smooth="yes"/>
      <point x="473.75" y="720.0"/>
      <point x="464.16665" y="719.0"/>
    </contour>
    <contour>
      <point x="512.5" y="452.0" type="curve"/>
      <point x="514.58335" y="460.0"/>
      <point x="517.08335" y="468.0"/>
      <point x="519.1667" y="477.5" type="curve" smooth="yes"/>
      <point x="520.83335" y="484.0"/>
      <point x="521.25" y="490.0"/>
      <point x="518.3333" y="494.0" type="curve" smooth="yes"/>
      <point x="516.25" y="496.5"/>
      <point x="512.08335" y="498.0"/>
      <point x="506.66665" y="498.0" type="curve" smooth="yes"/>
      <point x="506.66665" y="498.0"/>
      <point x="107.5" y="498.0"/>
      <point x="107.5" y="498.0" type="curve"/>
      <point x="105.4167" y="490.0"/>
      <point x="103.75" y="483.5"/>
      <point x="102.08335" y="475.5" type="curve" smooth="yes"/>
      <point x="99.16665" y="461.0"/>
      <point x="100.83335" y="452.0"/>
      <point x="111.25" y="452.0" type="curve" smooth="yes"/>
      <point x="111.25" y="452.0"/>
      <point x="512.5" y="452.0"/>
    </contour>
    <contour>
      <point x="21.6667" y="248.0" type="curve"/>
      <point x="20.0" y="240.0"/>
      <point x="17.916649999999997" y="233.5"/>
      <point x="16.25" y="225.5" type="curve" smooth="yes"/>
      <point x="14.16665" y="218.0"/>
      <point x="14.583300000000001" y="210.0"/>
      <point x="16.6667" y="206.5" type="curve" smooth="yes"/>
      <point x="19.166649999999997" y="203.0"/>
      <point x="23.33335" y="202.0"/>
      <point x="29.58335" y="202.0" type="curve" smooth="yes"/>
      <point x="29.58335" y="202.0"/>
      <point x="427.5" y="202.0"/>
      <point x="427.5" y="202.0" type="curve"/>
      <point x="429.58335" y="210.0"/>
      <point x="430.8333" y="216.5"/>
      <point x="432.5" y="224.5" type="curve" smooth="yes"/>
      <point x="435.41665" y="239.0"/>
      <point x="433.75" y="248.0"/>
      <point x="423.33335" y="248.0" type="curve" smooth="yes"/>
      <point x="423.33335" y="248.0"/>
      <point x="21.6667" y="248.0"/>
    </contour>
  </outline>
</glyph>
<glyph name="dollar" format="2">
  <advance width="500.0"/>
  <unicode hex="0024"/>
  <outline>
    <contour>
      <point x="197.5" y="-14.0" type="curve" smooth="yes"/>
      <point x="310.0" y="-14.0"/>
      <point x="390.4167" y="41.0"/>
      <point x="413.33335" y="157.0" type="curve" smooth="yes"/>
      <point x="413.33335" y="157.0"/>
      <point x="415.8333" y="171.0"/>
      <point x="415.8333" y="171.0" type="curve" smooth="yes"/>
      <point x="430.4167" y="255.0"/>
      <point x="403.75" y="315.0"/>
      <point x="323.75" y="349.5" type="curve" smooth="yes"/>
      <point x="323.75" y="349.5"/>
      <point x="254.1667" y="379.0"/>
      <point x="254.1667" y="379.0" type="curve" smooth="yes"/>
      <point x="170.4167" y="415.0"/>
      <point x="154.1667" y="452.0"/>
      <point x="168.75" y="524.0" type="curve" smooth="yes"/>
      <point x="168.75" y="524.0"/>
      <point x="172.08335" y="539.5"/>
      <point x="172.08335" y="539.5" type="curve" smooth="yes"/>
      <point x="187.9167" y="612.0"/>
      <point x="259.58335" y="670.5"/>
      <point x="366.25" y="670.5" type="curve" smooth="yes"/>
      <point x="433.33335" y="670.5"/>
      <point x="468.3333" y="650.0"/>
      <point x="493.33335" y="619.0" type="curve"/>
      <point x="493.33335" y="619.0"/>
      <point x="500.83335" y="619.0"/>
      <point x="500.83335" y="619.0" type="curve"/>
      <point x="504.58335" y="629.0"/>
      <point x="509.58335" y="640.0"/>
      <point x="512.08335" y="650.0" type="curve" smooth="yes"/>
      <point x="514.16665" y="658.0"/>
      <point x="512.91665" y="663.5"/>
      <point x="508.33335" y="670.0" type="curve" smooth="yes"/>
      <point x="486.25" y="699.0"/>
      <point x="442.91665" y="718.5"/>
      <point x="372.5" y="718.5" type="curve" smooth="yes"/>
      <point x="244.16665" y="718.5"/>
      <point x="158.75" y="648.0"/>
      <point x="133.75" y="545.5" type="curve" smooth="yes"/>
      <point x="133.75" y="545.5"/>
      <point x="130.0" y="528.5"/>
      <point x="130.0" y="528.5" type="curve" smooth="yes"/>
      <point x="109.16665" y="436.0"/>
      <point x="137.08335" y="378.5"/>
      <point x="235.4167" y="335.0" type="curve" smooth="yes"/>
      <point x="235.4167" y="335.0"/>
      <point x="305.4167" y="304.5"/>
      <point x="305.4167" y="304.5" type="curve" smooth="yes"/>
      <point x="377.08335" y="273.0"/>
      <point x="389.16665" y="232.0"/>
      <point x="374.1667" y="160.5" type="curve" smooth="yes"/>
      <point x="374.1667" y="160.5"/>
      <point x="371.66665" y="148.5"/>
      <point x="371.66665" y="148.5" type="curve" smooth="yes"/>
      <point x="347.9167" y="69.0"/>
      <point x="289.5833" y="34.0"/>
      <point x="200.4167" y="34.0" type="curve" smooth="yes"/>
      <point x="121.25" y="34.0"/>
      <point x="72.5" y="59.5"/>
      <point x="43.3333" y="113.5" type="curve"/>
      <point x="43.3333" y="113.5"/>
      <point x="35.8333" y="113.5"/>
      <point x="35.8333" y="113.5" type="curve"/>
      <point x="30.83335" y="100.0"/>
      <point x="27.08335" y="90.5"/>
      <point x="24.16665" y="77.5" type="curve" smooth="yes"/>
      <point x="22.08335" y="68.5"/>
      <point x="22.5" y="60.5"/>
      <point x="28.75" y="51.5" type="curve" smooth="yes"/>
      <point x="60.0" y="9.5"/>
      <point x="122.08335" y="-14.0"/>
    </contour>
    <contour>
      <point x="311.25" y="428.0" type="curve"/>
      <point x="345.0" y="542.0"/>
      <point x="403.33335" y="766.5"/>
      <point x="417.5" y="837.5" type="curve" smooth="yes"/>
      <point x="422.5" y="861.5"/>
      <point x="415.8333" y="871.0"/>
      <point x="402.0833" y="871.0" type="curve" smooth="yes"/>
      <point x="389.16665" y="871.0"/>
      <point x="381.6667" y="870.0"/>
      <point x="370.41665" y="869.0" type="curve"/>
      <point x="368.3333" y="842.0"/>
      <point x="361.66665" y="800.5"/>
      <point x="348.33335" y="731.5" type="curve" smooth="yes"/>
      <point x="332.91665" y="650.0"/>
      <point x="305.83335" y="538.0"/>
      <point x="282.5" y="449.5" type="curve" smooth="yes"/>
      <point x="280.0" y="440.0"/>
      <point x="282.91665" y="435.5"/>
      <point x="290.83335" y="433.0" type="curve" smooth="yes"/>
      <point x="297.5" y="431.0"/>
      <point x="305.41665" y="429.0"/>
    </contour>
    <contour>
      <point x="228.3333" y="258.5" type="curve"/>
      <point x="192.08335" y="131.5"/>
      <point x="132.91665" y="-93.5"/>
      <point x="121.25" y="-157.0" type="curve" smooth="yes"/>
      <point x="116.6667" y="-181.0"/>
      <point x="122.5" y="-190.5"/>
      <point x="135.0" y="-190.5" type="curve" smooth="yes"/>
      <point x="145.8333" y="-190.5"/>
      <point x="155.83335" y="-189.5"/>
      <point x="165.83335" y="-188.5" type="curve"/>
      <point x="167.91665" y="-167.0"/>
      <point x="177.91665" y="-111.5"/>
      <point x="190.83335" y="-45.0" type="curve" smooth="yes"/>
      <point x="208.75" y="53.5"/>
      <point x="243.33335" y="182.5"/>
      <point x="254.58335" y="230.5" type="curve" smooth="yes"/>
      <point x="257.08335" y="242.5"/>
      <point x="257.0833" y="248.5"/>
      <point x="246.6667" y="252.5" type="curve" smooth="yes"/>
      <point x="240.83335" y="255.0"/>
      <point x="234.16665" y="257.0"/>
    </contour>
  </outline>
</glyph>
<glyph name="ampersand" format="2">
  <advance width="500.0"/>
  <unicode hex="0026"/>
  <outline>
    <contour>
      <point x="204.16665" y="392.0" type="curve" smooth="yes"/>
      <point x="186.25" y="454.5"/>
      <point x="184.16665" y="507.0"/>
      <point x="193.75" y="551.0" type="curve" smooth="yes"/>
      <point x="200.0" y="580.5"/>
      <point x="208.75" y="602.0"/>
      <point x="225.8333" y="622.5" type="curve" smooth="yes"/>
      <point x="250.17545" y="647.7105463688999"/>
      <point x="282.51955" y="660.0"/>
      <point x="331.25" y="660.0" type="curve" smooth="yes"/>
      <point x="376.41315" y="660.0"/>
      <point x="410.9902" y="647.37996823705"/>
      <point x="441.25" y="625.0" type="curve"/>
      <point x="441.25" y="625.0"/>
      <point x="448.75" y="625.0"/>
      <point x="448.75" y="625.0" type="curve"/>
      <point x="452.5" y="634.0"/>
      <point x="455.83335" y="642.5"/>
      <point x="458.75" y="655.0" type="curve"/>
      <point x="460.41665" y="663.0"/>
      <point x="459.5833" y="671.0"/>
      <point x="455.0" y="676.5" type="curve" smooth="yes"/>
      <point x="445.76865" y="687.5776487017499"/>
      <point x="400.46475" y="709.0"/>
      <point x="338.75" y="709.0" type="curve" smooth="yes"/>
      <point x="231.10660000000001" y="709.0"/>
      <point x="173.8347" y="650.4067144634"/>
      <point x="153.75" y="560.5" type="curve" smooth="yes"/>
      <point x="153.75" y="560.5"/>
      <point x="152.0833" y="553.0"/>
      <point x="152.0833" y="553.0" type="curve" smooth="yes"/>
      <point x="140.8333" y="498.0"/>
      <point x="148.75" y="439.0"/>
      <point x="170.83335" y="364.5" type="curve" smooth="yes"/>
      <point x="200.4167" y="262.5"/>
      <point x="259.16665" y="114.0"/>
      <point x="290.0" y="54.5" type="curve" smooth="yes"/>
      <point x="312.91665" y="9.0"/>
      <point x="341.66665" y="-10.0"/>
      <point x="377.08335" y="-10.0" type="curve" smooth="yes"/>
      <point x="389.16665" y="-10.0"/>
      <point x="396.6667" y="-9.0"/>
      <point x="407.9167" y="-5.5" type="curve" smooth="yes"/>
      <point x="415.41665" y="-2.5"/>
      <point x="420.4167" y="6.0"/>
      <point x="421.66665" y="16.5" type="curve" smooth="yes"/>
      <point x="423.3333" y="28.0"/>
      <point x="423.75" y="37.0"/>
      <point x="423.75" y="48.0" type="curve"/>
      <point x="423.75" y="48.0"/>
      <point x="416.25" y="48.0"/>
      <point x="416.25" y="48.0" type="curve"/>
      <point x="406.6667" y="40.0"/>
      <point x="396.66665" y="38.0"/>
      <point x="383.75" y="38.0" type="curve" smooth="yes"/>
      <point x="359.58335" y="38.0"/>
      <point x="340.41665" y="51.0"/>
      <point x="323.3333" y="84.0" type="curve" smooth="yes"/>
      <point x="296.66665" y="129.0"/>
      <point x="241.66665" y="274.5"/>
    </contour>
    <contour>
      <point x="130.41665" y="-9.5" type="curve" smooth="yes"/>
      <point x="192.91665" y="-9.5"/>
      <point x="242.0833" y="16.0"/>
      <point x="277.5" y="69.0" type="curve"/>
      <point x="277.5" y="69.0"/>
      <point x="305.41665" y="69.0"/>
      <point x="305.41665" y="69.0" type="curve"/>
      <point x="305.41665" y="69.0"/>
      <point x="278.75" y="116.5"/>
      <point x="278.75" y="116.5" type="curve"/>
      <point x="234.58335" y="57.0"/>
      <point x="188.75" y="36.0"/>
      <point x="137.0833" y="36.0" type="curve" smooth="yes"/>
      <point x="62.916650000000004" y="36.0"/>
      <point x="37.9167" y="81.0"/>
      <point x="52.916650000000004" y="159.0" type="curve" smooth="yes"/>
      <point x="52.916650000000004" y="159.0"/>
      <point x="57.916650000000004" y="187.5"/>
      <point x="57.916650000000004" y="187.5" type="curve" smooth="yes"/>
      <point x="72.08335" y="262.5"/>
      <point x="124.16669999999999" y="311.0"/>
      <point x="202.91665" y="327.0" type="curve"/>
      <point x="202.91665" y="327.0"/>
      <point x="176.25" y="381.5"/>
      <point x="176.25" y="381.5" type="curve"/>
      <point x="176.25" y="381.5"/>
      <point x="167.08335" y="354.0"/>
      <point x="167.08335" y="354.0" type="curve"/>
      <point x="90.83335" y="331.5"/>
      <point x="34.1667" y="276.0"/>
      <point x="18.75" y="190.0" type="curve" smooth="yes"/>
      <point x="18.75" y="190.0"/>
      <point x="13.75" y="164.0"/>
      <point x="13.75" y="164.0" type="curve" smooth="yes"/>
      <point x="-5.4167" y="59.0"/>
      <point x="35.833349999999996" y="-9.5"/>
    </contour>
    <contour>
      <point x="407.9167" y="402.5" type="curve"/>
      <point x="403.33335" y="374.5"/>
      <point x="399.1667" y="352.0"/>
      <point x="390.4167" y="314.5" type="curve" smooth="yes"/>
      <point x="374.1667" y="246.0"/>
      <point x="342.5" y="184.0"/>
      <point x="292.0833" y="128.5" type="curve"/>
      <point x="292.0833" y="128.5"/>
      <point x="310.4167" y="73.0"/>
      <point x="310.4167" y="73.0" type="curve"/>
      <point x="310.4167" y="73.0"/>
      <point x="317.91665" y="109.0"/>
      <point x="317.91665" y="109.0" type="curve"/>
      <point x="378.3333" y="169.0"/>
      <point x="421.66665" y="244.0"/>
      <point x="440.0" y="343.0" type="curve" smooth="yes"/>
      <point x="440.0" y="343.0"/>
      <point x="447.9167" y="383.5"/>
      <point x="447.9167" y="383.5" type="curve" smooth="yes"/>
      <point x="450.41665" y="398.5"/>
      <point x="446.25" y="404.0"/>
      <point x="434.58335" y="404.0" type="curve" smooth="yes"/>
      <point x="424.58335" y="404.0"/>
      <point x="415.83335" y="403.5"/>
    </contour>
  </outline>
</glyph>
<glyph name="quotesingle" format="2">
  <advance width="500.0"/>
  <unicode hex="0027"/>
  <outline>
    <contour>
      <point x="315.41665" y="444.0" type="curve"/>
      <point x="315.41665" y="444.0"/>
      <point x="377.91665" y="708.5"/>
      <point x="377.91665" y="708.5" type="curve" smooth="yes"/>
      <point x="385.0" y="739.5"/>
      <point x="378.75" y="752.0"/>
      <point x="356.25" y="752.0" type="curve" smooth="yes"/>
      <point x="339.5833" y="752.0"/>
      <point x="326.6667" y="751.0"/>
      <point x="311.6667" y="750.0" type="curve"/>
      <point x="310.0" y="720.5"/>
      <point x="307.08335" y="700.5"/>
      <point x="299.58335" y="654.5" type="curve" smooth="yes"/>
      <point x="299.58335" y="654.5"/>
      <point x="270.8333" y="466.0"/>
      <point x="270.8333" y="466.0" type="curve" smooth="yes"/>
      <point x="268.33335" y="450.5"/>
      <point x="273.75" y="444.0"/>
      <point x="291.66665" y="444.0" type="curve" smooth="yes"/>
      <point x="300.8333" y="444.0"/>
      <point x="307.5" y="444.0"/>
    </contour>
  </outline>
</glyph>
<glyph name="parenleft" format="2">
  <advance width="500.0"/>
  <unicode hex="0028"/>
  <outline>
    <contour>
      <point x="407.08335" y="753.0" type="curve" smooth="yes"/>
      <point x="289.16665" y="644.0"/>
      <point x="199.1667" y="480.5"/>
      <point x="164.5833" y="315.0" type="curve" smooth="yes"/>
      <point x="164.5833" y="315.0"/>
      <point x="161.25" y="299.0"/>
      <point x="161.25" y="299.0" type="curve" smooth="yes"/>
      <point x="125.41669999999999" y="127.5"/>
      <point x="149.1667" y="-43.0"/>
      <point x="217.08335" y="-153.0" type="curve" smooth="yes"/>
      <point x="223.33335" y="-163.0"/>
      <point x="230.41665" y="-166.5"/>
      <point x="238.75" y="-166.5" type="curve" smooth="yes"/>
      <point x="249.5833" y="-166.5"/>
      <point x="257.08335" y="-164.5"/>
      <point x="266.25" y="-161.0" type="curve"/>
      <point x="266.25" y="-161.0"/>
      <point x="267.9167" y="-152.0"/>
      <point x="267.9167" y="-152.0" type="curve"/>
      <point x="189.16665" y="-36.5"/>
      <point x="168.3333" y="126.5"/>
      <point x="204.58335" y="299.0" type="curve" smooth="yes"/>
      <point x="204.58335" y="299.0"/>
      <point x="207.91665" y="315.0"/>
      <point x="207.91665" y="315.0" type="curve" smooth="yes"/>
      <point x="241.66665" y="476.5"/>
      <point x="332.08335" y="630.0"/>
      <point x="464.1667" y="748.5" type="curve"/>
      <point x="464.1667" y="748.5"/>
      <point x="465.83335" y="757.5"/>
      <point x="465.83335" y="757.5" type="curve"/>
      <point x="457.08335" y="762.0"/>
      <point x="445.0" y="765.0"/>
      <point x="434.16665" y="765.0" type="curve" smooth="yes"/>
      <point x="424.58335" y="765.0"/>
      <point x="416.66665" y="761.5"/>
    </contour>
  </outline>
</glyph>
<glyph name="asterisk" format="2">
  <advance width="500.0"/>
  <unicode hex="002A"/>
  <outline>
    <contour>
      <point x="313.3333" y="533.5" type="curve" smooth="yes"/>
      <point x="299.58335" y="533.5"/>
      <point x="285.0" y="532.0"/>
      <point x="273.3333" y="530.5" type="curve"/>
      <point x="272.5" y="509.5"/>
      <point x="270.0" y="490.0"/>
      <point x="266.25" y="459.0" type="curve" smooth="yes"/>
      <point x="260.4167" y="410.5"/>
      <point x="257.9167" y="384.5"/>
      <point x="251.25" y="335.0" type="curve"/>
      <point x="251.25" y="335.0"/>
      <point x="242.91665" y="329.5"/>
      <point x="242.91665" y="329.5" type="curve"/>
      <point x="210.0" y="366.0"/>
      <point x="186.25" y="390.5"/>
      <point x="145.0" y="430.5" type="curve" smooth="yes"/>
      <point x="133.75" y="441.0"/>
      <point x="124.58335" y="438.5"/>
      <point x="115.0" y="425.5" type="curve" smooth="yes"/>
      <point x="107.08335" y="413.5"/>
      <point x="100.4167" y="402.5"/>
      <point x="92.08335" y="388.5" type="curve"/>
      <point x="146.25" y="350.0"/>
      <point x="176.25" y="333.5"/>
      <point x="228.3333" y="305.0" type="curve"/>
      <point x="228.3333" y="305.0"/>
      <point x="225.83335" y="296.0"/>
      <point x="225.83335" y="296.0" type="curve"/>
      <point x="167.5" y="272.5"/>
      <point x="127.5" y="256.0"/>
      <point x="74.58335" y="228.5" type="curve" smooth="yes"/>
      <point x="61.25" y="221.5"/>
      <point x="58.75" y="208.5"/>
      <point x="62.5" y="195.5" type="curve" smooth="yes"/>
      <point x="67.08335" y="182.0"/>
      <point x="70.0" y="171.0"/>
      <point x="75.0" y="159.0" type="curve"/>
      <point x="136.66665" y="200.0"/>
      <point x="175.41665" y="226.5"/>
      <point x="232.5" y="269.5" type="curve"/>
      <point x="232.5" y="269.5"/>
      <point x="238.3333" y="264.5"/>
      <point x="238.3333" y="264.5" type="curve"/>
      <point x="219.16665" y="205.0"/>
      <point x="205.41665" y="165.0"/>
      <point x="187.91665" y="102.5" type="curve" smooth="yes"/>
      <point x="182.08335" y="79.5"/>
      <point x="187.08335" y="67.5"/>
      <point x="203.33335" y="67.5" type="curve" smooth="yes"/>
      <point x="216.25" y="67.5"/>
      <point x="231.25" y="68.5"/>
      <point x="244.58335" y="70.0" type="curve"/>
      <point x="245.8333" y="90.5"/>
      <point x="247.91665" y="111.0"/>
      <point x="250.8333" y="135.0" type="curve" smooth="yes"/>
      <point x="256.66665" y="180.5"/>
      <point x="258.33335" y="207.0"/>
      <point x="263.75" y="265.5" type="curve"/>
      <point x="263.75" y="265.5"/>
      <point x="271.25" y="270.5"/>
      <point x="271.25" y="270.5" type="curve"/>
      <point x="307.91665" y="228.5"/>
      <point x="332.5" y="203.0"/>
      <point x="371.25" y="167.0" type="curve" smooth="yes"/>
      <point x="380.83335" y="159.0"/>
      <point x="391.25" y="161.5"/>
      <point x="400.8333" y="175.0" type="curve" smooth="yes"/>
      <point x="410.0" y="188.5"/>
      <point x="416.25" y="199.0"/>
      <point x="423.75" y="212.0" type="curve"/>
      <point x="371.25" y="248.5"/>
      <point x="337.91665" y="269.0"/>
      <point x="290.4167" y="296.0" type="curve"/>
      <point x="290.4167" y="296.0"/>
      <point x="292.91665" y="305.0"/>
      <point x="292.91665" y="305.0" type="curve"/>
      <point x="348.75" y="326.0"/>
      <point x="385.41665" y="338.5"/>
      <point x="444.16665" y="369.5" type="curve" smooth="yes"/>
      <point x="454.5833" y="374.5"/>
      <point x="459.16665" y="386.0"/>
      <point x="455.4167" y="399.0" type="curve" smooth="yes"/>
      <point x="451.6667" y="413.0"/>
      <point x="447.08335" y="425.0"/>
      <point x="441.6667" y="437.0" type="curve"/>
      <point x="368.75" y="388.5"/>
      <point x="329.5833" y="364.0"/>
      <point x="283.33335" y="330.5" type="curve"/>
      <point x="283.33335" y="330.5"/>
      <point x="277.5" y="336.0"/>
      <point x="277.5" y="336.0" type="curve"/>
      <point x="295.83335" y="389.0"/>
      <point x="309.16665" y="425.0"/>
      <point x="329.16665" y="497.5" type="curve" smooth="yes"/>
      <point x="335.4167" y="521.0"/>
      <point x="328.33335" y="533.5"/>
    </contour>
  </outline>
</glyph>
<glyph name="comma" format="2">
  <advance width="500.0"/>
  <unicode hex="002C"/>
  <outline>
    <contour>
      <point x="104.58335" y="-195.0" type="curve" smooth="yes"/>
      <point x="111.25" y="-195.0"/>
      <point x="115.4167" y="-193.5"/>
      <point x="119.58335" y="-186.5" type="curve"/>
      <point x="179.58335" y="-99.5"/>
      <point x="230.0" y="7.5"/>
      <point x="269.58335" y="128.0" type="curve"/>
      <point x="273.75" y="145.0"/>
      <point x="267.5" y="154.0"/>
      <point x="252.5" y="154.0" type="curve" smooth="yes"/>
      <point x="232.08335" y="154.0"/>
      <point x="218.33335" y="152.5"/>
      <point x="197.0833" y="149.5" type="curve"/>
      <point x="161.66665" y="12.5"/>
      <point x="128.75" y="-77.5"/>
      <point x="71.66665" y="-189.0" type="curve"/>
      <point x="81.25" y="-193.5"/>
      <point x="91.25" y="-195.0"/>
    </contour>
  </outline>
</glyph>
<glyph name="hyphen" format="2">
  <advance width="500.0"/>
  <unicode hex="002D"/>
  <outline>
    <contour>
      <point x="111.66665" y="325.0" type="curve"/>
      <point x="110.0" y="317.0"/>
      <point x="108.3333" y="308.5"/>
      <point x="106.25" y="300.5" type="curve" smooth="yes"/>
      <point x="102.9167" y="285.0"/>
      <point x="106.25" y="275.0"/>
      <point x="115.41665" y="275.0" type="curve"/>
      <point x="115.41665" y="275.0"/>
      <point x="404.16665" y="275.0"/>
      <point x="404.16665" y="275.0" type="curve"/>
      <point x="405.8333" y="283.0"/>
      <point x="407.5" y="291.5"/>
      <point x="409.58335" y="299.5" type="curve" smooth="yes"/>
      <point x="413.33335" y="315.5"/>
      <point x="410.0" y="325.0"/>
      <point x="400.4167" y="325.0" type="curve"/>
      <point x="400.4167" y="325.0"/>
      <point x="111.66665" y="325.0"/>
    </contour>
  </outline>
</glyph>
<glyph name="period" format="2">
  <advance width="500.0"/>
  <unicode hex="002E"/>
  <outline>
    <contour>
      <point x="144.8202" y="57.5" type="curve" smooth="yes"/>
      <point x="144.8202" y="57.5"/>
      <point x="144.8202" y="57.5"/>
      <point x="144.8202" y="57.5" type="curve"/>
      <point x="144.8202" y="23.11205"/>
      <point x="172.6954" y="-4.7631"/>
      <point x="207.08335" y="-4.7631" type="curve" smooth="yes"/>
      <point x="241.47125" y="-4.7631"/>
      <point x="269.34645" y="23.11205"/>
      <point x="269.34645" y="57.5" type="curve" smooth="yes"/>
      <point x="269.34645" y="57.5"/>
      <point x="269.34645" y="57.5"/>
      <point x="269.34645" y="57.5" type="curve"/>
      <point x="269.34645" y="91.88794999999999"/>
      <point x="241.47125" y="119.7631"/>
      <point x="207.08335" y="119.7631" type="curve" smooth="yes"/>
      <point x="172.6954" y="119.7631"/>
      <point x="144.8202" y="91.88794999999999"/>
    </contour>
  </outline>
</glyph>
<glyph name="one" format="2">
  <advance width="500.0"/>
  <unicode hex="0031"/>
  <outline>
    <contour>
      <point x="327.5" y="708.0" type="curve"/>
      <point x="298.75" y="674.5"/>
      <point x="270.0" y="644.0"/>
      <point x="233.3333" y="609.0" type="curve" smooth="yes"/>
      <point x="197.9167" y="575.0"/>
      <point x="164.16665" y="548.0"/>
      <point x="129.5833" y="524.0" type="curve"/>
      <point x="129.5833" y="524.0"/>
      <point x="125.41669999999999" y="505.5"/>
      <point x="125.41669999999999" y="505.5" type="curve" smooth="yes"/>
      <point x="120.41665" y="485.0"/>
      <point x="122.5" y="478.0"/>
      <point x="132.08335" y="478.0" type="curve" smooth="yes"/>
      <point x="145.8333" y="478.0"/>
      <point x="174.5833" y="492.5"/>
      <point x="237.08335" y="553.5" type="curve" smooth="yes"/>
      <point x="285.0" y="600.0"/>
      <point x="307.5" y="624.5"/>
      <point x="342.9167" y="678.5" type="curve"/>
      <point x="342.9167" y="678.5"/>
      <point x="310.83335" y="654.0"/>
      <point x="310.83335" y="654.0" type="curve"/>
      <point x="310.83335" y="654.0"/>
      <point x="353.33335" y="654.0"/>
      <point x="353.33335" y="654.0" type="curve"/>
      <point x="353.33335" y="654.0"/>
      <point x="339.1667" y="683.5"/>
      <point x="339.1667" y="683.5" type="curve"/>
      <point x="317.5" y="549.5"/>
      <point x="212.08335" y="191.5"/>
      <point x="197.5" y="94.5" type="curve" smooth="yes"/>
      <point x="193.75" y="71.0"/>
      <point x="192.08335" y="55.0"/>
      <point x="195.0" y="41.0" type="curve"/>
      <point x="195.0" y="41.0"/>
      <point x="187.5" y="17.5"/>
      <point x="187.5" y="17.5" type="curve"/>
      <point x="187.5" y="17.5"/>
      <point x="225.41665" y="17.5"/>
      <point x="225.41665" y="17.5" type="curve"/>
      <point x="240.8333" y="158.5"/>
      <point x="364.16665" y="576.5"/>
      <point x="381.6667" y="683.0" type="curve" smooth="yes"/>
      <point x="385.0" y="701.0"/>
      <point x="377.5" y="710.0"/>
      <point x="365.0" y="710.0" type="curve" smooth="yes"/>
      <point x="354.58335" y="710.0"/>
      <point x="338.33335" y="709.5"/>
    </contour>
    <contour>
      <point x="19.58335" y="44.5" type="curve"/>
      <point x="17.08335" y="36.5"/>
      <point x="14.58335" y="29.0"/>
      <point x="12.91665" y="22.0" type="curve" smooth="yes"/>
      <point x="11.66665" y="16.5"/>
      <point x="10.83335" y="10.5"/>
      <point x="12.5" y="6.5" type="curve" smooth="yes"/>
      <point x="14.16665" y="2.5"/>
      <point x="17.08335" y="0.0"/>
      <point x="25.83335" y="0.0" type="curve" smooth="yes"/>
      <point x="33.3333" y="0.0"/>
      <point x="384.16665" y="0.0"/>
      <point x="394.58335" y="0.0" type="curve"/>
      <point x="396.25" y="7.0"/>
      <point x="397.9167" y="13.5"/>
      <point x="399.1667" y="21.5" type="curve" smooth="yes"/>
      <point x="400.0" y="34.0"/>
      <point x="377.0833" y="44.5"/>
      <point x="322.5" y="44.5" type="curve" smooth="yes"/>
      <point x="314.1667" y="44.5"/>
      <point x="30.0" y="44.5"/>
    </contour>
  </outline>
</glyph>
<glyph name="two" format="2">
  <advance width="500.0"/>
  <unicode hex="0032"/>
  <outline>
    <contour>
      <point x="335.83335" y="720.0" type="curve" smooth="yes"/>
      <point x="270.83335" y="720.0"/>
      <point x="220.41665" y="698.5"/>
      <point x="181.66665" y="662.0" type="curve" smooth="yes"/>
      <point x="160.0" y="641.5"/>
      <point x="146.6667" y="619.5"/>
      <point x="142.91665" y="596.5" type="curve" smooth="yes"/>
      <point x="139.58335" y="578.5"/>
      <point x="142.08335" y="560.5"/>
      <point x="147.5" y="547.5" type="curve"/>
      <point x="147.5" y="547.5"/>
      <point x="154.5833" y="547.5"/>
      <point x="154.5833" y="547.5" type="curve"/>
      <point x="195.41665" y="628.5"/>
      <point x="257.0833" y="672.0"/>
      <point x="331.66665" y="672.0" type="curve" smooth="yes"/>
      <point x="391.6667" y="672.0"/>
      <point x="422.08335" y="653.5"/>
      <point x="437.5" y="624.0" type="curve" smooth="yes"/>
      <point x="447.5" y="599.5"/>
      <point x="449.5833" y="568.0"/>
      <point x="443.33335" y="539.0" type="curve" smooth="yes"/>
      <point x="443.33335" y="539.0"/>
      <point x="441.6667" y="531.0"/>
      <point x="441.6667" y="531.0" type="curve" smooth="yes"/>
      <point x="425.0" y="446.5"/>
      <point x="387.91665" y="403.5"/>
      <point x="245.41665" y="313.5" type="curve" smooth="yes"/>
      <point x="108.33335" y="227.5"/>
      <point x="39.166650000000004" y="161.0"/>
      <point x="13.75" y="40.0" type="curve" smooth="yes"/>
      <point x="13.75" y="40.0"/>
      <point x="10.41665" y="23.5"/>
      <point x="10.41665" y="23.5" type="curve" smooth="yes"/>
      <point x="7.9167000000000005" y="12.5"/>
      <point x="10.83335" y="0.0"/>
      <point x="19.58335" y="0.0" type="curve" smooth="yes"/>
      <point x="29.58335" y="0.0"/>
      <point x="372.9167" y="0.0"/>
      <point x="383.33335" y="0.0" type="curve"/>
      <point x="385.4167" y="7.5"/>
      <point x="387.5" y="13.5"/>
      <point x="389.5833" y="23.5" type="curve" smooth="yes"/>
      <point x="391.6667" y="35.0"/>
      <point x="387.9167" y="44.5"/>
      <point x="367.5" y="44.5" type="curve" smooth="yes"/>
      <point x="367.5" y="44.5"/>
      <point x="171.6667" y="44.5"/>
      <point x="171.6667" y="44.5" type="curve" smooth="yes"/>
      <point x="112.5" y="44.5"/>
      <point x="80.0" y="42.0"/>
      <point x="32.0833" y="31.5" type="curve"/>
      <point x="32.0833" y="31.5"/>
      <point x="75.0" y="33.0"/>
      <point x="75.0" y="33.0" type="curve"/>
      <point x="75.0" y="33.0"/>
      <point x="34.583349999999996" y="44.5"/>
      <point x="34.583349999999996" y="44.5" type="curve"/>
      <point x="34.583349999999996" y="44.5"/>
      <point x="43.333349999999996" y="8.0"/>
      <point x="43.333349999999996" y="8.0" type="curve"/>
      <point x="71.66665" y="125.0"/>
      <point x="104.5833" y="173.5"/>
      <point x="272.08335" y="277.5" type="curve" smooth="yes"/>
      <point x="397.0833" y="355.0"/>
      <point x="459.16665" y="413.0"/>
      <point x="480.83335" y="517.0" type="curve" smooth="yes"/>
      <point x="480.83335" y="517.0"/>
      <point x="484.16665" y="532.5"/>
      <point x="484.16665" y="532.5" type="curve" smooth="yes"/>
      <point x="506.25" y="636.5"/>
      <point x="450.41665" y="720.0"/>
    </contour>
  </outline>
</glyph>
<glyph name="three" format="2">
  <advance width="500.0"/>
  <unicode hex="0033"/>
  <outline>
    <contour>
      <point x="324.16665" y="719.5" type="curve" smooth="yes"/>
      <point x="246.6667" y="719.5"/>
      <point x="191.25" y="689.0"/>
      <point x="161.25" y="660.0" type="curve" smooth="yes"/>
      <point x="152.08335" y="650.5"/>
      <point x="148.75" y="640.0"/>
      <point x="147.5" y="631.5" type="curve" smooth="yes"/>
      <point x="145.0" y="617.5"/>
      <point x="144.58335" y="605.5"/>
      <point x="144.5833" y="593.0" type="curve"/>
      <point x="144.5833" y="593.0"/>
      <point x="152.0833" y="593.0"/>
      <point x="152.0833" y="593.0" type="curve"/>
      <point x="199.1667" y="648.0"/>
      <point x="248.33335" y="673.0"/>
      <point x="322.5" y="673.0" type="curve" smooth="yes"/>
      <point x="417.5" y="673.0"/>
      <point x="459.1667" y="612.5"/>
      <point x="446.6667" y="535.5" type="curve" smooth="yes"/>
      <point x="446.6667" y="535.5"/>
      <point x="444.5833" y="525.0"/>
      <point x="444.5833" y="525.0" type="curve" smooth="yes"/>
      <point x="421.25" y="414.5"/>
      <point x="319.58335" y="359.0"/>
      <point x="165.41665" y="358.5" type="curve"/>
      <point x="162.5" y="350.0"/>
      <point x="159.5833" y="341.5"/>
      <point x="157.5" y="330.5" type="curve" smooth="yes"/>
      <point x="155.83335" y="321.0"/>
      <point x="157.5" y="312.0"/>
      <point x="167.08335" y="312.0" type="curve" smooth="yes"/>
      <point x="317.08335" y="312.0"/>
      <point x="393.33335" y="263.5"/>
      <point x="377.5" y="163.5" type="curve" smooth="yes"/>
      <point x="377.5" y="163.5"/>
      <point x="375.41665" y="151.0"/>
      <point x="375.41665" y="151.0" type="curve" smooth="yes"/>
      <point x="355.0" y="62.0"/>
      <point x="289.16665" y="26.5"/>
      <point x="204.16665" y="26.5" type="curve" smooth="yes"/>
      <point x="123.75" y="26.5"/>
      <point x="72.0833" y="54.5"/>
      <point x="43.333349999999996" y="115.0" type="curve"/>
      <point x="43.333349999999996" y="115.0"/>
      <point x="35.833349999999996" y="115.0"/>
      <point x="35.833349999999996" y="115.0" type="curve"/>
      <point x="30.8333" y="102.5"/>
      <point x="27.91665" y="93.5"/>
      <point x="25.8333" y="84.0" type="curve" smooth="yes"/>
      <point x="24.16665" y="73.5"/>
      <point x="24.1667" y="60.0"/>
      <point x="36.666650000000004" y="43.0" type="curve" smooth="yes"/>
      <point x="59.166700000000006" y="12.0"/>
      <point x="113.75" y="-20.0"/>
      <point x="199.5833" y="-20.0" type="curve" smooth="yes"/>
      <point x="318.33335" y="-20.0"/>
      <point x="392.0833" y="35.0"/>
      <point x="413.33335" y="143.5" type="curve" smooth="yes"/>
      <point x="413.33335" y="143.5"/>
      <point x="416.66665" y="161.0"/>
      <point x="416.66665" y="161.0" type="curve" smooth="yes"/>
      <point x="430.83335" y="233.5"/>
      <point x="392.9167" y="316.5"/>
      <point x="285.41665" y="337.5" type="curve"/>
      <point x="285.41665" y="337.5"/>
      <point x="303.33335" y="309.5"/>
      <point x="303.33335" y="309.5" type="curve"/>
      <point x="303.33335" y="309.5"/>
      <point x="315.0" y="364.5"/>
      <point x="315.0" y="364.5" type="curve"/>
      <point x="315.0" y="364.5"/>
      <point x="285.8333" y="334.5"/>
      <point x="285.8333" y="334.5" type="curve"/>
      <point x="405.0" y="360.5"/>
      <point x="462.91665" y="424.0"/>
      <point x="482.08335" y="513.0" type="curve" smooth="yes"/>
      <point x="482.08335" y="513.0"/>
      <point x="485.41665" y="528.5"/>
      <point x="485.41665" y="528.5" type="curve" smooth="yes"/>
      <point x="505.41665" y="621.5"/>
      <point x="455.83335" y="719.5"/>
    </contour>
  </outline>
</glyph>
<glyph name="four" format="2">
  <advance width="500.0"/>
  <unicode hex="0034"/>
  <outline>
    <contour>
      <point x="428.75" y="708.0" type="curve" smooth="yes"/>
      <point x="415.83335" y="708.0"/>
      <point x="401.25" y="701.5"/>
      <point x="376.25" y="675.5" type="curve" smooth="yes"/>
      <point x="202.5" y="472.0"/>
      <point x="37.083349999999996" y="240.0"/>
      <point x="27.5" y="202.5" type="curve" smooth="yes"/>
      <point x="27.5" y="202.5"/>
      <point x="22.9167" y="180.0"/>
      <point x="22.9167" y="180.0" type="curve"/>
      <point x="19.16665" y="164.5"/>
      <point x="23.75" y="152.0"/>
      <point x="34.5833" y="152.0" type="curve" smooth="yes"/>
      <point x="34.5833" y="152.0"/>
      <point x="440.0" y="152.0"/>
      <point x="440.0" y="152.0" type="curve"/>
      <point x="442.5" y="160.5"/>
      <point x="444.58335" y="167.0"/>
      <point x="446.6667" y="177.5" type="curve" smooth="yes"/>
      <point x="448.75" y="190.0"/>
      <point x="445.83335" y="198.0"/>
      <point x="434.58335" y="198.0" type="curve" smooth="yes"/>
      <point x="434.58335" y="198.0"/>
      <point x="222.5" y="198.0"/>
      <point x="222.5" y="198.0" type="curve" smooth="yes"/>
      <point x="138.75" y="198.0"/>
      <point x="97.08335" y="196.5"/>
      <point x="46.666650000000004" y="188.0" type="curve"/>
      <point x="46.666650000000004" y="188.0"/>
      <point x="71.25" y="174.0"/>
      <point x="71.25" y="174.0" type="curve"/>
      <point x="71.25" y="174.0"/>
      <point x="74.5833" y="220.0"/>
      <point x="74.5833" y="220.0" type="curve"/>
      <point x="74.5833" y="220.0"/>
      <point x="55.0" y="172.5"/>
      <point x="55.0" y="172.5" type="curve"/>
      <point x="172.5" y="361.0"/>
      <point x="332.5" y="566.5"/>
      <point x="460.83335" y="692.0" type="curve"/>
      <point x="460.83335" y="692.0"/>
      <point x="462.5" y="701.0"/>
      <point x="462.5" y="701.0" type="curve"/>
      <point x="451.6667" y="705.5"/>
      <point x="442.5" y="708.0"/>
    </contour>
    <contour>
      <point x="368.33335" y="380.5" type="curve"/>
      <point x="358.3333" y="339.0"/>
      <point x="340.83335" y="260.5"/>
      <point x="327.5" y="197.5" type="curve" smooth="yes"/>
      <point x="314.58335" y="133.5"/>
      <point x="303.75" y="78.0"/>
      <point x="295.8333" y="27.5" type="curve" smooth="yes"/>
      <point x="294.16665" y="4.5"/>
      <point x="299.16665" y="-5.0"/>
      <point x="309.16665" y="-5.0" type="curve" smooth="yes"/>
      <point x="318.75" y="-5.0"/>
      <point x="325.83335" y="-4.0"/>
      <point x="334.5833" y="-2.5" type="curve"/>
      <point x="335.4167" y="28.0"/>
      <point x="343.33335" y="72.0"/>
      <point x="360.0" y="153.0" type="curve" smooth="yes"/>
      <point x="360.0" y="153.0"/>
      <point x="403.75" y="362.5"/>
      <point x="403.75" y="362.5" type="curve"/>
      <point x="406.66665" y="376.0"/>
      <point x="401.66665" y="381.5"/>
      <point x="391.25" y="381.5" type="curve" smooth="yes"/>
      <point x="382.5" y="381.5"/>
      <point x="375.8333" y="381.0"/>
    </contour>
  </outline>
</glyph>
<glyph name="six" format="2">
  <advance width="500.0"/>
  <unicode hex="0036"/>
  <outline>
    <contour>
      <point x="362.08335" y="720.0" type="curve" smooth="yes"/>
      <point x="222.91665" y="720.0"/>
      <point x="133.33335" y="614.5"/>
      <point x="89.58335" y="393.0" type="curve" smooth="yes"/>
      <point x="89.58335" y="393.0"/>
      <point x="72.91665" y="312.0"/>
      <point x="72.91665" y="312.0" type="curve" smooth="yes"/>
      <point x="28.75" y="90.0"/>
      <point x="79.58335" y="-20.0"/>
      <point x="212.5" y="-20.0" type="curve" smooth="yes"/>
      <point x="315.41665" y="-20.0"/>
      <point x="393.75" y="40.0"/>
      <point x="417.5" y="173.5" type="curve" smooth="yes"/>
      <point x="417.5" y="173.5"/>
      <point x="422.91665" y="203.5"/>
      <point x="422.91665" y="203.5" type="curve" smooth="yes"/>
      <point x="444.5833" y="323.5"/>
      <point x="385.0" y="399.5"/>
      <point x="279.58335" y="399.5" type="curve" smooth="yes"/>
      <point x="206.25" y="399.5"/>
      <point x="155.41665" y="376.0"/>
      <point x="106.66665" y="319.5" type="curve"/>
      <point x="106.66665" y="319.5"/>
      <point x="146.66665" y="338.5"/>
      <point x="146.66665" y="338.5" type="curve"/>
      <point x="146.66665" y="338.5"/>
      <point x="93.33335" y="345.5"/>
      <point x="93.33335" y="345.5" type="curve"/>
      <point x="93.33335" y="345.5"/>
      <point x="88.75" y="273.0"/>
      <point x="88.75" y="273.0" type="curve"/>
      <point x="146.25" y="326.5"/>
      <point x="206.25" y="354.5"/>
      <point x="270.41665" y="354.5" type="curve" smooth="yes"/>
      <point x="327.08335" y="354.5"/>
      <point x="361.66665" y="334.0"/>
      <point x="378.33335" y="304.0" type="curve" smooth="yes"/>
      <point x="387.5" y="278.0"/>
      <point x="390.41665" y="239.5"/>
      <point x="382.5" y="194.5" type="curve" smooth="yes"/>
      <point x="382.5" y="194.5"/>
      <point x="379.16665" y="177.5"/>
      <point x="379.16665" y="177.5" type="curve" smooth="yes"/>
      <point x="361.25" y="76.0"/>
      <point x="300.4167" y="23.5"/>
      <point x="217.5" y="23.5" type="curve" smooth="yes"/>
      <point x="173.75" y="23.5"/>
      <point x="141.25" y="37.5"/>
      <point x="120.0" y="65.0" type="curve" smooth="yes"/>
      <point x="92.08335" y="111.0"/>
      <point x="87.08335" y="188.5"/>
      <point x="113.33335" y="313.0" type="curve" smooth="yes"/>
      <point x="113.33335" y="313.0"/>
      <point x="130.0" y="393.5"/>
      <point x="130.0" y="393.5" type="curve" smooth="yes"/>
      <point x="152.0833" y="500.5"/>
      <point x="187.5" y="575.0"/>
      <point x="228.3333" y="624.0" type="curve" smooth="yes"/>
      <point x="263.33335" y="657.5"/>
      <point x="305.8333" y="673.5"/>
      <point x="357.91665" y="673.5" type="curve" smooth="yes"/>
      <point x="413.3333" y="673.5"/>
      <point x="453.33335" y="656.5"/>
      <point x="478.75" y="620.5" type="curve"/>
      <point x="478.75" y="620.5"/>
      <point x="486.25" y="620.5"/>
      <point x="486.25" y="620.5" type="curve"/>
      <point x="490.4167" y="630.0"/>
      <point x="493.75" y="640.5"/>
      <point x="495.4167" y="652.0" type="curve" smooth="yes"/>
      <point x="496.25" y="660.5"/>
      <point x="495.4167" y="667.0"/>
      <point x="488.75" y="675.0" type="curve" smooth="yes"/>
      <point x="472.5" y="695.0"/>
      <point x="426.66665" y="720.0"/>
    </contour>
  </outline>
</glyph>
<glyph name="seven" format="2">
  <advance width="500.0"/>
  <unicode hex="0037"/>
  <outline>
    <contour>
      <point x="163.3333" y="710.0" type="curve"/>
      <point x="146.66665" y="671.0"/>
      <point x="117.5" y="550.0"/>
      <point x="112.0833" y="512.5" type="curve" smooth="yes"/>
      <point x="110.0" y="497.0"/>
      <point x="113.75" y="490.0"/>
      <point x="123.75" y="490.0" type="curve" smooth="yes"/>
      <point x="132.9167" y="490.0"/>
      <point x="141.25" y="490.5"/>
      <point x="149.16665" y="491.5" type="curve"/>
      <point x="156.66665" y="545.5"/>
      <point x="189.58335" y="648.0"/>
      <point x="197.91665" y="688.0" type="curve" smooth="yes"/>
      <point x="201.66665" y="704.5"/>
      <point x="187.5" y="710.0"/>
    </contour>
    <contour>
      <point x="181.25" y="-3.0" type="curve"/>
      <point x="228.75" y="114.0"/>
      <point x="279.16665" y="222.5"/>
      <point x="358.75" y="348.0" type="curve" smooth="yes"/>
      <point x="445.83335" y="494.5"/>
      <point x="509.5833" y="599.0"/>
      <point x="518.75" y="651.5" type="curve" smooth="yes"/>
      <point x="518.75" y="651.5"/>
      <point x="523.33335" y="674.5"/>
      <point x="523.33335" y="674.5" type="curve"/>
      <point x="525.4167" y="686.5"/>
      <point x="523.33335" y="700.0"/>
      <point x="512.5" y="700.0" type="curve" smooth="yes"/>
      <point x="512.5" y="700.0"/>
      <point x="161.25" y="700.0"/>
      <point x="161.25" y="700.0" type="curve"/>
      <point x="155.4167" y="671.0"/>
      <point x="157.9167" y="654.5"/>
      <point x="169.5833" y="654.5" type="curve" smooth="yes"/>
      <point x="169.5833" y="654.5"/>
      <point x="365.41665" y="654.5"/>
      <point x="365.41665" y="654.5" type="curve" smooth="yes"/>
      <point x="411.25" y="654.5"/>
      <point x="449.16665" y="655.5"/>
      <point x="505.0" y="661.5" type="curve"/>
      <point x="505.0" y="661.5"/>
      <point x="478.33335" y="683.0"/>
      <point x="478.33335" y="683.0" type="curve"/>
      <point x="478.33335" y="683.0"/>
      <point x="479.58335" y="625.5"/>
      <point x="479.58335" y="625.5" type="curve"/>
      <point x="479.58335" y="625.5"/>
      <point x="492.5" y="683.5"/>
      <point x="492.5" y="683.5" type="curve"/>
      <point x="442.08335" y="561.5"/>
      <point x="385.0" y="463.5"/>
      <point x="315.0" y="353.0" type="curve" smooth="yes"/>
      <point x="190.41665" y="143.0"/>
      <point x="152.08335" y="63.0"/>
      <point x="144.16665" y="15.5" type="curve" smooth="yes"/>
      <point x="141.6667" y="2.5"/>
      <point x="143.75" y="-5.0"/>
      <point x="153.75" y="-5.0" type="curve" smooth="yes"/>
      <point x="163.75" y="-5.0"/>
      <point x="172.5" y="-4.0"/>
    </contour>
  </outline>
</glyph>
<glyph name="eight" format="2">
  <advance width="500.0"/>
  <unicode hex="0038"/>
  <outline>
    <contour>
      <point x="333.33335" y="720.0" type="curve" smooth="yes"/>
      <point x="222.91665" y="720.0"/>
      <point x="145.0" y="651.0"/>
      <point x="126.25" y="548.5" type="curve" smooth="yes"/>
      <point x="126.25" y="548.5"/>
      <point x="124.58335" y="540.0"/>
      <point x="124.58335" y="540.0" type="curve" smooth="yes"/>
      <point x="107.91665" y="453.0"/>
      <point x="134.16665" y="377.0"/>
      <point x="233.75" y="327.5" type="curve" smooth="yes"/>
      <point x="233.75" y="327.5"/>
      <point x="304.58335" y="292.5"/>
      <point x="304.58335" y="292.5" type="curve" smooth="yes"/>
      <point x="371.25" y="259.5"/>
      <point x="387.08335" y="213.5"/>
      <point x="378.33335" y="153.0" type="curve" smooth="yes"/>
      <point x="378.33335" y="153.0"/>
      <point x="377.0833" y="145.5"/>
      <point x="377.0833" y="145.5" type="curve" smooth="yes"/>
      <point x="360.62495" y="67.99972120035"/>
      <point x="307.5" y="24.0"/>
      <point x="209.58335" y="24.0" type="curve" smooth="yes"/>
      <point x="105.0" y="24.0"/>
      <point x="62.5" y="86.0"/>
      <point x="79.16665" y="167.5" type="curve" smooth="yes"/>
      <point x="79.16665" y="167.5"/>
      <point x="80.83335" y="175.5"/>
      <point x="80.83335" y="175.5" type="curve" smooth="yes"/>
      <point x="97.07785" y="252.9736278893"/>
      <point x="164.1892" y="302.5846956721"/>
      <point x="262.08335" y="324.0" type="curve"/>
      <point x="262.08335" y="324.0"/>
      <point x="202.5" y="362.0"/>
      <point x="202.5" y="362.0" type="curve"/>
      <point x="202.5" y="362.0"/>
      <point x="193.75" y="323.5"/>
      <point x="193.75" y="323.5" type="curve"/>
      <point x="193.75" y="323.5"/>
      <point x="225.0" y="344.0"/>
      <point x="225.0" y="344.0" type="curve"/>
      <point x="125.04135" y="330.5536248848"/>
      <point x="58.1379" y="263.06207146155"/>
      <point x="41.666650000000004" y="183.5" type="curve" smooth="yes"/>
      <point x="41.666650000000004" y="183.5"/>
      <point x="39.166650000000004" y="171.5"/>
      <point x="39.166650000000004" y="171.5" type="curve" smooth="yes"/>
      <point x="19.16665" y="75.5"/>
      <point x="65.0" y="-20.0"/>
      <point x="207.5" y="-20.0" type="curve" smooth="yes"/>
      <point x="318.75" y="-20.0"/>
      <point x="394.23495" y="31.544040139099998"/>
      <point x="415.4167" y="135.5" type="curve" smooth="yes"/>
      <point x="415.4167" y="135.5"/>
      <point x="418.3333" y="150.0"/>
      <point x="418.3333" y="150.0" type="curve" smooth="yes"/>
      <point x="434.1667" y="226.5"/>
      <point x="403.75" y="293.0"/>
      <point x="327.08335" y="330.5" type="curve" smooth="yes"/>
      <point x="327.08335" y="330.5"/>
      <point x="246.25" y="370.0"/>
      <point x="246.25" y="370.0" type="curve" smooth="yes"/>
      <point x="165.41665" y="409.5"/>
      <point x="151.6667" y="471.5"/>
      <point x="165.83335" y="541.0" type="curve" smooth="yes"/>
      <point x="165.83335" y="541.0"/>
      <point x="167.5" y="549.0"/>
      <point x="167.5" y="549.0" type="curve" smooth="yes"/>
      <point x="183.75" y="628.0"/>
      <point x="250.0" y="674.5"/>
      <point x="328.3333" y="675.0" type="curve" smooth="yes"/>
      <point x="378.75" y="675.5"/>
      <point x="412.08335" y="660.0"/>
      <point x="434.5833" y="636.0" type="curve" smooth="yes"/>
      <point x="453.33335" y="606.5"/>
      <point x="458.75" y="565.0"/>
      <point x="449.5833" y="523.5" type="curve" smooth="yes"/>
      <point x="449.5833" y="523.5"/>
      <point x="447.5" y="514.0"/>
      <point x="447.5" y="514.0" type="curve" smooth="yes"/>
      <point x="430.0" y="433.0"/>
      <point x="365.8333" y="379.5"/>
      <point x="262.08335" y="347.0" type="curve"/>
      <point x="262.08335" y="347.0"/>
      <point x="327.91665" y="310.5"/>
      <point x="327.91665" y="310.5" type="curve"/>
      <point x="327.91665" y="310.5"/>
      <point x="337.5" y="355.5"/>
      <point x="337.5" y="355.5" type="curve"/>
      <point x="337.5" y="355.5"/>
      <point x="305.83335" y="328.0"/>
      <point x="305.83335" y="328.0" type="curve"/>
      <point x="402.91665" y="354.0"/>
      <point x="469.58335" y="412.0"/>
      <point x="489.5833" y="511.0" type="curve" smooth="yes"/>
      <point x="489.5833" y="511.0"/>
      <point x="492.08335" y="523.5"/>
      <point x="492.08335" y="523.5" type="curve" smooth="yes"/>
      <point x="512.9167" y="625.5"/>
      <point x="463.33335" y="720.0"/>
    </contour>
  </outline>
</glyph>
<glyph name="question" format="2">
  <advance width="500.0"/>
  <unicode hex="003F"/>
  <outline>
    <contour>
      <point x="121.50385" y="57.5" type="curve" smooth="yes"/>
      <point x="121.50385" y="57.5"/>
      <point x="121.50385" y="57.5"/>
      <point x="121.50385" y="57.5" type="curve"/>
      <point x="121.50385" y="23.35155"/>
      <point x="149.1849" y="-4.32945"/>
      <point x="183.33335" y="-4.32945" type="curve" smooth="yes"/>
      <point x="217.48175" y="-4.32945"/>
      <point x="245.1628" y="23.35155"/>
      <point x="245.1628" y="57.5" type="curve" smooth="yes"/>
      <point x="245.1628" y="57.5"/>
      <point x="245.1628" y="57.5"/>
      <point x="245.1628" y="57.5" type="curve"/>
      <point x="245.1628" y="91.64845"/>
      <point x="217.48175" y="119.32945"/>
      <point x="183.33335" y="119.32945" type="curve" smooth="yes"/>
      <point x="149.1849" y="119.32945"/>
      <point x="121.50385" y="91.64845"/>
    </contour>
    <contour>
      <point x="335.4167" y="720.0" type="curve" smooth="yes"/>
      <point x="263.33335" y="720.0"/>
      <point x="202.0833" y="694.0"/>
      <point x="162.9167" y="654.0" type="curve" smooth="yes"/>
      <point x="146.25" y="636.5"/>
      <point x="137.5" y="619.5"/>
      <point x="134.16665" y="600.0" type="curve" smooth="yes"/>
      <point x="130.83335" y="583.0"/>
      <point x="131.25" y="567.0"/>
      <point x="140.41665" y="557.5" type="curve"/>
      <point x="140.41665" y="557.5"/>
      <point x="147.91665" y="557.5"/>
      <point x="147.91665" y="557.5" type="curve"/>
      <point x="190.41665" y="632.5"/>
      <point x="247.5" y="672.5"/>
      <point x="324.5833" y="672.5" type="curve" smooth="yes"/>
      <point x="395.4167" y="672.5"/>
      <point x="428.3333" y="647.5"/>
      <point x="430.0" y="602.0" type="curve"/>
      <point x="437.0833" y="584.5"/>
      <point x="436.25" y="564.0"/>
      <point x="432.08335" y="544.0" type="curve" smooth="yes"/>
      <point x="421.66665" y="495.0"/>
      <point x="396.66665" y="463.5"/>
      <point x="337.5" y="421.0" type="curve" smooth="yes"/>
      <point x="337.5" y="421.0"/>
      <point x="305.41665" y="398.0"/>
      <point x="305.41665" y="398.0" type="curve" smooth="yes"/>
      <point x="238.3333" y="350.5"/>
      <point x="211.66665" y="316.5"/>
      <point x="197.91665" y="265.5" type="curve" smooth="yes"/>
      <point x="197.91665" y="265.5"/>
      <point x="196.25" y="259.0"/>
      <point x="196.25" y="259.0" type="curve" smooth="yes"/>
      <point x="192.08335" y="245.0"/>
      <point x="197.0833" y="236.5"/>
      <point x="215.83335" y="236.5" type="curve" smooth="yes"/>
      <point x="215.83335" y="236.5"/>
      <point x="234.58335" y="236.5"/>
      <point x="234.58335" y="236.5" type="curve"/>
      <point x="234.58335" y="236.5"/>
      <point x="236.66665" y="246.0"/>
      <point x="236.66665" y="246.0" type="curve" smooth="yes"/>
      <point x="245.0" y="290.0"/>
      <point x="258.3333" y="311.5"/>
      <point x="328.75" y="363.0" type="curve" smooth="yes"/>
      <point x="328.75" y="363.0"/>
      <point x="360.4167" y="386.0"/>
      <point x="360.4167" y="386.0" type="curve" smooth="yes"/>
      <point x="427.08335" y="435.5"/>
      <point x="457.08335" y="471.0"/>
      <point x="472.0833" y="538.5" type="curve" smooth="yes"/>
      <point x="472.0833" y="538.5"/>
      <point x="476.25" y="557.0"/>
      <point x="476.25" y="557.0" type="curve" smooth="yes"/>
      <point x="495.83335" y="642.0"/>
      <point x="454.5833" y="720.0"/>
    </contour>
  </outline>
</glyph>
<glyph name="at" format="2">
  <advance width="500.0"/>
  <unicode hex="0040"/>
  <outline>
    <contour>
      <point x="352.08335" y="709.0" type="curve" smooth="yes"/>
      <point x="214.16665" y="709.0"/>
      <point x="121.25" y="564.0"/>
      <point x="75.41665" y="334.0" type="curve" smooth="yes"/>
      <point x="75.41665" y="334.0"/>
      <point x="31.25" y="122.0"/>
      <point x="31.25" y="122.0" type="curve" smooth="yes"/>
      <point x="-3.33335" y="-52.5"/>
      <point x="47.5" y="-164.0"/>
      <point x="172.08335" y="-164.0" type="curve" smooth="yes"/>
      <point x="237.9167" y="-164.0"/>
      <point x="280.4167" y="-145.0"/>
      <point x="297.91665" y="-128.5" type="curve" smooth="yes"/>
      <point x="307.5" y="-119.0"/>
      <point x="312.5" y="-108.5"/>
      <point x="313.3333" y="-99.5" type="curve" smooth="yes"/>
      <point x="313.3333" y="-99.5"/>
      <point x="316.6667" y="-76.5"/>
      <point x="316.6667" y="-76.5" type="curve"/>
      <point x="316.6667" y="-76.5"/>
      <point x="309.1667" y="-76.5"/>
      <point x="309.1667" y="-76.5" type="curve"/>
      <point x="268.75" y="-104.0"/>
      <point x="225.4167" y="-117.0"/>
      <point x="175.8333" y="-117.0" type="curve" smooth="yes"/>
      <point x="137.5" y="-117.0"/>
      <point x="103.75" y="-103.5"/>
      <point x="83.3333" y="-77.0" type="curve"/>
      <point x="58.75" y="-30.5"/>
      <point x="55.4167" y="33.5"/>
      <point x="73.33335" y="123.0" type="curve" smooth="yes"/>
      <point x="73.33335" y="123.0"/>
      <point x="117.08335" y="334.0"/>
      <point x="117.08335" y="334.0" type="curve" smooth="yes"/>
      <point x="157.5" y="539.5"/>
      <point x="242.91665" y="662.0"/>
      <point x="346.25" y="662.0" type="curve" smooth="yes"/>
      <point x="385.8333" y="662.0"/>
      <point x="414.16665" y="650.5"/>
      <point x="431.25" y="625.0" type="curve"/>
      <point x="449.1667" y="574.0"/>
      <point x="447.0833" y="501.5"/>
      <point x="429.5833" y="413.0" type="curve" smooth="yes"/>
      <point x="429.5833" y="413.0"/>
      <point x="393.75" y="240.5"/>
      <point x="393.75" y="240.5" type="curve" smooth="yes"/>
      <point x="369.58335" y="117.5"/>
      <point x="330.0" y="60.0"/>
      <point x="287.5" y="60.0" type="curve"/>
      <point x="287.5" y="60.0"/>
      <point x="285.8333" y="60.0"/>
      <point x="285.8333" y="60.0" type="curve"/>
      <point x="278.75" y="69.5"/>
      <point x="277.9167" y="87.0"/>
      <point x="284.1667" y="117.0" type="curve" smooth="yes"/>
      <point x="303.75" y="211.5"/>
      <point x="337.08335" y="370.0"/>
      <point x="356.25" y="462.0" type="curve" smooth="yes"/>
      <point x="361.25" y="486.5"/>
      <point x="362.5" y="500.0"/>
      <point x="348.75" y="500.0" type="curve" smooth="yes"/>
      <point x="348.75" y="500.0"/>
      <point x="338.75" y="500.0"/>
      <point x="338.75" y="500.0" type="curve"/>
      <point x="322.5" y="480.0"/>
      <point x="306.6667" y="458.0"/>
      <point x="300.83335" y="447.0" type="curve" smooth="yes"/>
      <point x="277.0833" y="364.0"/>
      <point x="259.16665" y="286.5"/>
      <point x="232.08335" y="158.0" type="curve" smooth="yes"/>
      <point x="211.25" y="57.5"/>
      <point x="228.3333" y="15.0"/>
      <point x="278.75" y="15.0" type="curve" smooth="yes"/>
      <point x="278.75" y="15.0"/>
      <point x="282.08335" y="15.0"/>
      <point x="282.08335" y="15.0" type="curve" smooth="yes"/>
      <point x="350.4167" y="15.0"/>
      <point x="407.5" y="94.5"/>
      <point x="434.5833" y="239.0" type="curve" smooth="yes"/>
      <point x="434.5833" y="239.0"/>
      <point x="470.4167" y="412.0"/>
      <point x="470.4167" y="412.0" type="curve" smooth="yes"/>
      <point x="505.41665" y="600.0"/>
      <point x="476.6667" y="709.0"/>
    </contour>
    <contour>
      <point x="172.91665" y="15.5" type="curve" smooth="yes"/>
      <point x="190.0" y="15.5"/>
      <point x="205.0" y="31.0"/>
      <point x="217.91665" y="63.5" type="curve"/>
      <point x="217.91665" y="63.5"/>
      <point x="244.58335" y="63.5"/>
      <point x="244.58335" y="63.5" type="curve"/>
      <point x="244.58335" y="63.5"/>
      <point x="255.41665" y="108.0"/>
      <point x="255.41665" y="108.0" type="curve"/>
      <point x="235.4167" y="94.0"/>
      <point x="240.0" y="92.0"/>
      <point x="227.5" y="91.0" type="curve"/>
      <point x="226.25" y="99.0"/>
      <point x="227.0833" y="116.0"/>
      <point x="232.5" y="141.5" type="curve" smooth="yes"/>
      <point x="232.5" y="141.5"/>
      <point x="270.41665" y="322.0"/>
      <point x="270.41665" y="322.0" type="curve" smooth="yes"/>
      <point x="288.75" y="409.5"/>
      <point x="298.3333" y="436.0"/>
      <point x="307.08335" y="436.0" type="curve" smooth="yes"/>
      <point x="317.5" y="436.0"/>
      <point x="319.58335" y="434.0"/>
      <point x="330.0" y="427.5" type="curve"/>
      <point x="330.0" y="427.5"/>
      <point x="330.0" y="465.5"/>
      <point x="330.0" y="465.5" type="curve"/>
      <point x="330.0" y="465.5"/>
      <point x="306.66665" y="465.5"/>
      <point x="306.66665" y="465.5" type="curve"/>
      <point x="306.25" y="494.0"/>
      <point x="298.75" y="505.0"/>
      <point x="282.08335" y="505.0" type="curve" smooth="yes"/>
      <point x="257.08335" y="505.0"/>
      <point x="227.0833" y="455.5"/>
      <point x="200.8333" y="329.0" type="curve" smooth="yes"/>
      <point x="200.8333" y="329.0"/>
      <point x="156.66665" y="118.0"/>
      <point x="156.66665" y="118.0" type="curve" smooth="yes"/>
      <point x="141.66665" y="45.5"/>
      <point x="151.66665" y="15.5"/>
    </contour>
  </outline>
</glyph>
<glyph name="A" format="2">
  <advance width="500.0"/>
  <unicode hex="0041"/>
  <anchor x="410.8333" y="0.0" name="ogonek"/>
  <anchor x="343.1456" y="710.5" name="top"/>
  <anchor x="340.0203" y="700.0" name="ring"/>
  <anchor x="199.0625" y="-1.0" name="bottom"/>
  <anchor x="348.3333" y="750.0" name="hook"/>
  <outline>
    <contour>
      <point x="81.25" y="272.5" type="curve"/>
      <point x="81.25" y="272.5"/>
      <point x="74.16665" y="249.5"/>
      <point x="74.16665" y="249.5" type="curve" smooth="yes"/>
      <point x="70.83335" y="235.5"/>
      <point x="73.75" y="226.0"/>
      <point x="85.41665" y="226.0" type="curve"/>
      <point x="85.41665" y="226.0"/>
      <point x="387.5" y="226.0"/>
      <point x="387.5" y="226.0" type="curve"/>
      <point x="387.5" y="226.0"/>
      <point x="387.08335" y="248.5"/>
      <point x="387.08335" y="248.5" type="curve"/>
      <point x="387.08335" y="248.5"/>
      <point x="386.25" y="271.5"/>
      <point x="386.25" y="271.5" type="curve"/>
      <point x="386.25" y="271.5"/>
      <point x="375.0" y="265.0"/>
      <point x="375.0" y="265.0" type="curve"/>
      <point x="366.25" y="270.5"/>
      <point x="355.0" y="272.5"/>
      <point x="342.08335" y="272.5" type="curve"/>
      <point x="342.08335" y="272.5"/>
      <point x="81.25" y="272.5"/>
    </contour>
    <contour>
      <point x="38.75" y="0.0" type="curve"/>
      <point x="71.25" y="193.0"/>
      <point x="215.0" y="487.5"/>
      <point x="335.83335" y="672.5" type="curve"/>
      <point x="335.83335" y="672.5"/>
      <point x="318.33335" y="664.5"/>
      <point x="318.33335" y="664.5" type="curve"/>
      <point x="318.33335" y="664.5"/>
      <point x="350.83335" y="664.5"/>
      <point x="350.83335" y="664.5" type="curve"/>
      <point x="350.83335" y="664.5"/>
      <point x="339.16665" y="672.0"/>
      <point x="339.16665" y="672.0" type="curve"/>
      <point x="375.4167" y="499.5"/>
      <point x="387.08335" y="244.5"/>
      <point x="367.91665" y="34.0" type="curve" smooth="yes"/>
      <point x="364.5833" y="10.0"/>
      <point x="370.83335" y="-2.0"/>
      <point x="384.58335" y="-2.0" type="curve" smooth="yes"/>
      <point x="392.91665" y="-2.0"/>
      <point x="402.08335" y="-1.5"/>
      <point x="409.16665" y="0.0" type="curve"/>
      <point x="408.75" y="25.0"/>
      <point x="409.5833" y="46.0"/>
      <point x="413.33335" y="83.0" type="curve" smooth="yes"/>
      <point x="423.3333" y="282.0"/>
      <point x="415.83335" y="496.5"/>
      <point x="385.0" y="672.0" type="curve" smooth="yes"/>
      <point x="377.0833" y="700.0"/>
      <point x="372.91665" y="710.0"/>
      <point x="354.16665" y="710.0" type="curve"/>
      <point x="338.75" y="710.0"/>
      <point x="324.16665" y="709.0"/>
      <point x="308.75" y="708.0" type="curve"/>
      <point x="176.6667" y="510.0"/>
      <point x="74.16665" y="293.0"/>
      <point x="0.8333499999999994" y="39.5" type="curve"/>
      <point x="-4.166650000000001" y="11.5"/>
      <point x="1.25" y="-1.5"/>
      <point x="14.583350000000003" y="-1.5" type="curve"/>
      <point x="23.75" y="-1.5"/>
      <point x="30.8333" y="-1.0"/>
    </contour>
  </outline>
</glyph>
<glyph name="B" format="2">
  <advance width="500.0"/>
  <unicode hex="0042"/>
  <anchor x="250.0" y="711.0" name="top"/>
  <anchor x="250.0" y="0.0" name="bottom"/>
  <outline>
    <contour>
      <point x="206.66665" y="-5.0" type="curve" smooth="yes"/>
      <point x="315.41665" y="-5.0"/>
      <point x="387.91665" y="43.5"/>
      <point x="411.25" y="155.5" type="curve" smooth="yes"/>
      <point x="411.25" y="155.5"/>
      <point x="415.83335" y="177.5"/>
      <point x="415.83335" y="177.5" type="curve" smooth="yes"/>
      <point x="429.1667" y="241.0"/>
      <point x="409.16665" y="299.5"/>
      <point x="350.83335" y="324.0" type="curve"/>
      <point x="350.83335" y="324.0"/>
      <point x="350.83335" y="340.5"/>
      <point x="350.83335" y="340.5" type="curve"/>
      <point x="350.83335" y="340.5"/>
      <point x="142.91665" y="340.5"/>
      <point x="142.91665" y="340.5" type="curve"/>
      <point x="142.91665" y="340.5"/>
      <point x="138.33335" y="318.0"/>
      <point x="138.33335" y="318.0" type="curve"/>
      <point x="138.33335" y="318.0"/>
      <point x="267.91665" y="318.0"/>
      <point x="267.91665" y="318.0" type="curve"/>
      <point x="357.08335" y="310.5"/>
      <point x="388.33335" y="249.5"/>
      <point x="373.75" y="179.5" type="curve" smooth="yes"/>
      <point x="373.75" y="179.5"/>
      <point x="369.1667" y="158.0"/>
      <point x="369.1667" y="158.0" type="curve" smooth="yes"/>
      <point x="350.0" y="67.0"/>
      <point x="286.25" y="41.5"/>
      <point x="203.33335" y="41.5" type="curve" smooth="yes"/>
      <point x="149.58335" y="41.5"/>
      <point x="122.5" y="45.5"/>
      <point x="82.08335" y="57.0" type="curve"/>
      <point x="100.0" y="206.5"/>
      <point x="152.5" y="356.5"/>
      <point x="181.25" y="507.5" type="curve" smooth="yes"/>
      <point x="193.33335" y="574.0"/>
      <point x="200.83335" y="621.0"/>
      <point x="206.25" y="668.0" type="curve"/>
      <point x="206.25" y="668.0"/>
      <point x="212.91665" y="682.5"/>
      <point x="212.91665" y="682.5" type="curve"/>
      <point x="212.91665" y="682.5"/>
      <point x="174.58335" y="680.0"/>
      <point x="174.58335" y="680.0" type="curve"/>
      <point x="134.58335" y="457.5"/>
      <point x="73.3333" y="263.5"/>
      <point x="39.5833" y="68.5" type="curve"/>
      <point x="35.4167" y="34.0"/>
      <point x="40.833349999999996" y="25.0"/>
      <point x="48.75" y="19.0" type="curve" smooth="yes"/>
      <point x="71.66665" y="6.5"/>
      <point x="137.5" y="-5.0"/>
    </contour>
    <contour>
      <point x="146.4372" y="700.0" type="curve"/>
      <point x="143.96255" y="691.5"/>
      <point x="142.1087" y="684.5"/>
      <point x="140.05075" y="674.0" type="curve"/>
      <point x="137.56765000000001" y="661.0"/>
      <point x="139.7615" y="653.5"/>
      <point x="146.0115" y="653.5" type="curve"/>
      <point x="166.66665" y="653.5"/>
      <point x="243.33335" y="663.5"/>
      <point x="325.0" y="663.5" type="curve"/>
      <point x="380.0" y="663.5"/>
      <point x="412.9167" y="654.0"/>
      <point x="436.25" y="629.5" type="curve" smooth="yes"/>
      <point x="451.25" y="605.0"/>
      <point x="452.5" y="566.5"/>
      <point x="443.75" y="524.5" type="curve" smooth="yes"/>
      <point x="443.75" y="524.5"/>
      <point x="439.16665" y="503.0"/>
      <point x="439.16665" y="503.0" type="curve" smooth="yes"/>
      <point x="418.75" y="409.0"/>
      <point x="355.0" y="348.0"/>
      <point x="224.16665" y="348.0" type="curve" smooth="yes"/>
      <point x="183.75" y="348.0"/>
      <point x="157.9167" y="350.5"/>
      <point x="131.25" y="355.0" type="curve"/>
      <point x="131.25" y="355.0"/>
      <point x="120.41665" y="315.5"/>
      <point x="120.41665" y="315.5" type="curve"/>
      <point x="120.41665" y="315.5"/>
      <point x="132.91665" y="318.5"/>
      <point x="132.91665" y="318.5" type="curve"/>
      <point x="157.5" y="311.0"/>
      <point x="185.8333" y="306.0"/>
      <point x="222.91665" y="306.0" type="curve" smooth="yes"/>
      <point x="364.16665" y="306.0"/>
      <point x="453.75" y="368.0"/>
      <point x="480.41665" y="498.0" type="curve" smooth="yes"/>
      <point x="480.41665" y="498.0"/>
      <point x="484.5833" y="518.5"/>
      <point x="484.5833" y="518.5" type="curve" smooth="yes"/>
      <point x="505.0" y="618.0"/>
      <point x="477.91665" y="710.0"/>
      <point x="334.1667" y="710.0" type="curve" smooth="yes"/>
      <point x="270.83335" y="710.0"/>
      <point x="201.25" y="708.5"/>
    </contour>
  </outline>
</glyph>
<glyph name="D" format="2">
  <advance width="500.0"/>
  <unicode hex="0044"/>
  <anchor x="330.2496" y="711.0" name="top"/>
  <anchor x="193.75" y="0.0" name="bottom"/>
  <outline>
    <contour>
      <point x="447.5" y="277.0" type="curve" smooth="yes"/>
      <point x="447.5" y="277.0"/>
      <point x="472.91665" y="399.5"/>
      <point x="472.91665" y="399.5" type="curve" smooth="yes"/>
      <point x="514.58335" y="602.5"/>
      <point x="464.16665" y="710.0"/>
      <point x="304.16665" y="710.0" type="curve"/>
      <point x="244.58335" y="710.0"/>
      <point x="181.66665" y="706.5"/>
      <point x="146.6054" y="700.0" type="curve"/>
      <point x="143.72545" y="691.5"/>
      <point x="141.88115" y="684.5"/>
      <point x="139.83454999999998" y="674.0" type="curve"/>
      <point x="137.3591" y="661.0"/>
      <point x="139.5558" y="653.5"/>
      <point x="145.8058" y="653.5" type="curve" smooth="yes"/>
      <point x="160.83335" y="653.5"/>
      <point x="231.6667" y="663.5"/>
      <point x="297.08335" y="663.5" type="curve" smooth="yes"/>
      <point x="357.08335" y="663.5"/>
      <point x="398.33335" y="648.5"/>
      <point x="430.0" y="613.5" type="curve" smooth="yes"/>
      <point x="449.58335" y="560.5"/>
      <point x="451.25" y="500.0"/>
      <point x="431.25" y="406.0" type="curve" smooth="yes"/>
      <point x="431.25" y="406.0"/>
      <point x="406.25" y="287.5"/>
      <point x="406.25" y="287.5" type="curve" smooth="yes"/>
      <point x="370.0" y="115.0"/>
      <point x="278.75" y="41.5"/>
      <point x="172.91665" y="41.5" type="curve" smooth="yes"/>
      <point x="137.5" y="41.5"/>
      <point x="109.04075" y="44.083365269"/>
      <point x="80.41665" y="52.0" type="curve"/>
      <point x="102.91665" y="229.5"/>
      <point x="165.83335" y="399.0"/>
      <point x="192.5" y="576.0" type="curve" smooth="yes"/>
      <point x="197.91665" y="612.5"/>
      <point x="199.58335" y="638.5"/>
      <point x="199.16665" y="663.5" type="curve"/>
      <point x="199.16665" y="663.5"/>
      <point x="205.83335" y="677.0"/>
      <point x="205.83335" y="677.0" type="curve"/>
      <point x="205.83335" y="677.0"/>
      <point x="165.83335" y="674.5"/>
      <point x="165.83335" y="674.5" type="curve"/>
      <point x="138.3333" y="452.5"/>
      <point x="72.5" y="262.5"/>
      <point x="38.3333" y="68.5" type="curve"/>
      <point x="33.75" y="33.5"/>
      <point x="40.8044" y="19.0347388182"/>
      <point x="49.166650000000004" y="12.0" type="curve" smooth="yes"/>
      <point x="78.2388" y="4.1134576004"/>
      <point x="117.91665" y="-5.0"/>
      <point x="169.16665" y="-5.0" type="curve" smooth="yes"/>
      <point x="311.66665" y="-5.0"/>
      <point x="410.8333" y="101.5"/>
    </contour>
  </outline>
</glyph>
<glyph name="E" format="2">
  <advance width="500.0"/>
  <unicode hex="0045"/>
  <anchor x="387.5" y="0.0" name="ogonek"/>
  <anchor x="343.1663" y="711.0" name="top"/>
  <anchor x="213.5416" y="-1.0" name="bottom"/>
  <anchor x="348.3333" y="750.0" name="hook"/>
  <outline>
    <contour>
      <point x="147.2645" y="700.0" type="curve"/>
      <point x="144.7971" y="692.0"/>
      <point x="142.5326" y="685.0"/>
      <point x="140.48185" y="675.5" type="curve" smooth="yes"/>
      <point x="137.58695" y="662.5"/>
      <point x="139.36595" y="653.5"/>
      <point x="147.28265" y="653.5" type="curve" smooth="yes"/>
      <point x="147.28265" y="653.5"/>
      <point x="520.41665" y="653.5"/>
      <point x="520.41665" y="653.5" type="curve"/>
      <point x="523.75" y="662.0"/>
      <point x="525.83335" y="669.5"/>
      <point x="527.91665" y="679.0" type="curve"/>
      <point x="530.4167" y="691.5"/>
      <point x="527.5" y="700.0"/>
      <point x="513.75" y="700.0" type="curve" smooth="yes"/>
      <point x="513.75" y="700.0"/>
      <point x="147.2645" y="700.0"/>
    </contour>
    <contour>
      <point x="121.6667" y="364.5" type="curve"/>
      <point x="121.6667" y="364.5"/>
      <point x="112.08335" y="318.0"/>
      <point x="112.08335" y="318.0" type="curve"/>
      <point x="112.08335" y="318.0"/>
      <point x="397.91665" y="318.0"/>
      <point x="397.91665" y="318.0" type="curve"/>
      <point x="400.41665" y="326.0"/>
      <point x="402.08335" y="333.5"/>
      <point x="403.75" y="342.5" type="curve" smooth="yes"/>
      <point x="405.32939999999996" y="352.68585412255004"/>
      <point x="402.5" y="364.5"/>
      <point x="390.0" y="364.5" type="curve" smooth="yes"/>
      <point x="390.0" y="364.5"/>
      <point x="121.6667" y="364.5"/>
    </contour>
    <contour>
      <point x="63.33335" y="0.0" type="curve" smooth="yes"/>
      <point x="63.33335" y="0.0"/>
      <point x="385.83335" y="0.0"/>
      <point x="385.83335" y="0.0" type="curve"/>
      <point x="388.33335" y="8.5"/>
      <point x="390.0" y="15.0"/>
      <point x="392.08335" y="25.0" type="curve"/>
      <point x="394.16665" y="38.5"/>
      <point x="390.4167" y="46.5"/>
      <point x="377.5" y="46.5" type="curve" smooth="yes"/>
      <point x="377.5" y="46.5"/>
      <point x="80.4167" y="46.5"/>
      <point x="80.4167" y="46.5" type="curve"/>
      <point x="101.66665" y="227.5"/>
      <point x="162.9167" y="410.0"/>
      <point x="198.3333" y="588.0" type="curve" smooth="yes"/>
      <point x="205.0" y="623.5"/>
      <point x="205.83335" y="644.5"/>
      <point x="205.83335" y="663.0" type="curve"/>
      <point x="205.83335" y="663.0"/>
      <point x="215.83335" y="683.5"/>
      <point x="215.83335" y="683.5" type="curve"/>
      <point x="215.83335" y="683.5"/>
      <point x="174.16665" y="679.5"/>
      <point x="174.16665" y="679.5" type="curve"/>
      <point x="138.33335" y="459.5"/>
      <point x="66.25" y="251.5"/>
      <point x="37.5" y="48.0" type="curve" smooth="yes"/>
      <point x="34.583349999999996" y="11.5"/>
      <point x="41.666650000000004" y="0.0"/>
    </contour>
  </outline>
</glyph>
<glyph name="F" format="2">
  <advance width="500.0"/>
  <unicode hex="0046"/>
  <anchor x="250.0" y="711.0" name="top"/>
  <anchor x="250.0" y="0.0" name="bottom"/>
  <outline>
    <contour>
      <point x="95.8333" y="0.0" type="curve"/>
      <point x="97.5" y="29.5"/>
      <point x="100.41665" y="63.0"/>
      <point x="105.0" y="96.0" type="curve"/>
      <point x="127.08330000000001" y="249.5"/>
      <point x="181.66665" y="422.0"/>
      <point x="214.16665" y="584.5" type="curve"/>
      <point x="221.66665" y="621.0"/>
      <point x="222.0833" y="643.5"/>
      <point x="222.9167" y="662.5" type="curve"/>
      <point x="222.9167" y="662.5"/>
      <point x="233.3333" y="683.0"/>
      <point x="233.3333" y="683.0" type="curve"/>
      <point x="233.3333" y="683.0"/>
      <point x="190.83335" y="678.0"/>
      <point x="190.83335" y="678.0" type="curve"/>
      <point x="155.0" y="457.5"/>
      <point x="82.91665" y="249.5"/>
      <point x="54.1667" y="46.5" type="curve" smooth="yes"/>
      <point x="52.083349999999996" y="14.5"/>
      <point x="55.416650000000004" y="-3.0"/>
      <point x="71.66665" y="-3.0" type="curve" smooth="yes"/>
      <point x="80.0" y="-3.0"/>
      <point x="88.33335" y="-2.0"/>
    </contour>
    <contour>
      <point x="164.23335" y="700.0" type="curve"/>
      <point x="161.76794999999998" y="692.0"/>
      <point x="159.5051" y="685.0"/>
      <point x="157.45635000000001" y="675.5" type="curve"/>
      <point x="154.5627" y="662.5"/>
      <point x="156.3422" y="653.5"/>
      <point x="164.25885" y="653.5" type="curve"/>
      <point x="164.25885" y="653.5"/>
      <point x="527.0833" y="653.5"/>
      <point x="527.0833" y="653.5" type="curve"/>
      <point x="530.41665" y="662.0"/>
      <point x="532.5" y="669.5"/>
      <point x="534.58335" y="679.0" type="curve" smooth="yes"/>
      <point x="536.99605" y="690.1858541225499"/>
      <point x="534.58335" y="700.0"/>
      <point x="520.0" y="700.0" type="curve"/>
      <point x="520.0" y="700.0"/>
      <point x="164.23335" y="700.0"/>
    </contour>
    <contour>
      <point x="131.66665" y="329.0" type="curve"/>
      <point x="131.66665" y="329.0"/>
      <point x="120.83330000000001" y="282.5"/>
      <point x="120.83330000000001" y="282.5" type="curve"/>
      <point x="120.83330000000001" y="282.5"/>
      <point x="413.75" y="282.5"/>
      <point x="413.75" y="282.5" type="curve"/>
      <point x="416.25" y="290.5"/>
      <point x="418.33335" y="298.0"/>
      <point x="420.0" y="306.5" type="curve"/>
      <point x="421.6667" y="318.0"/>
      <point x="419.16665" y="329.0"/>
      <point x="405.8333" y="329.0" type="curve"/>
      <point x="405.8333" y="329.0"/>
      <point x="131.66665" y="329.0"/>
    </contour>
  </outline>
</glyph>
<glyph name="G" format="2">
  <advance width="500.0"/>
  <unicode hex="0047"/>
  <anchor x="361.4996" y="711" name="top"/>
  <anchor x="213.1249" y="-1" name="bottom"/>
  <outline>
    <contour>
      <point x="267.0833" y="319" type="line"/>
      <point x="264.5833" y="311"/>
      <point x="262.9443" y="303.1988"/>
      <point x="261.25" y="294" type="curve" smooth="yes"/>
      <point x="259.2908" y="282.0949"/>
      <point x="262.2549" y="272.5"/>
      <point x="281.6667" y="272.5" type="curve"/>
      <point x="472.9167" y="272.5" type="line"/>
      <point x="477.5" y="295.5" type="line" smooth="yes"/>
      <point x="481.2437" y="312.4695"/>
      <point x="475.4167" y="319"/>
      <point x="464.5833" y="319" type="curve" smooth="yes"/>
    </contour>
    <contour>
      <point x="370" y="720" type="curve" smooth="yes"/>
      <point x="230" y="720"/>
      <point x="134.1667" y="609"/>
      <point x="84.5833" y="377.5" type="curve" smooth="yes"/>
      <point x="57.9167" y="250" type="line" smooth="yes"/>
      <point x="25" y="91.5"/>
      <point x="81.6667" y="-20"/>
      <point x="213.75" y="-20" type="curve" smooth="yes"/>
      <point x="289.1667" y="-20"/>
      <point x="341.25" y="12.5"/>
      <point x="374.5833" y="52.5" type="curve" smooth="yes"/>
      <point x="389.5833" y="70.5"/>
      <point x="400.8333" y="94.5"/>
      <point x="406.6667" y="126" type="curve" smooth="yes"/>
      <point x="416.25" y="175.5"/>
      <point x="426.25" y="232"/>
      <point x="431.25" y="276" type="curve"/>
      <point x="439.5833" y="297.5" type="line"/>
      <point x="397.0833" y="297.5" type="line"/>
      <point x="388.75" y="245.5"/>
      <point x="379.5833" y="196"/>
      <point x="367.5" y="139" type="curve"/>
      <point x="353.75" y="83.5"/>
      <point x="298.3333" y="26.5"/>
      <point x="216.6667" y="26.5" type="curve" smooth="yes"/>
      <point x="156.25" y="26.5"/>
      <point x="115.8333" y="58.5"/>
      <point x="102.9167" y="123" type="curve" smooth="yes"/>
      <point x="91.6667" y="155"/>
      <point x="90.4167" y="198"/>
      <point x="100.8333" y="248" type="curve" smooth="yes"/>
      <point x="127.0833" y="374.5" type="line" smooth="yes"/>
      <point x="168.3333" y="573"/>
      <point x="251.25" y="673.5"/>
      <point x="364.1667" y="673.5" type="curve" smooth="yes"/>
      <point x="422.9167" y="673.5"/>
      <point x="459.5833" y="655"/>
      <point x="483.3333" y="610.5" type="curve"/>
      <point x="465" y="661.5" type="line"/>
      <point x="467.5" y="604.5"/>
      <point x="448.3333" y="565"/>
      <point x="434.5833" y="503" type="curve" smooth="yes"/>
      <point x="430.4167" y="484"/>
      <point x="434.5833" y="470"/>
      <point x="448.3333" y="470" type="curve" smooth="yes"/>
      <point x="457.0833" y="470"/>
      <point x="464.1667" y="470.5"/>
      <point x="471.25" y="471.5" type="curve"/>
      <point x="479.1667" y="521.5"/>
      <point x="490.8333" y="553.5"/>
      <point x="500.4167" y="601" type="curve" smooth="yes"/>
      <point x="507.0833" y="628.5"/>
      <point x="505" y="652.5"/>
      <point x="492.0833" y="668" type="curve" smooth="yes"/>
      <point x="465.8333" y="699.5"/>
      <point x="427.5" y="720"/>
    </contour>
  </outline>
</glyph>
<glyph name="H" format="2">
  <advance width="500.0"/>
  <unicode hex="0048"/>
  <anchor x="338.1663" y="711.0" name="top"/>
  <anchor x="202.9167" y="0.0" name="bottom"/>
  <outline>
    <contour>
      <point x="167.5" y="700.5" type="curve"/>
      <point x="164.58335" y="666.5"/>
      <point x="158.75" y="631.5"/>
      <point x="151.25" y="595.5" type="curve" smooth="yes"/>
      <point x="115.41665" y="414.0"/>
      <point x="62.083349999999996" y="247.0"/>
      <point x="31.666649999999997" y="63.5" type="curve" smooth="yes"/>
      <point x="25.0" y="15.0"/>
      <point x="27.5" y="-2.5"/>
      <point x="43.75" y="-2.5" type="curve" smooth="yes"/>
      <point x="52.083299999999994" y="-2.5"/>
      <point x="60.0" y="-1.5"/>
      <point x="67.91665" y="0.0" type="curve"/>
      <point x="92.5" y="235.0"/>
      <point x="162.0833" y="434.0"/>
      <point x="202.0833" y="644.5" type="curve" smooth="yes"/>
      <point x="209.91275000000002" y="688.6858541225499"/>
      <point x="206.16445" y="703.5"/>
      <point x="192.5" y="703.5" type="curve" smooth="yes"/>
      <point x="183.75" y="703.5"/>
      <point x="175.83335" y="702.5"/>
    </contour>
    <contour>
      <point x="81.25" y="340.0" type="curve"/>
      <point x="81.25" y="340.0"/>
      <point x="76.66665" y="317.0"/>
      <point x="76.66665" y="317.0" type="curve" smooth="yes"/>
      <point x="73.75" y="304.0"/>
      <point x="77.91665" y="293.5"/>
      <point x="90.0" y="293.5" type="curve"/>
      <point x="90.0" y="293.5"/>
      <point x="407.0833" y="293.5"/>
      <point x="407.0833" y="293.5" type="curve"/>
      <point x="407.0833" y="293.5"/>
      <point x="412.0833" y="336.5"/>
      <point x="412.0833" y="336.5" type="curve"/>
      <point x="412.0833" y="336.5"/>
      <point x="400.83335" y="332.5"/>
      <point x="400.83335" y="332.5" type="curve"/>
      <point x="392.08335" y="338.0"/>
      <point x="383.75" y="340.0"/>
      <point x="370.83335" y="340.0" type="curve"/>
      <point x="370.83335" y="340.0"/>
      <point x="81.25" y="340.0"/>
    </contour>
    <contour>
      <point x="384.1667" y="0.0" type="curve"/>
      <point x="385.8333" y="34.0"/>
      <point x="390.0" y="69.5"/>
      <point x="395.83335" y="105.5" type="curve" smooth="yes"/>
      <point x="426.66835000000003" y="286.51358379149997"/>
      <point x="476.2432" y="446.46536710655"/>
      <point x="514.16665" y="633.5" type="curve" smooth="yes"/>
      <point x="524.1667" y="683.5"/>
      <point x="519.16665" y="702.5"/>
      <point x="505.0" y="702.5" type="curve" smooth="yes"/>
      <point x="496.25" y="702.5"/>
      <point x="487.9167" y="701.5"/>
      <point x="480.0" y="700.0" type="curve"/>
      <point x="456.25" y="495.5"/>
      <point x="377.5" y="269.5"/>
      <point x="344.16665" y="52.0" type="curve" smooth="yes"/>
      <point x="340.0" y="13.0"/>
      <point x="345.91885" y="-3.0"/>
      <point x="359.58335" y="-3.0" type="curve" smooth="yes"/>
      <point x="368.33335" y="-3.0"/>
      <point x="376.25" y="-2.0"/>
    </contour>
  </outline>
</glyph>
<glyph name="I" format="2">
  <advance width="500.0"/>
  <unicode hex="0049"/>
  <anchor x="343.1663" y="711.0" name="top"/>
  <anchor x="194.7916" y="-1.0" name="bottom"/>
  <anchor x="379.1667" y="2.5" name="ogonek"/>
  <anchor x="348.3333" y="750.0" name="hook"/>
  <outline>
    <contour>
      <point x="223.33335" y="26.5" type="curve"/>
      <point x="250.83335" y="226.5"/>
      <point x="307.5" y="405.5"/>
      <point x="347.08335" y="599.5" type="curve"/>
      <point x="353.33335" y="630.5"/>
      <point x="353.75" y="643.5"/>
      <point x="351.66665" y="658.0" type="curve"/>
      <point x="351.66665" y="658.0"/>
      <point x="362.0833" y="678.5"/>
      <point x="362.0833" y="678.5" type="curve"/>
      <point x="362.0833" y="678.5"/>
      <point x="320.0" y="673.5"/>
      <point x="320.0" y="673.5" type="curve"/>
      <point x="286.25" y="477.5"/>
      <point x="227.5" y="298.5"/>
      <point x="195.0" y="109.5" type="curve"/>
      <point x="189.58335" y="75.5"/>
      <point x="189.16665" y="60.5"/>
      <point x="190.8333" y="42.5" type="curve"/>
      <point x="190.8333" y="42.5"/>
      <point x="181.66665" y="22.0"/>
      <point x="181.66665" y="22.0" type="curve"/>
      <point x="181.66665" y="22.0"/>
      <point x="223.33335" y="26.5"/>
    </contour>
    <contour>
      <point x="376.66665" y="0.0" type="curve"/>
      <point x="379.16665" y="8.0"/>
      <point x="381.66665" y="16.5"/>
      <point x="383.75" y="25.5" type="curve" smooth="yes"/>
      <point x="386.25" y="37.0"/>
      <point x="381.66665" y="46.5"/>
      <point x="370.41665" y="46.5" type="curve" smooth="yes"/>
      <point x="370.41665" y="46.5"/>
      <point x="22.08335" y="46.5"/>
      <point x="22.08335" y="46.5" type="curve"/>
      <point x="20.0" y="38.5"/>
      <point x="17.91665" y="31.0"/>
      <point x="16.25" y="22.5" type="curve"/>
      <point x="13.4206" y="9.31414587745"/>
      <point x="16.25" y="0.0"/>
      <point x="30.0" y="0.0" type="curve" smooth="yes"/>
      <point x="30.0" y="0.0"/>
      <point x="376.66665" y="0.0"/>
    </contour>
    <contour>
      <point x="159.16665" y="700.0" type="curve"/>
      <point x="156.66665" y="692.0"/>
      <point x="154.58335" y="684.0"/>
      <point x="152.5" y="674.5" type="curve"/>
      <point x="149.67059999999998" y="663.3141458774501"/>
      <point x="153.33335" y="653.5"/>
      <point x="165.41665" y="653.5" type="curve" smooth="yes"/>
      <point x="165.41665" y="653.5"/>
      <point x="513.75" y="653.5"/>
      <point x="513.75" y="653.5" type="curve"/>
      <point x="515.83335" y="661.5"/>
      <point x="517.91665" y="669.0"/>
      <point x="519.5833" y="677.5" type="curve" smooth="yes"/>
      <point x="522.5" y="691.0"/>
      <point x="518.75" y="700.0"/>
      <point x="505.83335" y="700.0" type="curve" smooth="yes"/>
      <point x="505.83335" y="700.0"/>
      <point x="159.16665" y="700.0"/>
    </contour>
  </outline>
</glyph>
<glyph name="J" format="2">
  <advance width="500.0"/>
  <unicode hex="004A"/>
  <anchor x="341.9163" y="711.0" name="top"/>
  <anchor x="250.0" y="0.0" name="bottom"/>
  <outline>
    <contour>
      <point x="180.4167" y="27.5" type="curve" smooth="yes"/>
      <point x="122.91665" y="27.5"/>
      <point x="91.66665" y="40.0"/>
      <point x="57.083349999999996" y="76.0" type="curve"/>
      <point x="57.083349999999996" y="76.0"/>
      <point x="50.4167" y="76.0"/>
      <point x="50.4167" y="76.0" type="curve"/>
      <point x="47.5" y="68.0"/>
      <point x="45.416650000000004" y="60.5"/>
      <point x="43.333349999999996" y="51.5" type="curve"/>
      <point x="40.8333" y="40.0"/>
      <point x="42.916650000000004" y="30.5"/>
      <point x="48.3333" y="23.5" type="curve"/>
      <point x="66.25" y="-0.5"/>
      <point x="112.5" y="-20.0"/>
      <point x="177.5" y="-20.0" type="curve"/>
      <point x="296.6667" y="-20.0"/>
      <point x="353.33335" y="33.0"/>
      <point x="395.41665" y="196.0" type="curve"/>
      <point x="436.25" y="350.0"/>
      <point x="454.16665" y="560.0"/>
      <point x="497.5" y="700.0" type="curve" smooth="yes"/>
      <point x="497.5" y="708.0"/>
      <point x="493.3333" y="712.0"/>
      <point x="482.9167" y="712.0" type="curve" smooth="yes"/>
      <point x="478.75" y="712.0"/>
      <point x="474.58335" y="712.0"/>
      <point x="470.41665" y="712.0" type="curve"/>
      <point x="460.00005" y="712.0"/>
      <point x="455.83335" y="708.0"/>
      <point x="455.83335" y="700.0" type="curve" smooth="yes"/>
      <point x="455.83335" y="700.0"/>
      <point x="455.83335" y="700.0"/>
      <point x="455.83335" y="700.0" type="curve"/>
      <point x="455.83335" y="700.0"/>
      <point x="455.83335" y="700.0"/>
      <point x="455.83335" y="700.0" type="curve"/>
      <point x="455.83335" y="700.0"/>
      <point x="455.83335" y="700.0"/>
      <point x="455.83335" y="700.0" type="curve"/>
      <point x="455.83335" y="700.0"/>
      <point x="455.83335" y="700.0"/>
      <point x="455.83335" y="700.0" type="curve"/>
      <point x="455.83335" y="700.0"/>
      <point x="455.83335" y="700.0"/>
      <point x="455.83335" y="700.0" type="curve"/>
      <point x="455.83335" y="560.0"/>
      <point x="455.83335" y="350.0"/>
      <point x="352.5" y="199.5" type="curve"/>
      <point x="335.83335" y="135.5"/>
      <point x="322.5" y="105.0"/>
      <point x="295.0" y="67.0" type="curve" smooth="yes"/>
      <point x="263.75" y="40.0"/>
      <point x="226.25" y="27.5"/>
    </contour>
  </outline>
</glyph>
<glyph name="K" format="2">
  <advance width="500.0"/>
  <unicode hex="004B"/>
  <anchor x="216.4582" y="-1.0" name="bottom"/>
  <anchor x="344.5833" y="711.0" name="top"/>
  <outline>
    <contour>
      <point x="244.58335" y="368.0" type="curve"/>
      <point x="244.58335" y="368.0"/>
      <point x="207.91665" y="320.0"/>
      <point x="207.91665" y="320.0" type="curve"/>
      <point x="207.91665" y="320.0"/>
      <point x="225.41665" y="314.0"/>
      <point x="225.41665" y="314.0" type="curve"/>
      <point x="240.8333" y="220.0"/>
      <point x="271.25" y="124.0"/>
      <point x="309.58335" y="41.5" type="curve" smooth="yes"/>
      <point x="326.25" y="4.0"/>
      <point x="345.8333" y="-10.0"/>
      <point x="379.5833" y="-10.0" type="curve" smooth="yes"/>
      <point x="391.25" y="-10.0"/>
      <point x="398.75" y="-7.0"/>
      <point x="405.41665" y="-2.5" type="curve" smooth="yes"/>
      <point x="411.66665" y="1.5"/>
      <point x="415.0" y="6.0"/>
      <point x="417.0833" y="15.0" type="curve" smooth="yes"/>
      <point x="419.16665" y="24.5"/>
      <point x="421.25" y="38.5"/>
      <point x="422.08335" y="49.0" type="curve"/>
      <point x="422.08335" y="49.0"/>
      <point x="416.25" y="49.0"/>
      <point x="416.25" y="49.0" type="curve"/>
      <point x="408.33335" y="41.5"/>
      <point x="400.41665" y="39.0"/>
      <point x="384.58335" y="39.0" type="curve" smooth="yes"/>
      <point x="364.5833" y="39.0"/>
      <point x="352.91665" y="49.0"/>
      <point x="341.66665" y="74.0" type="curve" smooth="yes"/>
      <point x="304.16665" y="158.5"/>
      <point x="273.75" y="250.0"/>
    </contour>
    <contour>
      <point x="511.25" y="705.0" type="curve" smooth="yes"/>
      <point x="511.25" y="705.0"/>
      <point x="486.25" y="705.0"/>
      <point x="486.25" y="705.0" type="curve"/>
      <point x="440.0" y="619.5"/>
      <point x="379.16665" y="539.0"/>
      <point x="291.66665" y="442.0" type="curve" smooth="yes"/>
      <point x="237.5" y="383.0"/>
      <point x="185.0" y="333.5"/>
      <point x="127.08330000000001" y="280.5" type="curve"/>
      <point x="127.08330000000001" y="280.5"/>
      <point x="104.1667" y="287.0"/>
      <point x="104.1667" y="287.0" type="curve"/>
      <point x="104.1667" y="287.0"/>
      <point x="90.41665" y="207.5"/>
      <point x="90.41665" y="207.5" type="curve"/>
      <point x="246.25" y="323.5"/>
      <point x="388.75" y="474.5"/>
      <point x="476.66665" y="600.0" type="curve" smooth="yes"/>
      <point x="520.0" y="661.5"/>
      <point x="526.25" y="676.0"/>
      <point x="527.91665" y="684.5" type="curve" smooth="yes"/>
      <point x="529.5833" y="691.5"/>
      <point x="532.08335" y="705.0"/>
    </contour>
    <contour>
      <point x="168.75" y="700.5" type="curve"/>
      <point x="165.83335" y="666.5"/>
      <point x="160.0" y="631.5"/>
      <point x="152.5" y="595.5" type="curve" smooth="yes"/>
      <point x="116.66669999999999" y="414.0"/>
      <point x="63.3333" y="247.0"/>
      <point x="32.916650000000004" y="63.5" type="curve" smooth="yes"/>
      <point x="26.25" y="15.0"/>
      <point x="28.75" y="-2.5"/>
      <point x="45.0" y="-2.5" type="curve" smooth="yes"/>
      <point x="53.33335" y="-2.5"/>
      <point x="61.25" y="-1.5"/>
      <point x="69.1667" y="0.0" type="curve"/>
      <point x="93.75" y="235.0"/>
      <point x="163.33335" y="434.0"/>
      <point x="203.33335" y="644.5" type="curve" smooth="yes"/>
      <point x="211.25" y="691.0"/>
      <point x="207.0833" y="703.5"/>
      <point x="193.75" y="703.5" type="curve" smooth="yes"/>
      <point x="185.0" y="703.5"/>
      <point x="177.08335" y="702.5"/>
    </contour>
  </outline>
</glyph>
<glyph name="L" format="2">
  <advance width="500.0"/>
  <unicode hex="004C"/>
  <anchor x="190.3331" y="711.0" name="top"/>
  <anchor x="200.3125" y="-1.0" name="bottom"/>
  <anchor x="350.4283" y="400.0" name="dot"/>
  <anchor x="405.0" y="614.0" name="caronslovak"/>
  <anchor x="114.5833" y="340.0" name="slash"/>
  <outline>
    <contour>
      <point x="57.916650000000004" y="0.0" type="curve" smooth="yes"/>
      <point x="57.916650000000004" y="0.0"/>
      <point x="374.5833" y="0.0"/>
      <point x="374.5833" y="0.0" type="curve"/>
      <point x="382.07259999999997" y="19.811909397850002"/>
      <point x="377.9167" y="46.5"/>
      <point x="362.08335" y="46.5" type="curve" smooth="yes"/>
      <point x="362.08335" y="46.5"/>
      <point x="77.5" y="46.5"/>
      <point x="77.5" y="46.5" type="curve"/>
      <point x="102.91665" y="246.5"/>
      <point x="168.33335" y="447.0"/>
      <point x="206.25" y="646.5" type="curve" smooth="yes"/>
      <point x="214.16665" y="688.5"/>
      <point x="211.25" y="703.5"/>
      <point x="196.66665" y="703.5" type="curve" smooth="yes"/>
      <point x="187.9167" y="703.5"/>
      <point x="180.0" y="702.5"/>
      <point x="171.66665" y="700.5" type="curve"/>
      <point x="168.3333" y="666.5"/>
      <point x="162.5" y="632.0"/>
      <point x="155.83335" y="596.5" type="curve" smooth="yes"/>
      <point x="119.16665" y="414.5"/>
      <point x="66.25" y="246.5"/>
      <point x="35.833349999999996" y="64.0" type="curve" smooth="yes"/>
      <point x="30.83335" y="23.5"/>
      <point x="35.833349999999996" y="0.0"/>
    </contour>
  </outline>
</glyph>
<glyph name="M" format="2">
  <advance width="500.0"/>
  <unicode hex="004D"/>
  <anchor x="197.5" y="0.0" name="bottom"/>
  <anchor x="250.0" y="711.0" name="top"/>
  <outline>
    <contour>
      <point x="57.5" y="0.0" type="curve"/>
      <point x="64.58335" y="77.0"/>
      <point x="75.0" y="137.5"/>
      <point x="89.1667" y="208.0" type="curve"/>
      <point x="121.66665" y="370.5"/>
      <point x="160.0" y="477.5"/>
      <point x="182.5" y="642.0" type="curve"/>
      <point x="182.5" y="642.0"/>
      <point x="164.5833" y="614.0"/>
      <point x="164.5833" y="614.0" type="curve"/>
      <point x="164.5833" y="614.0"/>
      <point x="195.4167" y="615.5"/>
      <point x="195.4167" y="615.5" type="curve"/>
      <point x="195.4167" y="615.5"/>
      <point x="187.91665" y="643.0"/>
      <point x="187.91665" y="643.0" type="curve"/>
      <point x="180.0" y="436.5"/>
      <point x="194.5833" y="286.0"/>
      <point x="218.75" y="207.0" type="curve" smooth="yes"/>
      <point x="221.25" y="198.0"/>
      <point x="225.0" y="196.5"/>
      <point x="231.66665" y="196.5" type="curve" smooth="yes"/>
      <point x="237.91665" y="196.5"/>
      <point x="244.5833" y="196.5"/>
      <point x="250.8333" y="196.5" type="curve"/>
      <point x="325.41665" y="304.0"/>
      <point x="405.41665" y="453.5"/>
      <point x="477.91665" y="637.5" type="curve"/>
      <point x="477.91665" y="637.5"/>
      <point x="452.08335" y="615.5"/>
      <point x="452.08335" y="615.5" type="curve"/>
      <point x="452.08335" y="615.5"/>
      <point x="492.5" y="614.0"/>
      <point x="492.5" y="614.0" type="curve"/>
      <point x="492.5" y="614.0"/>
      <point x="481.25" y="630.5"/>
      <point x="481.25" y="630.5" type="curve"/>
      <point x="449.58335" y="486.5"/>
      <point x="418.75" y="391.5"/>
      <point x="387.5" y="250.5" type="curve"/>
      <point x="371.25" y="179.5"/>
      <point x="357.91665" y="112.5"/>
      <point x="348.3333" y="52.0" type="curve"/>
      <point x="344.58335" y="11.5"/>
      <point x="347.08335" y="-2.5"/>
      <point x="362.5" y="-2.5" type="curve"/>
      <point x="370.41665" y="-2.5"/>
      <point x="379.58335" y="-1.0"/>
      <point x="387.91665" y="0.0" type="curve"/>
      <point x="390.0" y="34.5"/>
      <point x="393.75" y="71.0"/>
      <point x="400.0" y="105.5" type="curve" smooth="yes"/>
      <point x="431.66665" y="281.5"/>
      <point x="497.08335" y="533.0"/>
      <point x="518.3333" y="633.0" type="curve"/>
      <point x="529.16665" y="684.5"/>
      <point x="526.25" y="703.5"/>
      <point x="500.4167" y="703.5" type="curve" smooth="yes"/>
      <point x="488.75" y="703.5"/>
      <point x="473.3333" y="701.5"/>
      <point x="460.0" y="700.0" type="curve"/>
      <point x="410.83335" y="555.5"/>
      <point x="320.0" y="374.5"/>
      <point x="233.33335" y="236.0" type="curve"/>
      <point x="233.33335" y="236.0"/>
      <point x="264.16665" y="261.5"/>
      <point x="264.16665" y="261.5" type="curve"/>
      <point x="264.16665" y="261.5"/>
      <point x="230.0" y="264.0"/>
      <point x="230.0" y="264.0" type="curve"/>
      <point x="230.0" y="264.0"/>
      <point x="249.16665" y="232.0"/>
      <point x="249.16665" y="232.0" type="curve"/>
      <point x="221.66665" y="372.0"/>
      <point x="218.75" y="511.5"/>
      <point x="223.3333" y="658.5" type="curve" smooth="yes"/>
      <point x="225.4167" y="691.5"/>
      <point x="219.16665" y="703.5"/>
      <point x="195.0" y="703.5" type="curve" smooth="yes"/>
      <point x="180.8333" y="703.5"/>
      <point x="167.5" y="702.0"/>
      <point x="155.83335" y="700.0" type="curve"/>
      <point x="152.0833" y="666.0"/>
      <point x="146.66665" y="631.0"/>
      <point x="139.58335" y="594.5" type="curve" smooth="yes"/>
      <point x="102.5" y="413.5"/>
      <point x="52.916650000000004" y="254.5"/>
      <point x="20.0" y="65.0" type="curve" smooth="yes"/>
      <point x="12.1706" y="13.814145877449999"/>
      <point x="17.9167" y="-2.5"/>
      <point x="32.5" y="-2.5" type="curve"/>
      <point x="41.25" y="-2.5"/>
      <point x="47.916650000000004" y="-1.5"/>
    </contour>
  </outline>
</glyph>
<glyph name="N" format="2">
  <advance width="500.0"/>
  <unicode hex="004E"/>
  <anchor x="343.1663" y="711.0" name="top"/>
  <anchor x="193.125" y="-1.0" name="bottom"/>
  <outline>
    <contour>
      <point x="63.333349999999996" y="0.0" type="curve"/>
      <point x="69.5833" y="57.5"/>
      <point x="77.08335" y="108.0"/>
      <point x="87.91665" y="170.5" type="curve"/>
      <point x="122.91665" y="376.5"/>
      <point x="166.6667" y="464.0"/>
      <point x="191.66665" y="662.5" type="curve"/>
      <point x="191.66665" y="662.5"/>
      <point x="179.16665" y="626.5"/>
      <point x="179.16665" y="626.5" type="curve"/>
      <point x="179.16665" y="626.5"/>
      <point x="209.58335" y="626.5"/>
      <point x="209.58335" y="626.5" type="curve"/>
      <point x="209.58335" y="626.5"/>
      <point x="191.25" y="662.5"/>
      <point x="191.25" y="662.5" type="curve"/>
      <point x="210.0" y="387.5"/>
      <point x="268.33335" y="167.5"/>
      <point x="317.5" y="22.0" type="curve" smooth="yes"/>
      <point x="326.25" y="2.5"/>
      <point x="333.3333" y="-2.5"/>
      <point x="348.75" y="-3.0" type="curve" smooth="yes"/>
      <point x="360.83335" y="-3.0"/>
      <point x="372.5" y="-2.0"/>
      <point x="383.33335" y="0.0" type="curve"/>
      <point x="387.91665" y="46.0"/>
      <point x="394.16665" y="92.0"/>
      <point x="402.9167" y="141.0" type="curve"/>
      <point x="434.16665" y="316.0"/>
      <point x="478.33335" y="458.0"/>
      <point x="514.16665" y="633.5" type="curve" smooth="yes"/>
      <point x="525.0" y="683.5"/>
      <point x="520.41665" y="702.5"/>
      <point x="506.25" y="702.5" type="curve"/>
      <point x="497.5" y="702.5"/>
      <point x="488.75" y="701.5"/>
      <point x="479.58335" y="700.0" type="curve"/>
      <point x="472.08335" y="642.0"/>
      <point x="462.9167" y="584.0"/>
      <point x="448.75" y="520.0" type="curve"/>
      <point x="408.3333" y="329.0"/>
      <point x="364.16665" y="199.0"/>
      <point x="351.25" y="37.0" type="curve"/>
      <point x="351.25" y="37.0"/>
      <point x="360.8333" y="66.5"/>
      <point x="360.8333" y="66.5" type="curve"/>
      <point x="360.8333" y="66.5"/>
      <point x="335.83335" y="66.5"/>
      <point x="335.83335" y="66.5" type="curve"/>
      <point x="335.83335" y="66.5"/>
      <point x="355.83335" y="42.0"/>
      <point x="355.83335" y="42.0" type="curve"/>
      <point x="288.33335" y="237.5"/>
      <point x="236.25" y="526.5"/>
      <point x="229.58335" y="656.5" type="curve"/>
      <point x="227.08335" y="692.5"/>
      <point x="221.66665" y="702.5"/>
      <point x="201.25" y="702.5" type="curve"/>
      <point x="188.03295" y="702.5"/>
      <point x="175.0" y="702.0"/>
      <point x="160.83335" y="700.0" type="curve"/>
      <point x="155.4167" y="659.0"/>
      <point x="149.16665" y="617.5"/>
      <point x="140.0" y="571.5" type="curve" smooth="yes"/>
      <point x="105.83335" y="400.0"/>
      <point x="56.25" y="245.5"/>
      <point x="25.8333" y="66.5" type="curve"/>
      <point x="18.33335" y="16.0"/>
      <point x="22.5" y="-2.5"/>
      <point x="37.5" y="-2.5" type="curve"/>
      <point x="47.0833" y="-2.5"/>
      <point x="55.0" y="-1.5"/>
    </contour>
  </outline>
</glyph>
<glyph name="O" format="2">
  <advance width="500.0"/>
  <unicode hex="004F"/>
  <anchor x="343.3333" y="711.0" name="top"/>
  <anchor x="194.7916" y="-1.0" name="bottom"/>
  <anchor x="451.6667" y="662.0" name="horn"/>
  <anchor x="348.3333" y="750.0" name="hook"/>
  <anchor x="305.8333" y="712.5" name="tildeviet"/>
  <anchor x="346.6667" y="36.5" name="ogonek"/>
  <outline>
    <contour>
      <point x="334.58335" y="720.0" type="curve"/>
      <point x="209.58335" y="720.0"/>
      <point x="128.3333" y="613.5"/>
      <point x="85.8333" y="410.0" type="curve" smooth="yes"/>
      <point x="85.8333" y="410.0"/>
      <point x="55.0" y="261.5"/>
      <point x="55.0" y="261.5" type="curve" smooth="yes"/>
      <point x="18.75" y="88.0"/>
      <point x="82.5" y="-20.0"/>
      <point x="206.66665" y="-20.0" type="curve" smooth="yes"/>
      <point x="327.08335" y="-20.0"/>
      <point x="407.0833" y="71.0"/>
      <point x="448.33335" y="269.5" type="curve" smooth="yes"/>
      <point x="448.33335" y="269.5"/>
      <point x="479.16665" y="417.5"/>
      <point x="479.16665" y="417.5" type="curve" smooth="yes"/>
      <point x="518.33335" y="603.5"/>
      <point x="458.33335" y="720.0"/>
    </contour>
    <contour>
      <point x="97.91665" y="265.0" type="curve" smooth="yes"/>
      <point x="97.91665" y="265.0"/>
      <point x="127.5" y="406.5"/>
      <point x="127.5" y="406.5" type="curve" smooth="yes"/>
      <point x="160.8333" y="567.5"/>
      <point x="221.66665" y="673.5"/>
      <point x="329.16665" y="673.5" type="curve" smooth="yes"/>
      <point x="365.41665" y="673.5"/>
      <point x="392.0833" y="664.0"/>
      <point x="411.6667" y="647.5" type="curve" smooth="yes"/>
      <point x="454.16665" y="604.0"/>
      <point x="457.5" y="517.0"/>
      <point x="435.41665" y="411.0" type="curve" smooth="yes"/>
      <point x="435.41665" y="411.0"/>
      <point x="405.8333" y="269.5"/>
      <point x="405.8333" y="269.5" type="curve" smooth="yes"/>
      <point x="375.0" y="121.5"/>
      <point x="318.75" y="26.5"/>
      <point x="209.58335" y="26.5" type="curve" smooth="yes"/>
      <point x="171.25" y="26.5"/>
      <point x="143.75" y="37.0"/>
      <point x="122.5" y="55.5" type="curve" smooth="yes"/>
      <point x="82.9167" y="98.0"/>
      <point x="78.75" y="172.5"/>
    </contour>
  </outline>
</glyph>
<glyph name="P" format="2">
  <advance width="500.0"/>
  <unicode hex="0050"/>
  <anchor x="250.0" y="711.0" name="top"/>
  <anchor x="250.0" y="0.0" name="bottom"/>
  <outline>
    <contour>
      <point x="79.16665" y="0.0" type="curve"/>
      <point x="80.4167" y="27.5"/>
      <point x="83.3333" y="61.5"/>
      <point x="88.3333" y="97.0" type="curve" smooth="yes"/>
      <point x="111.66665" y="255.5"/>
      <point x="162.08335" y="410.0"/>
      <point x="193.33335" y="566.0" type="curve" smooth="yes"/>
      <point x="201.6667" y="607.5"/>
      <point x="205.4167" y="639.5"/>
      <point x="205.4167" y="664.0" type="curve"/>
      <point x="205.4167" y="664.0"/>
      <point x="215.8333" y="685.0"/>
      <point x="215.8333" y="685.0" type="curve"/>
      <point x="215.8333" y="685.0"/>
      <point x="173.75" y="680.0"/>
      <point x="173.75" y="680.0" type="curve"/>
      <point x="137.5" y="460.5"/>
      <point x="66.25" y="248.5"/>
      <point x="37.5" y="46.5" type="curve"/>
      <point x="35.50395" y="14.814145877449999"/>
      <point x="37.916650000000004" y="-3.0"/>
      <point x="55.0" y="-3.0" type="curve" smooth="yes"/>
      <point x="63.333299999999994" y="-3.0"/>
      <point x="71.6667" y="-2.0"/>
    </contour>
    <contour>
      <point x="146.2132" y="700.0" type="curve"/>
      <point x="143.7353" y="691.5"/>
      <point x="141.8787" y="684.5"/>
      <point x="139.81740000000002" y="674.0" type="curve"/>
      <point x="137.6391" y="662.5"/>
      <point x="139.52515" y="653.5"/>
      <point x="145.77515" y="653.5" type="curve" smooth="yes"/>
      <point x="169.5833" y="653.5"/>
      <point x="238.75" y="664.0"/>
      <point x="324.58335" y="664.0" type="curve" smooth="yes"/>
      <point x="382.08335" y="664.0"/>
      <point x="415.4167" y="651.5"/>
      <point x="440.8333" y="623.5" type="curve" smooth="yes"/>
      <point x="457.91665" y="585.5"/>
      <point x="456.66665" y="542.0"/>
      <point x="448.33335" y="501.5" type="curve" smooth="yes"/>
      <point x="448.33335" y="501.5"/>
      <point x="439.16665" y="457.5"/>
      <point x="439.16665" y="457.5" type="curve" smooth="yes"/>
      <point x="415.0" y="340.5"/>
      <point x="339.16665" y="278.5"/>
      <point x="225.41665" y="278.5" type="curve" smooth="yes"/>
      <point x="180.0" y="278.5"/>
      <point x="145.8333" y="281.5"/>
      <point x="113.75" y="286.0" type="curve"/>
      <point x="113.75" y="286.0"/>
      <point x="103.33335" y="241.0"/>
      <point x="103.33335" y="241.0" type="curve"/>
      <point x="103.33335" y="241.0"/>
      <point x="115.83335" y="246.0"/>
      <point x="115.83335" y="246.0" type="curve"/>
      <point x="144.5833" y="238.5"/>
      <point x="180.0" y="233.0"/>
      <point x="225.0" y="233.0" type="curve" smooth="yes"/>
      <point x="352.5" y="233.0"/>
      <point x="450.41665" y="307.5"/>
      <point x="480.0" y="449.0" type="curve" smooth="yes"/>
      <point x="480.0" y="449.0"/>
      <point x="489.1667" y="492.5"/>
      <point x="489.1667" y="492.5" type="curve" smooth="yes"/>
      <point x="513.33335" y="606.5"/>
      <point x="474.58335" y="710.0"/>
      <point x="335.0" y="710.0" type="curve"/>
      <point x="271.25" y="710.0"/>
      <point x="201.6667" y="708.5"/>
    </contour>
  </outline>
</glyph>
<glyph name="Q" format="2">
  <advance width="500.0"/>
  <unicode hex="0051"/>
  <anchor x="250.0" y="711.0" name="top"/>
  <anchor x="250.0" y="0.0" name="bottom"/>
  <outline>
    <contour>
      <point x="215.86669999999998" y="217.10604999999998" type="curve"/>
      <point x="215.86669999999998" y="217.10604999999998"/>
      <point x="165.79989999999998" y="196.89395000000002"/>
      <point x="165.79989999999998" y="196.89395000000002" type="curve"/>
      <point x="204.0937" y="102.26645"/>
      <point x="243.5478" y="4.77145"/>
      <point x="286.66665" y="-90.0" type="curve" smooth="yes"/>
      <point x="303.75" y="-133.5"/>
      <point x="323.3333" y="-151.0"/>
      <point x="358.75" y="-151.0" type="curve" smooth="yes"/>
      <point x="369.16665" y="-151.0"/>
      <point x="378.33335" y="-148.5"/>
      <point x="385.41665" y="-143.5" type="curve" smooth="yes"/>
      <point x="392.08335" y="-139.0"/>
      <point x="396.25" y="-131.5"/>
      <point x="398.33335" y="-122.5" type="curve" smooth="yes"/>
      <point x="400.83335" y="-111.0"/>
      <point x="402.5" y="-99.5"/>
      <point x="403.75" y="-89.0" type="curve"/>
      <point x="403.75" y="-89.0"/>
      <point x="397.9167" y="-89.0"/>
      <point x="397.9167" y="-89.0" type="curve"/>
      <point x="389.7917" y="-94.5"/>
      <point x="378.3333" y="-98.0"/>
      <point x="363.33335" y="-98.0" type="curve" smooth="yes"/>
      <point x="346.25" y="-98.0"/>
      <point x="337.0833" y="-90.5"/>
      <point x="327.08335" y="-69.5" type="curve"/>
      <point x="293.6146" y="24.98355"/>
      <point x="254.1605" y="122.47855000000001"/>
    </contour>
    <component base="O"/>
  </outline>
</glyph>
<glyph name="T" format="2">
  <advance width="500.0"/>
  <unicode hex="0054"/>
  <anchor x="343.1663" y="711.0" name="top"/>
  <anchor x="197.9167" y="-0.5" name="bottom"/>
  <outline>
    <contour>
      <point x="137.91665" y="700.0" type="curve"/>
      <point x="135.41665" y="692.0"/>
      <point x="133.75" y="684.0"/>
      <point x="131.6667" y="675.0" type="curve"/>
      <point x="128.9927" y="663.8313520824499"/>
      <point x="132.9167" y="653.5"/>
      <point x="142.0833" y="653.5" type="curve" smooth="yes"/>
      <point x="142.0833" y="653.5"/>
      <point x="534.58335" y="653.5"/>
      <point x="534.58335" y="653.5" type="curve"/>
      <point x="536.6667" y="661.5"/>
      <point x="538.3333" y="669.0"/>
      <point x="540.41665" y="677.5" type="curve" smooth="yes"/>
      <point x="543.33335" y="692.0"/>
      <point x="539.58335" y="700.0"/>
      <point x="530.83335" y="700.0" type="curve" smooth="yes"/>
      <point x="530.83335" y="700.0"/>
      <point x="137.91665" y="700.0"/>
    </contour>
    <contour>
      <point x="223.3333" y="0.0" type="curve"/>
      <point x="224.58335" y="27.5"/>
      <point x="227.9167" y="61.5"/>
      <point x="233.75" y="97.0" type="curve"/>
      <point x="257.08335" y="245.0"/>
      <point x="302.9167" y="388.0"/>
      <point x="332.08335" y="533.5" type="curve"/>
      <point x="342.5" y="586.0"/>
      <point x="346.66665" y="623.5"/>
      <point x="350.41665" y="658.5" type="curve" smooth="yes"/>
      <point x="350.41665" y="658.5"/>
      <point x="361.25" y="679.5"/>
      <point x="361.25" y="679.5" type="curve"/>
      <point x="361.25" y="679.5"/>
      <point x="318.3333" y="674.5"/>
      <point x="318.3333" y="674.5" type="curve"/>
      <point x="282.5" y="455.0"/>
      <point x="213.75" y="248.5"/>
      <point x="182.5" y="46.5" type="curve"/>
      <point x="179.58335" y="13.5"/>
      <point x="182.08335" y="-3.0"/>
      <point x="198.75" y="-3.0" type="curve" smooth="yes"/>
      <point x="207.08335" y="-3.0"/>
      <point x="215.83335" y="-2.0"/>
    </contour>
  </outline>
</glyph>
<glyph name="U" format="2">
  <advance width="500.0"/>
  <unicode hex="0055"/>
  <anchor x="385.8333" y="0.0" name="ogonek"/>
  <anchor x="343.1663" y="711.0" name="top"/>
  <anchor x="184.4792" y="-1.0" name="bottom"/>
  <anchor x="339.5833" y="693.5" name="ring"/>
  <anchor x="502.0833" y="700.0" name="horn"/>
  <anchor x="344.1667" y="750.0" name="hook"/>
  <anchor x="305.8333" y="712.5" name="tildeviet"/>
  <outline>
    <contour>
      <point x="384.1667" y="0.0" type="curve"/>
      <point x="385.8333" y="34.0"/>
      <point x="390.0" y="69.5"/>
      <point x="395.83335" y="105.5" type="curve" smooth="yes"/>
      <point x="426.66665" y="286.5"/>
      <point x="476.25" y="446.5"/>
      <point x="514.16665" y="633.5" type="curve" smooth="yes"/>
      <point x="524.1667" y="683.5"/>
      <point x="519.16665" y="702.5"/>
      <point x="505.0" y="702.5" type="curve" smooth="yes"/>
      <point x="496.25" y="702.5"/>
      <point x="487.9167" y="701.5"/>
      <point x="480.0" y="700.0" type="curve"/>
      <point x="456.25" y="495.5"/>
      <point x="377.5" y="269.5"/>
      <point x="344.16665" y="52.0" type="curve" smooth="yes"/>
      <point x="340.0" y="12.5"/>
      <point x="345.41665" y="-3.0"/>
      <point x="359.58335" y="-3.0" type="curve" smooth="yes"/>
      <point x="368.33335" y="-3.0"/>
      <point x="376.25" y="-2.0"/>
    </contour>
    <contour>
      <point x="152.5" y="-20.0" type="curve" smooth="yes"/>
      <point x="227.5" y="-20.0"/>
      <point x="289.1667" y="24.5"/>
      <point x="347.5" y="113.0" type="curve"/>
      <point x="347.5" y="113.0"/>
      <point x="370.4167" y="109.5"/>
      <point x="370.4167" y="109.5" type="curve"/>
      <point x="370.4167" y="109.5"/>
      <point x="392.08335" y="217.5"/>
      <point x="392.08335" y="217.5" type="curve"/>
      <point x="287.5" y="66.0"/>
      <point x="230.4167" y="25.0"/>
      <point x="158.33335" y="25.0" type="curve" smooth="yes"/>
      <point x="100.83335" y="25.0"/>
      <point x="70.0" y="68.0"/>
      <point x="79.16665" y="144.5" type="curve" smooth="yes"/>
      <point x="117.5" y="317.5"/>
      <point x="162.5" y="466.0"/>
      <point x="194.58335" y="630.5" type="curve"/>
      <point x="204.5833" y="685.5"/>
      <point x="197.5" y="702.0"/>
      <point x="183.75" y="702.0" type="curve"/>
      <point x="175.0" y="702.0"/>
      <point x="167.0833" y="701.5"/>
      <point x="158.75" y="700.0" type="curve"/>
      <point x="155.41665" y="665.5"/>
      <point x="150.0" y="630.0"/>
      <point x="141.6667" y="586.5" type="curve" smooth="yes"/>
      <point x="113.33335" y="444.5"/>
      <point x="68.3333" y="298.0"/>
      <point x="41.6667" y="145.5" type="curve"/>
      <point x="26.6667" y="60.0"/>
      <point x="60.0" y="-20.0"/>
    </contour>
  </outline>
</glyph>
<glyph name="V" format="2">
  <advance width="500.0"/>
  <unicode hex="0056"/>
  <anchor x="250.0" y="711.0" name="top"/>
  <anchor x="250.0" y="0.0" name="bottom"/>
  <outline>
    <contour>
      <point x="159.58335" y="702.0" type="curve"/>
      <point x="150.0" y="702.0"/>
      <point x="141.25" y="701.5"/>
      <point x="132.5" y="700.0" type="curve"/>
      <point x="134.16665" y="658.5"/>
      <point x="134.16665" y="622.0"/>
      <point x="131.25" y="568.5" type="curve" smooth="yes"/>
      <point x="119.58330000000001" y="386.0"/>
      <point x="130.8333" y="134.0"/>
      <point x="155.0" y="30.0" type="curve" smooth="yes"/>
      <point x="164.16665" y="-2.5"/>
      <point x="170.0" y="-7.5"/>
      <point x="187.5" y="-7.5" type="curve"/>
      <point x="197.9167" y="-7.5"/>
      <point x="211.66665" y="-6.5"/>
      <point x="225.8333" y="-5.5" type="curve"/>
      <point x="358.33335" y="192.5"/>
      <point x="460.41665" y="408.0"/>
      <point x="533.75" y="661.5" type="curve"/>
      <point x="538.75" y="689.0"/>
      <point x="533.33335" y="701.5"/>
      <point x="521.25" y="701.5" type="curve"/>
      <point x="512.08335" y="701.5"/>
      <point x="503.75" y="701.0"/>
      <point x="495.0" y="700.0" type="curve"/>
      <point x="431.6667" y="440.0"/>
      <point x="318.75" y="212.5"/>
      <point x="199.58335" y="27.5" type="curve"/>
      <point x="199.58335" y="27.5"/>
      <point x="213.33335" y="38.0"/>
      <point x="213.33335" y="38.0" type="curve"/>
      <point x="213.33335" y="38.0"/>
      <point x="191.6667" y="38.0"/>
      <point x="191.6667" y="38.0" type="curve"/>
      <point x="191.6667" y="38.0"/>
      <point x="199.58335" y="28.0"/>
      <point x="199.58335" y="28.0" type="curve"/>
      <point x="165.41665" y="202.5"/>
      <point x="156.25" y="433.0"/>
      <point x="172.08335" y="652.0" type="curve"/>
      <point x="178.75" y="690.0"/>
      <point x="171.25" y="702.0"/>
    </contour>
  </outline>
</glyph>
<glyph name="W" format="2">
  <advance width="500.0"/>
  <unicode hex="0057"/>
  <anchor x="341.9162" y="711.0" name="top"/>
  <anchor x="250.0" y="0.0" name="bottom"/>
  <outline>
    <contour>
      <point x="115.83335" y="700.0" type="curve"/>
      <point x="115.83335" y="673.0"/>
      <point x="112.91665" y="646.5"/>
      <point x="106.66665" y="610.0" type="curve" smooth="yes"/>
      <point x="58.75" y="336.0"/>
      <point x="42.5" y="95.0"/>
      <point x="62.083349999999996" y="12.5" type="curve" smooth="yes"/>
      <point x="65.8333" y="-0.5"/>
      <point x="72.91665" y="-5.0"/>
      <point x="82.08335" y="-5.0" type="curve" smooth="yes"/>
      <point x="95.8333" y="-5.0"/>
      <point x="107.5" y="-4.5"/>
      <point x="120.83335" y="-2.5" type="curve"/>
      <point x="174.58335" y="111.5"/>
      <point x="227.91665" y="237.5"/>
      <point x="281.66665" y="426.0" type="curve"/>
      <point x="281.66665" y="426.0"/>
      <point x="262.91665" y="396.0"/>
      <point x="262.91665" y="396.0" type="curve"/>
      <point x="262.91665" y="396.0"/>
      <point x="294.16665" y="393.5"/>
      <point x="294.16665" y="393.5" type="curve"/>
      <point x="294.16665" y="393.5"/>
      <point x="284.16665" y="428.0"/>
      <point x="284.16665" y="428.0" type="curve"/>
      <point x="262.37725" y="231.67028385315"/>
      <point x="258.3333" y="73.0"/>
      <point x="265.0" y="15.0" type="curve" smooth="yes"/>
      <point x="267.5" y="1.5"/>
      <point x="272.5" y="-5.0"/>
      <point x="284.16665" y="-5.0" type="curve" smooth="yes"/>
      <point x="298.33335" y="-5.0"/>
      <point x="311.25" y="-4.0"/>
      <point x="324.16665" y="-2.5" type="curve"/>
      <point x="419.58335" y="181.5"/>
      <point x="476.66665" y="344.5"/>
      <point x="554.1667" y="667.5" type="curve" smooth="yes"/>
      <point x="559.194" y="691.14209563855"/>
      <point x="554.0476" y="703.0"/>
      <point x="540.83335" y="703.0" type="curve" smooth="yes"/>
      <point x="531.25" y="703.0"/>
      <point x="525.9756" y="701.81183238125"/>
      <point x="516.6667" y="700.0" type="curve"/>
      <point x="455.83335" y="414.5"/>
      <point x="382.5" y="206.0"/>
      <point x="300.41665" y="33.5" type="curve"/>
      <point x="300.41665" y="33.5"/>
      <point x="323.33335" y="57.5"/>
      <point x="323.33335" y="57.5" type="curve"/>
      <point x="323.33335" y="57.5"/>
      <point x="287.91665" y="61.5"/>
      <point x="287.91665" y="61.5" type="curve"/>
      <point x="287.91665" y="61.5"/>
      <point x="305.41665" y="32.0"/>
      <point x="305.41665" y="32.0" type="curve"/>
      <point x="292.5" y="184.5"/>
      <point x="311.6667" y="376.0"/>
      <point x="338.33335" y="566.5" type="curve" smooth="yes"/>
      <point x="342.91665" y="591.0"/>
      <point x="333.75" y="600.5"/>
      <point x="320.83335" y="600.5" type="curve" smooth="yes"/>
      <point x="320.83335" y="600.5"/>
      <point x="294.58335" y="600.5"/>
      <point x="294.58335" y="600.5" type="curve"/>
      <point x="236.25" y="384.0"/>
      <point x="185.4167" y="213.5"/>
      <point x="91.25" y="28.0" type="curve"/>
      <point x="91.25" y="28.0"/>
      <point x="123.75" y="57.0"/>
      <point x="123.75" y="57.0" type="curve"/>
      <point x="123.75" y="57.0"/>
      <point x="83.75" y="61.0"/>
      <point x="83.75" y="61.0" type="curve"/>
      <point x="83.75" y="61.0"/>
      <point x="100.0" y="32.0"/>
      <point x="100.0" y="32.0" type="curve"/>
      <point x="88.75" y="194.5"/>
      <point x="113.33330000000001" y="453.5"/>
      <point x="152.5" y="647.0" type="curve" smooth="yes"/>
      <point x="159.25805" y="681.40938448905"/>
      <point x="157.08335" y="702.5"/>
      <point x="141.25" y="702.5" type="curve" smooth="yes"/>
      <point x="130.41665" y="702.5"/>
      <point x="125.51105000000001" y="701.35498965155"/>
    </contour>
  </outline>
</glyph>
<glyph name="X" format="2">
  <advance width="500.0"/>
  <unicode hex="0058"/>
  <anchor x="250.0" y="711.0" name="top"/>
  <anchor x="250.0" y="0.0" name="bottom"/>
  <outline>
    <contour>
      <point x="384.16665" y="-3.0" type="curve" smooth="yes"/>
      <point x="395.41665" y="-3.0"/>
      <point x="406.66665" y="-2.0"/>
      <point x="417.5" y="0.0" type="curve"/>
      <point x="369.16665" y="97.5"/>
      <point x="318.75" y="212.0"/>
      <point x="278.33335" y="331.0" type="curve"/>
      <point x="278.33335" y="331.0"/>
      <point x="264.16665" y="354.0"/>
      <point x="264.16665" y="354.0" type="curve"/>
      <point x="225.41665" y="468.0"/>
      <point x="199.16665" y="589.5"/>
      <point x="177.5" y="677.0" type="curve" smooth="yes"/>
      <point x="174.58335" y="694.5"/>
      <point x="166.66665" y="701.5"/>
      <point x="154.16665" y="701.5" type="curve" smooth="yes"/>
      <point x="144.16665" y="701.5"/>
      <point x="136.25" y="701.0"/>
      <point x="126.66665" y="700.0" type="curve"/>
      <point x="153.75" y="581.0"/>
      <point x="187.5" y="444.0"/>
      <point x="227.91665" y="322.0" type="curve"/>
      <point x="227.91665" y="322.0"/>
      <point x="239.58335" y="304.0"/>
      <point x="239.58335" y="304.0" type="curve"/>
      <point x="277.5" y="196.0"/>
      <point x="325.4167" y="91.5"/>
      <point x="362.5" y="11.0" type="curve"/>
      <point x="367.91665" y="1.5"/>
      <point x="371.25" y="-3.0"/>
    </contour>
    <contour>
      <point x="540.0" y="702.0" type="curve"/>
      <point x="528.75" y="702.0"/>
      <point x="519.5833" y="701.5"/>
      <point x="509.5833" y="700.0" type="curve"/>
      <point x="434.58335" y="580.0"/>
      <point x="353.3333" y="473.0"/>
      <point x="268.3333" y="363.0" type="curve"/>
      <point x="268.3333" y="363.0"/>
      <point x="247.08335" y="365.5"/>
      <point x="247.08335" y="365.5" type="curve"/>
      <point x="247.08335" y="365.5"/>
      <point x="272.9167" y="311.5"/>
      <point x="272.9167" y="311.5" type="curve"/>
      <point x="378.3333" y="434.0"/>
      <point x="463.75" y="543.0"/>
      <point x="545.0" y="666.0" type="curve"/>
      <point x="558.75" y="688.5"/>
      <point x="555.8333" y="702.0"/>
    </contour>
    <contour>
      <point x="-7.5" y="-2.0" type="curve" smooth="yes"/>
      <point x="2.9166499999999997" y="-2.0"/>
      <point x="12.916699999999999" y="-1.0"/>
      <point x="22.5" y="0.0" type="curve"/>
      <point x="90.41665" y="103.5"/>
      <point x="167.91665" y="203.0"/>
      <point x="237.08335" y="290.0" type="curve"/>
      <point x="237.08335" y="290.0"/>
      <point x="261.66665" y="287.0"/>
      <point x="261.66665" y="287.0" type="curve"/>
      <point x="261.66665" y="287.0"/>
      <point x="230.41665" y="343.0"/>
      <point x="230.41665" y="343.0" type="curve"/>
      <point x="138.75" y="238.0"/>
      <point x="56.666700000000006" y="132.0"/>
      <point x="-15.41665" y="28.5" type="curve"/>
      <point x="-29.234250000000003" y="7.4188611699"/>
      <point x="-21.66665" y="-2.0"/>
    </contour>
  </outline>
</glyph>
<glyph name="Y" format="2">
  <advance width="500.0"/>
  <unicode hex="0059"/>
  <anchor x="343.1663" y="711.0" name="top"/>
  <anchor x="348.3333" y="750.0" name="hook"/>
  <anchor x="194.7916" y="-1.0" name="bottom"/>
  <anchor x="169.1667" y="-141.5" name="dot"/>
  <outline>
    <contour>
      <point x="222.0833" y="0.0" type="curve"/>
      <point x="222.5" y="32.5"/>
      <point x="227.08335" y="66.0"/>
      <point x="234.1667" y="102.5" type="curve"/>
      <point x="246.25" y="164.0"/>
      <point x="258.75" y="222.0"/>
      <point x="272.91665" y="283.5" type="curve" smooth="yes"/>
      <point x="272.91665" y="283.5"/>
      <point x="232.5" y="284.0"/>
      <point x="232.5" y="284.0" type="curve"/>
      <point x="212.9167" y="200.0"/>
      <point x="195.41665" y="116.0"/>
      <point x="180.0" y="31.0" type="curve"/>
      <point x="176.66665" y="10.5"/>
      <point x="182.0833" y="-2.5"/>
      <point x="197.91665" y="-2.5" type="curve" smooth="yes"/>
      <point x="206.25" y="-2.5"/>
      <point x="213.75" y="-1.5"/>
    </contour>
    <contour>
      <point x="126.25" y="700.0" type="curve"/>
      <point x="136.25" y="499.0"/>
      <point x="171.25" y="385.5"/>
      <point x="229.58335" y="252.0" type="curve"/>
      <point x="231.6667" y="249.0"/>
      <point x="237.5" y="248.0"/>
      <point x="257.91665" y="245.5" type="curve"/>
      <point x="375.41665" y="380.5"/>
      <point x="467.5" y="504.5"/>
      <point x="550.0" y="682.5" type="curve"/>
      <point x="554.58335" y="694.0"/>
      <point x="550.41665" y="702.5"/>
      <point x="541.66665" y="702.5" type="curve"/>
      <point x="530.0" y="702.5"/>
      <point x="520.0" y="701.5"/>
      <point x="510.4167" y="700.0" type="curve"/>
      <point x="434.16665" y="536.5"/>
      <point x="360.0" y="422.5"/>
      <point x="242.0833" y="277.5" type="curve"/>
      <point x="242.0833" y="277.5"/>
      <point x="275.0" y="298.5"/>
      <point x="275.0" y="298.5" type="curve"/>
      <point x="275.0" y="298.5"/>
      <point x="236.25" y="300.5"/>
      <point x="236.25" y="300.5" type="curve"/>
      <point x="236.25" y="300.5"/>
      <point x="258.33335" y="276.5"/>
      <point x="258.33335" y="276.5" type="curve"/>
      <point x="198.75" y="420.5"/>
      <point x="178.3333" y="520.5"/>
      <point x="168.75" y="688.0" type="curve"/>
      <point x="168.33335" y="697.5"/>
      <point x="162.91665" y="702.5"/>
      <point x="153.75" y="702.5" type="curve" smooth="yes"/>
      <point x="143.33335" y="702.5"/>
      <point x="134.5833" y="701.5"/>
    </contour>
  </outline>
</glyph>
<glyph name="Z" format="2">
  <advance width="500.0"/>
  <unicode hex="005A"/>
  <anchor x="343.3333" y="711.0" name="top"/>
  <anchor x="202.9167" y="0.0" name="bottom"/>
  <outline>
    <contour>
      <point x="397.5" y="0.0" type="curve"/>
      <point x="399.16665" y="7.5"/>
      <point x="400.4167" y="13.5"/>
      <point x="402.5" y="22.0" type="curve"/>
      <point x="405.4167" y="36.0"/>
      <point x="402.5" y="46.5"/>
      <point x="387.08335" y="46.5" type="curve" smooth="yes"/>
      <point x="387.08335" y="46.5"/>
      <point x="233.33335" y="46.5"/>
      <point x="233.33335" y="46.5" type="curve"/>
      <point x="183.75" y="46.5"/>
      <point x="134.58335" y="46.5"/>
      <point x="42.083349999999996" y="42.0" type="curve"/>
      <point x="42.083349999999996" y="42.0"/>
      <point x="67.5" y="18.5"/>
      <point x="67.5" y="18.5" type="curve"/>
      <point x="67.5" y="18.5"/>
      <point x="61.666700000000006" y="71.5"/>
      <point x="61.666700000000006" y="71.5" type="curve"/>
      <point x="61.666700000000006" y="71.5"/>
      <point x="45.416650000000004" y="35.0"/>
      <point x="45.416650000000004" y="35.0" type="curve"/>
      <point x="172.91665" y="154.0"/>
      <point x="232.5" y="221.5"/>
      <point x="336.25" y="357.5" type="curve" smooth="yes"/>
      <point x="451.66665" y="508.5"/>
      <point x="508.75" y="603.0"/>
      <point x="532.5" y="648.5" type="curve"/>
      <point x="532.5" y="648.5"/>
      <point x="537.91665" y="672.5"/>
      <point x="537.91665" y="672.5" type="curve" smooth="yes"/>
      <point x="540.4167" y="685.0"/>
      <point x="533.75" y="700.0"/>
      <point x="504.58335" y="700.0" type="curve" smooth="yes"/>
      <point x="504.58335" y="700.0"/>
      <point x="173.33335" y="700.0"/>
      <point x="173.33335" y="700.0" type="curve"/>
      <point x="167.9167" y="678.0"/>
      <point x="170.83335" y="653.5"/>
      <point x="188.3333" y="653.5" type="curve" smooth="yes"/>
      <point x="188.3333" y="653.5"/>
      <point x="327.91665" y="653.5"/>
      <point x="327.91665" y="653.5" type="curve"/>
      <point x="383.33335" y="653.5"/>
      <point x="433.75" y="654.5"/>
      <point x="507.9167" y="657.5" type="curve"/>
      <point x="507.9167" y="657.5"/>
      <point x="481.66665" y="657.5"/>
      <point x="481.66665" y="657.5" type="curve"/>
      <point x="481.66665" y="657.5"/>
      <point x="492.5" y="633.0"/>
      <point x="492.5" y="633.0" type="curve"/>
      <point x="492.5" y="633.0"/>
      <point x="505.8333" y="633.0"/>
      <point x="505.8333" y="633.0" type="curve"/>
      <point x="438.75" y="574.5"/>
      <point x="406.25" y="520.5"/>
      <point x="318.75" y="406.5" type="curve" smooth="yes"/>
      <point x="210.0" y="265.0"/>
      <point x="110.41669999999999" y="154.5"/>
      <point x="5.416650000000001" y="50.5" type="curve"/>
      <point x="5.416650000000001" y="50.5"/>
      <point x="0.41664999999999974" y="24.5"/>
      <point x="0.41664999999999974" y="24.5" type="curve" smooth="yes"/>
      <point x="-1.66665" y="10.5"/>
      <point x="4.1667" y="0.0"/>
      <point x="18.33335" y="0.0" type="curve" smooth="yes"/>
      <point x="18.33335" y="0.0"/>
      <point x="397.5" y="0.0"/>
    </contour>
  </outline>
</glyph>
<glyph name="bracketleft" format="2">
  <advance width="500.0"/>
  <unicode hex="005B"/>
  <outline>
    <contour>
      <point x="297.91665" y="-161.0" type="curve"/>
      <point x="300.0" y="-152.5"/>
      <point x="302.0833" y="-145.5"/>
      <point x="304.16665" y="-135.0" type="curve" smooth="yes"/>
      <point x="307.5" y="-120.5"/>
      <point x="304.16665" y="-113.0"/>
      <point x="295.0" y="-113.0" type="curve" smooth="yes"/>
      <point x="295.0" y="-113.0"/>
      <point x="94.16665" y="-113.0"/>
      <point x="94.16665" y="-113.0" type="curve"/>
      <point x="131.25" y="155.5"/>
      <point x="219.16665" y="429.5"/>
      <point x="262.08335" y="712.0" type="curve"/>
      <point x="262.08335" y="712.0"/>
      <point x="479.58335" y="712.0"/>
      <point x="479.58335" y="712.0" type="curve"/>
      <point x="482.5" y="722.5"/>
      <point x="485.0" y="730.5"/>
      <point x="486.66665" y="739.5" type="curve" smooth="yes"/>
      <point x="488.75" y="748.5"/>
      <point x="487.08335" y="760.0"/>
      <point x="477.0833" y="760.0" type="curve" smooth="yes"/>
      <point x="477.0833" y="760.0"/>
      <point x="255.0" y="760.0"/>
      <point x="255.0" y="760.0" type="curve" smooth="yes"/>
      <point x="243.3333" y="760.0"/>
      <point x="233.3333" y="759.5"/>
      <point x="225.41665" y="758.0" type="curve"/>
      <point x="222.5" y="728.0"/>
      <point x="219.58335" y="701.0"/>
      <point x="213.33335" y="664.5" type="curve" smooth="yes"/>
      <point x="165.83335" y="395.0"/>
      <point x="88.3333" y="144.0"/>
      <point x="45.8333" y="-136.5" type="curve" smooth="yes"/>
      <point x="44.583349999999996" y="-149.5"/>
      <point x="48.75" y="-161.0"/>
      <point x="58.333299999999994" y="-161.0" type="curve" smooth="yes"/>
      <point x="58.333299999999994" y="-161.0"/>
      <point x="297.91665" y="-161.0"/>
    </contour>
  </outline>
</glyph>
<glyph name="backslash" format="2">
  <advance width="500.0"/>
  <unicode hex="005C"/>
  <outline>
    <contour>
      <point x="180.64679999999998" y="751.0" type="curve"/>
      <point x="196.78425" y="429.0"/>
      <point x="231.0466" y="124.5"/>
      <point x="285.93405" y="-102.5" type="curve" smooth="yes"/>
      <point x="294.6838" y="-125.5"/>
      <point x="306.4546" y="-133.5"/>
      <point x="322.28790000000004" y="-133.5" type="curve" smooth="yes"/>
      <point x="334.37120000000004" y="-133.5"/>
      <point x="341.03790000000004" y="-132.5"/>
      <point x="352.70455000000004" y="-130.5" type="curve"/>
      <point x="336.4556" y="-102.0"/>
      <point x="323.64419999999996" y="-66.5"/>
      <point x="310.72855000000004" y="-13.0" type="curve"/>
      <point x="270.11095" y="193.5"/>
      <point x="241.78505" y="438.0"/>
      <point x="226.58405" y="733.0" type="curve"/>
      <point x="226.2717" y="748.0"/>
      <point x="220.64679999999998" y="753.0"/>
      <point x="211.89679999999998" y="753.0" type="curve" smooth="yes"/>
      <point x="200.2301" y="753.0"/>
      <point x="191.89675" y="752.0"/>
    </contour>
  </outline>
</glyph>
<glyph name="underscore" format="2">
  <advance width="500.0"/>
  <unicode hex="005F"/>
  <outline>
    <contour>
      <point x="-18.3333" y="-100.0" type="curve"/>
      <point x="-20.8333" y="-110.0"/>
      <point x="-23.33335" y="-119.0"/>
      <point x="-25.4167" y="-128.5" type="curve" smooth="yes"/>
      <point x="-28.75" y="-142.0"/>
      <point x="-25.8333" y="-150.0"/>
      <point x="-15.416699999999999" y="-150.0" type="curve" smooth="yes"/>
      <point x="-15.416699999999999" y="-150.0"/>
      <point x="356.66665" y="-150.0"/>
      <point x="356.66665" y="-150.0" type="curve"/>
      <point x="358.33335" y="-142.0"/>
      <point x="360.41665" y="-133.5"/>
      <point x="362.0833" y="-125.5" type="curve" smooth="yes"/>
      <point x="366.25" y="-109.5"/>
      <point x="362.91665" y="-100.0"/>
      <point x="352.91665" y="-100.0" type="curve" smooth="yes"/>
      <point x="352.91665" y="-100.0"/>
      <point x="-18.3333" y="-100.0"/>
    </contour>
  </outline>
</glyph>
<glyph name="grave" format="2">
  <advance width="500.0"/>
  <unicode hex="0060"/>
  <outline>
    <contour>
      <point x="305.83335" y="726.0" type="curve"/>
      <point x="294.58335" y="729.0"/>
      <point x="283.33335" y="730.0"/>
      <point x="262.5" y="730.0" type="curve" smooth="yes"/>
      <point x="247.5" y="730.0"/>
      <point x="236.66665" y="723.5"/>
      <point x="236.6667" y="706.0" type="curve" smooth="yes"/>
      <point x="242.9167" y="621.0"/>
      <point x="260.0" y="518.0"/>
      <point x="280.83335" y="443.5" type="curve" smooth="yes"/>
      <point x="284.1667" y="434.5"/>
      <point x="290.83335" y="428.5"/>
      <point x="297.5" y="428.5" type="curve" smooth="yes"/>
      <point x="312.08335" y="428.5"/>
      <point x="320.83335" y="430.0"/>
      <point x="332.08335" y="434.0" type="curve"/>
      <point x="313.75" y="531.5"/>
      <point x="307.0833" y="621.0"/>
    </contour>
  </outline>
</glyph>
<glyph name="a" format="2">
  <advance width="500.0"/>
  <unicode hex="0061"/>
  <anchor x="291.25" y="537.0" name="top"/>
  <anchor x="202.0833" y="-1.0" name="bottom"/>
  <anchor x="402.9167" y="4.0" name="ogonek"/>
  <anchor x="295.4167" y="584.0" name="hook"/>
  <outline>
    <contour>
      <point x="422.5" y="344.0" type="curve" smooth="yes"/>
      <point x="444.5833" y="462.0"/>
      <point x="396.25" y="536.0"/>
      <point x="282.91665" y="536.0" type="curve" smooth="yes"/>
      <point x="219.16665" y="536.0"/>
      <point x="167.08335" y="519.0"/>
      <point x="152.91665" y="504.0" type="curve"/>
      <point x="147.5" y="499.0"/>
      <point x="144.58335" y="492.5"/>
      <point x="142.91665" y="484.0" type="curve" smooth="yes"/>
      <point x="140.8333" y="473.5"/>
      <point x="139.16665" y="465.5"/>
      <point x="137.91665" y="455.0" type="curve"/>
      <point x="137.91665" y="455.0"/>
      <point x="145.41665" y="455.0"/>
      <point x="145.41665" y="455.0" type="curve"/>
      <point x="182.9167" y="475.0"/>
      <point x="222.0833" y="488.0"/>
      <point x="277.5" y="488.0" type="curve" smooth="yes"/>
      <point x="352.08335" y="488.0"/>
      <point x="380.4167" y="458.5"/>
      <point x="380.0" y="395.5" type="curve" smooth="yes"/>
      <point x="382.0833" y="346.0"/>
      <point x="377.5" y="317.5"/>
      <point x="362.0833" y="254.0" type="curve" smooth="yes"/>
      <point x="352.91665" y="211.0"/>
      <point x="336.66665" y="154.5"/>
      <point x="325.4167" y="103.0" type="curve" smooth="yes"/>
      <point x="310.41665" y="32.0"/>
      <point x="335.41665" y="-5.0"/>
      <point x="378.3333" y="-5.0" type="curve"/>
      <point x="387.91665" y="-5.0"/>
      <point x="394.16665" y="-2.5"/>
      <point x="400.8333" y="2.0" type="curve" smooth="yes"/>
      <point x="407.0833" y="6.5"/>
      <point x="411.25" y="14.5"/>
      <point x="413.33335" y="25.5" type="curve"/>
      <point x="415.0" y="34.5"/>
      <point x="415.8333" y="40.5"/>
      <point x="417.0833" y="48.0" type="curve"/>
      <point x="417.0833" y="48.0"/>
      <point x="409.5833" y="48.0"/>
      <point x="409.5833" y="48.0" type="curve"/>
      <point x="403.3333" y="44.5"/>
      <point x="395.41665" y="41.0"/>
      <point x="387.0833" y="41.0" type="curve"/>
      <point x="378.75" y="41.0"/>
      <point x="371.66665" y="42.5"/>
      <point x="365.83335" y="47.5" type="curve" smooth="yes"/>
      <point x="361.6667" y="63.0"/>
      <point x="362.5" y="80.5"/>
      <point x="367.91665" y="108.0" type="curve" smooth="yes"/>
      <point x="385.0" y="187.0"/>
      <point x="400.83335" y="227.5"/>
    </contour>
    <contour>
      <point x="87.91665" y="137.0" type="curve" smooth="yes"/>
      <point x="87.91665" y="137.0"/>
      <point x="92.91665" y="160.0"/>
      <point x="92.91665" y="160.0" type="curve" smooth="yes"/>
      <point x="97.5" y="183.0"/>
      <point x="105.0" y="203.0"/>
      <point x="115.0" y="217.0" type="curve" smooth="yes"/>
      <point x="138.3333" y="239.5"/>
      <point x="172.08335" y="250.0"/>
      <point x="224.1667" y="250.0" type="curve" smooth="yes"/>
      <point x="290.8333" y="250.0"/>
      <point x="323.75" y="247.5"/>
      <point x="372.9167" y="241.0" type="curve"/>
      <point x="382.5" y="267.5"/>
      <point x="382.5" y="277.5"/>
      <point x="374.5833" y="281.0" type="curve" smooth="yes"/>
      <point x="343.3333" y="286.0"/>
      <point x="280.41665" y="296.0"/>
      <point x="230.0" y="296.0" type="curve" smooth="yes"/>
      <point x="128.75" y="296.0"/>
      <point x="72.9167" y="258.5"/>
      <point x="52.0833" y="162.5" type="curve" smooth="yes"/>
      <point x="52.0833" y="162.5"/>
      <point x="46.25" y="136.5"/>
      <point x="46.25" y="136.5" type="curve" smooth="yes"/>
      <point x="27.5" y="52.0"/>
      <point x="64.58335" y="-10.0"/>
      <point x="142.0833" y="-10.0" type="curve" smooth="yes"/>
      <point x="213.75" y="-10.0"/>
      <point x="275.83335" y="31.0"/>
      <point x="315.8333" y="85.5" type="curve"/>
      <point x="315.8333" y="85.5"/>
      <point x="335.0" y="82.0"/>
      <point x="335.0" y="82.0" type="curve"/>
      <point x="335.0" y="82.0"/>
      <point x="355.0" y="173.5"/>
      <point x="355.0" y="173.5" type="curve"/>
      <point x="275.83335" y="75.5"/>
      <point x="209.58335" y="38.0"/>
      <point x="152.5" y="38.0" type="curve" smooth="yes"/>
      <point x="95.4167" y="38.0"/>
      <point x="74.58335" y="71.0"/>
    </contour>
  </outline>
</glyph>
<glyph name="b" format="2">
  <advance width="500.0"/>
  <unicode hex="0062"/>
  <anchor x="250.0" y="730.0" name="top"/>
  <anchor x="250.0" y="-1.0" name="bottom"/>
  <outline>
    <contour>
      <point x="94.5833" y="46.0" type="curve"/>
      <point x="102.5" y="215.5"/>
      <point x="189.1667" y="490.5"/>
      <point x="225.41665" y="703.5" type="curve"/>
      <point x="230.0" y="737.0"/>
      <point x="223.3333" y="753.0"/>
      <point x="210.41665" y="753.0" type="curve" smooth="yes"/>
      <point x="200.83335" y="753.0"/>
      <point x="192.5" y="752.5"/>
      <point x="182.91665" y="750.0" type="curve"/>
      <point x="183.33335" y="722.5"/>
      <point x="178.75" y="694.0"/>
      <point x="172.5" y="654.0" type="curve" smooth="yes"/>
      <point x="137.08335" y="438.5"/>
      <point x="83.33335" y="265.0"/>
      <point x="55.833349999999996" y="95.5" type="curve" smooth="yes"/>
      <point x="52.916650000000004" y="64.5"/>
      <point x="56.66665" y="43.5"/>
      <point x="70.0" y="27.5" type="curve" smooth="yes"/>
      <point x="86.25" y="8.0"/>
      <point x="123.75" y="-9.0"/>
      <point x="186.66665" y="-9.0" type="curve" smooth="yes"/>
      <point x="302.0833" y="-9.0"/>
      <point x="394.5833" y="61.0"/>
      <point x="440.0" y="276.0" type="curve" smooth="yes"/>
      <point x="440.0" y="276.0"/>
      <point x="450.0" y="323.0"/>
      <point x="450.0" y="323.0" type="curve" smooth="yes"/>
      <point x="476.6667" y="451.5"/>
      <point x="439.1667" y="536.0"/>
      <point x="341.66665" y="536.0" type="curve" smooth="yes"/>
      <point x="276.25" y="536.0"/>
      <point x="217.08335" y="484.5"/>
      <point x="170.41665" y="407.5" type="curve"/>
      <point x="170.41665" y="407.5"/>
      <point x="152.91665" y="412.5"/>
      <point x="152.91665" y="412.5" type="curve"/>
      <point x="152.91665" y="412.5"/>
      <point x="120.41669999999999" y="271.5"/>
      <point x="120.41669999999999" y="271.5" type="curve"/>
      <point x="213.75" y="438.0"/>
      <point x="277.08335" y="489.5"/>
      <point x="339.5833" y="489.5" type="curve" smooth="yes"/>
      <point x="371.6667" y="489.5"/>
      <point x="394.16665" y="477.5"/>
      <point x="407.08335" y="451.0" type="curve" smooth="yes"/>
      <point x="418.75" y="417.0"/>
      <point x="420.0" y="376.5"/>
      <point x="408.33335" y="321.5" type="curve" smooth="yes"/>
      <point x="408.33335" y="321.5"/>
      <point x="399.1667" y="278.0"/>
      <point x="399.1667" y="278.0" type="curve" smooth="yes"/>
      <point x="360.0" y="91.5"/>
      <point x="284.1667" y="37.5"/>
      <point x="185.41665" y="37.5" type="curve" smooth="yes"/>
      <point x="136.25" y="37.5"/>
      <point x="107.91665" y="46.0"/>
      <point x="83.33335" y="75.0" type="curve"/>
      <point x="83.33335" y="75.0"/>
      <point x="94.5833" y="46.0"/>
    </contour>
  </outline>
</glyph>
<glyph name="d" format="2">
  <advance width="500.0"/>
  <unicode hex="0064"/>
  <anchor x="560.1239" y="711.0" name="caronslovak"/>
  <anchor x="181.25" y="0.0" name="bottom"/>
  <anchor x="250.0" y="730.0" name="top"/>
  <outline>
    <contour>
      <point x="270.83335" y="536.0" type="curve" smooth="yes"/>
      <point x="177.91665" y="536.0"/>
      <point x="105.4167" y="476.0"/>
      <point x="67.08335" y="288.5" type="curve" smooth="yes"/>
      <point x="67.08335" y="288.5"/>
      <point x="52.5" y="216.5"/>
      <point x="52.5" y="216.5" type="curve" smooth="yes"/>
      <point x="25.4167" y="89.0"/>
      <point x="63.75" y="-10.0"/>
      <point x="158.75" y="-10.0" type="curve" smooth="yes"/>
      <point x="220.41665" y="-10.0"/>
      <point x="271.25" y="36.0"/>
      <point x="317.0833" y="117.5" type="curve"/>
      <point x="317.0833" y="117.5"/>
      <point x="336.66665" y="117.5"/>
      <point x="336.66665" y="117.5" type="curve"/>
      <point x="336.66665" y="117.5"/>
      <point x="358.33335" y="238.0"/>
      <point x="358.33335" y="238.0" type="curve"/>
      <point x="272.5" y="82.0"/>
      <point x="221.25" y="36.5"/>
      <point x="160.83335" y="36.5" type="curve" smooth="yes"/>
      <point x="130.83335" y="36.5"/>
      <point x="108.75" y="51.5"/>
      <point x="94.58335" y="77.5" type="curve" smooth="yes"/>
      <point x="82.08335" y="115.5"/>
      <point x="82.91665" y="165.5"/>
      <point x="94.16665" y="218.5" type="curve" smooth="yes"/>
      <point x="94.16665" y="218.5"/>
      <point x="108.75" y="287.5"/>
      <point x="108.75" y="287.5" type="curve" smooth="yes"/>
      <point x="140.0" y="432.5"/>
      <point x="194.1667" y="489.5"/>
      <point x="271.25" y="489.5" type="curve" smooth="yes"/>
      <point x="329.58335" y="489.5"/>
      <point x="363.75" y="453.5"/>
      <point x="392.0833" y="385.0" type="curve"/>
      <point x="392.0833" y="385.0"/>
      <point x="412.08335" y="451.0"/>
      <point x="412.08335" y="451.0" type="curve"/>
      <point x="412.08335" y="451.0"/>
      <point x="392.91665" y="451.0"/>
      <point x="392.91665" y="451.0" type="curve"/>
      <point x="369.16665" y="501.0"/>
      <point x="329.16665" y="536.0"/>
    </contour>
    <contour>
      <point x="452.9167" y="749.5" type="curve"/>
      <point x="452.5" y="718.5"/>
      <point x="449.5833" y="696.5"/>
      <point x="443.75" y="659.5" type="curve" smooth="yes"/>
      <point x="412.9167" y="468.0"/>
      <point x="353.3333" y="291.5"/>
      <point x="323.75" y="104.5" type="curve" smooth="yes"/>
      <point x="312.5" y="30.0"/>
      <point x="341.6667" y="-4.0"/>
      <point x="380.8333" y="-4.0" type="curve" smooth="yes"/>
      <point x="394.1667" y="-4.0"/>
      <point x="407.91665" y="0.5"/>
      <point x="417.5" y="8.0" type="curve" smooth="yes"/>
      <point x="425.4167" y="15.0"/>
      <point x="430.83335" y="24.5"/>
      <point x="433.75" y="36.5" type="curve" smooth="yes"/>
      <point x="437.91665" y="55.5"/>
      <point x="439.58335" y="71.0"/>
      <point x="440.4167" y="83.5" type="curve"/>
      <point x="440.4167" y="83.5"/>
      <point x="433.75" y="83.5"/>
      <point x="433.75" y="83.5" type="curve"/>
      <point x="424.16665" y="63.0"/>
      <point x="403.3333" y="40.0"/>
      <point x="387.08335" y="40.0" type="curve" smooth="yes"/>
      <point x="377.5" y="40.0"/>
      <point x="370.83335" y="42.0"/>
      <point x="365.4167" y="49.0" type="curve" smooth="yes"/>
      <point x="360.83335" y="71.5"/>
      <point x="361.66665" y="96.5"/>
      <point x="366.25" y="123.5" type="curve" smooth="yes"/>
      <point x="400.0" y="312.0"/>
      <point x="461.66665" y="503.5"/>
      <point x="495.8333" y="707.0" type="curve" smooth="yes"/>
      <point x="500.41665" y="738.5"/>
      <point x="493.75" y="752.5"/>
      <point x="480.0" y="752.5" type="curve" smooth="yes"/>
      <point x="470.41665" y="752.5"/>
      <point x="462.5" y="752.0"/>
    </contour>
  </outline>
</glyph>
<glyph name="e" format="2">
  <advance width="500.0"/>
  <unicode hex="0065"/>
  <anchor x="319.7031" y="537.0" name="top"/>
  <anchor x="330.7292" y="19.0" name="ogonek"/>
  <anchor x="209.8958" y="-1.0" name="bottom"/>
  <anchor x="328.75" y="584.0" name="hook"/>
  <outline>
    <contour>
      <point x="316.25" y="536.0" type="curve" smooth="yes"/>
      <point x="221.25" y="536.0"/>
      <point x="115.41665" y="474.5"/>
      <point x="76.66665" y="286.5" type="curve" smooth="yes"/>
      <point x="76.66665" y="286.5"/>
      <point x="65.0" y="231.0"/>
      <point x="65.0" y="231.0" type="curve" smooth="yes"/>
      <point x="32.5" y="75.5"/>
      <point x="107.5" y="-10.0"/>
      <point x="231.25" y="-10.0" type="curve" smooth="yes"/>
      <point x="304.58335" y="-10.0"/>
      <point x="351.25" y="8.5"/>
      <point x="375.4167" y="37.5" type="curve" smooth="yes"/>
      <point x="382.9167" y="46.5"/>
      <point x="385.41665" y="54.0"/>
      <point x="387.5" y="64.0" type="curve" smooth="yes"/>
      <point x="389.5833" y="74.5"/>
      <point x="392.08335" y="84.0"/>
      <point x="392.91665" y="94.5" type="curve"/>
      <point x="392.91665" y="94.5"/>
      <point x="385.41665" y="94.5"/>
      <point x="385.41665" y="94.5" type="curve"/>
      <point x="335.41665" y="54.0"/>
      <point x="302.5" y="37.0"/>
      <point x="232.0833" y="37.0" type="curve" smooth="yes"/>
      <point x="185.0" y="37.0"/>
      <point x="151.6667" y="48.0"/>
      <point x="123.75" y="71.5" type="curve" smooth="yes"/>
      <point x="98.75" y="105.0"/>
      <point x="91.25" y="159.5"/>
      <point x="105.0" y="222.0" type="curve" smooth="yes"/>
      <point x="105.0" y="222.0"/>
      <point x="116.25" y="275.0"/>
      <point x="116.25" y="275.0" type="curve" smooth="yes"/>
      <point x="147.08335" y="416.5"/>
      <point x="220.0" y="489.5"/>
      <point x="307.5" y="489.5" type="curve" smooth="yes"/>
      <point x="343.3333" y="489.5"/>
      <point x="368.75" y="480.0"/>
      <point x="390.4167" y="463.5" type="curve" smooth="yes"/>
      <point x="410.0" y="439.5"/>
      <point x="417.5" y="402.5"/>
      <point x="406.66665" y="352.5" type="curve" smooth="yes"/>
      <point x="393.75" y="290.0"/>
      <point x="348.75" y="255.5"/>
      <point x="268.75" y="255.5" type="curve" smooth="yes"/>
      <point x="205.83335" y="255.5"/>
      <point x="151.25" y="261.0"/>
      <point x="98.3333" y="274.5" type="curve"/>
      <point x="98.3333" y="274.5"/>
      <point x="85.41665" y="225.0"/>
      <point x="85.41665" y="225.0" type="curve"/>
      <point x="85.41665" y="225.0"/>
      <point x="103.75" y="226.5"/>
      <point x="103.75" y="226.5" type="curve"/>
      <point x="150.8333" y="217.5"/>
      <point x="216.66665" y="209.5"/>
      <point x="267.0833" y="209.5" type="curve" smooth="yes"/>
      <point x="367.5" y="209.5"/>
      <point x="429.16665" y="261.0"/>
      <point x="447.08335" y="346.5" type="curve" smooth="yes"/>
      <point x="447.08335" y="346.5"/>
      <point x="449.16665" y="356.5"/>
      <point x="449.16665" y="356.5" type="curve" smooth="yes"/>
      <point x="468.3333" y="449.0"/>
      <point x="422.08335" y="536.0"/>
    </contour>
  </outline>
</glyph>
<glyph name="f" format="2">
  <advance width="500.0"/>
  <unicode hex="0066"/>
  <anchor x="250.0" y="537.0" name="top"/>
  <anchor x="250.0" y="-1.0" name="bottom"/>
  <outline>
    <contour>
      <point x="-52.916650000000004" y="-117.5" type="curve"/>
      <point x="-57.5" y="-128.0"/>
      <point x="-60.416650000000004" y="-137.0"/>
      <point x="-62.916650000000004" y="-149.0" type="curve" smooth="yes"/>
      <point x="-65.0" y="-158.5"/>
      <point x="-61.66665" y="-169.5"/>
      <point x="-52.9167" y="-176.5" type="curve" smooth="yes"/>
      <point x="-42.5" y="-185.5"/>
      <point x="-6.666650000000001" y="-191.0"/>
      <point x="27.5" y="-191.0" type="curve" smooth="yes"/>
      <point x="111.25" y="-191.0"/>
      <point x="157.5" y="-140.5"/>
      <point x="178.75" y="-43.0" type="curve" smooth="yes"/>
      <point x="217.91665" y="139.5"/>
      <point x="245.4167" y="356.5"/>
      <point x="285.0" y="540.5" type="curve" smooth="yes"/>
      <point x="298.33335" y="603.0"/>
      <point x="317.0833" y="645.0"/>
      <point x="340.0" y="672.5" type="curve" smooth="yes"/>
      <point x="363.75" y="701.0"/>
      <point x="395.0" y="714.0"/>
      <point x="435.41665" y="714.0" type="curve" smooth="yes"/>
      <point x="468.33335" y="714.0"/>
      <point x="495.0" y="704.5"/>
      <point x="515.8333" y="687.0" type="curve"/>
      <point x="508.75" y="639.0"/>
      <point x="495.4167" y="609.5"/>
      <point x="471.66665" y="576.0" type="curve"/>
      <point x="471.66665" y="576.0"/>
      <point x="470.8333" y="569.0"/>
      <point x="470.8333" y="569.0" type="curve"/>
      <point x="479.1667" y="566.5"/>
      <point x="487.08335" y="565.5"/>
      <point x="495.41665" y="565.5" type="curve" smooth="yes"/>
      <point x="513.75" y="565.5"/>
      <point x="531.66665" y="582.5"/>
      <point x="538.75" y="611.5" type="curve" smooth="yes"/>
      <point x="538.75" y="611.5"/>
      <point x="551.66665" y="671.0"/>
      <point x="551.66665" y="671.0" type="curve"/>
      <point x="556.6667" y="690.5"/>
      <point x="555.0" y="709.5"/>
      <point x="542.91665" y="724.0" type="curve" smooth="yes"/>
      <point x="528.3333" y="741.5"/>
      <point x="485.83335" y="760.0"/>
      <point x="440.0" y="760.0" type="curve" smooth="yes"/>
      <point x="339.16665" y="760.0"/>
      <point x="277.9167" y="698.0"/>
      <point x="245.0" y="550.0" type="curve" smooth="yes"/>
      <point x="202.5" y="359.0"/>
      <point x="178.33335" y="152.5"/>
      <point x="139.16665" y="-24.5" type="curve" smooth="yes"/>
      <point x="128.75" y="-71.0"/>
      <point x="119.16665" y="-96.0"/>
      <point x="103.75" y="-118.0" type="curve" smooth="yes"/>
      <point x="83.33335" y="-138.0"/>
      <point x="57.5" y="-143.5"/>
      <point x="29.1667" y="-143.5" type="curve" smooth="yes"/>
      <point x="-5.833349999999999" y="-143.5"/>
      <point x="-26.6667" y="-136.0"/>
      <point x="-45.416650000000004" y="-117.5" type="curve"/>
      <point x="-45.416650000000004" y="-117.5"/>
      <point x="-52.916650000000004" y="-117.5"/>
    </contour>
    <contour>
      <point x="80.41665" y="353.0" type="curve"/>
      <point x="78.75" y="345.5"/>
      <point x="77.08335" y="339.5"/>
      <point x="75.8333" y="331.5" type="curve" smooth="yes"/>
      <point x="72.5" y="317.5"/>
      <point x="80.0" y="307.5"/>
      <point x="93.33335" y="307.5" type="curve" smooth="yes"/>
      <point x="93.33335" y="307.5"/>
      <point x="435.0" y="307.5"/>
      <point x="435.0" y="307.5" type="curve"/>
      <point x="436.66665" y="315.5"/>
      <point x="437.9167" y="321.5"/>
      <point x="439.58335" y="329.5" type="curve"/>
      <point x="442.5" y="343.5"/>
      <point x="435.0" y="353.0"/>
      <point x="421.66665" y="353.0" type="curve" smooth="yes"/>
      <point x="421.66665" y="353.0"/>
      <point x="80.41665" y="353.0"/>
    </contour>
  </outline>
</glyph>
<glyph name="g" format="2">
  <advance width="500.0"/>
  <unicode hex="0067"/>
  <anchor x="290.0" y="531.5" name="top"/>
  <anchor x="250.0" y="-251.0" name="bottom"/>
  <outline>
    <contour>
      <point x="100.0" y="88.5" type="curve" smooth="yes"/>
      <point x="90.41665" y="41.0"/>
      <point x="115.41665" y="-2.0"/>
      <point x="165.41665" y="-3.5" type="curve" smooth="yes"/>
      <point x="165.41665" y="-3.5"/>
      <point x="271.66665" y="-6.0"/>
      <point x="271.66665" y="-6.0" type="curve" smooth="yes"/>
      <point x="330.8333" y="-7.5"/>
      <point x="347.5" y="-49.0"/>
      <point x="336.66665" y="-97.5" type="curve" smooth="yes"/>
      <point x="336.66665" y="-97.5"/>
      <point x="333.75" y="-110.5"/>
      <point x="333.75" y="-110.5" type="curve" smooth="yes"/>
      <point x="329.1667" y="-130.5"/>
      <point x="321.66665" y="-150.0"/>
      <point x="307.5" y="-168.5" type="curve" smooth="yes"/>
      <point x="274.16665" y="-191.5"/>
      <point x="234.16665" y="-202.5"/>
      <point x="180.41665" y="-202.5" type="curve" smooth="yes"/>
      <point x="180.41665" y="-202.5"/>
      <point x="94.58335" y="-202.5"/>
      <point x="94.58335" y="-202.5" type="curve" smooth="yes"/>
      <point x="15.0" y="-202.5"/>
      <point x="-0.8333" y="-156.5"/>
      <point x="8.33335" y="-111.0" type="curve" smooth="yes"/>
      <point x="8.33335" y="-111.0"/>
      <point x="10.8333" y="-99.0"/>
      <point x="10.8333" y="-99.0" type="curve" smooth="yes"/>
      <point x="22.0833" y="-44.0"/>
      <point x="61.666700000000006" y="-0.5"/>
      <point x="142.08335" y="7.5" type="curve"/>
      <point x="142.08335" y="7.5"/>
      <point x="106.66669999999999" y="49.0"/>
      <point x="106.66669999999999" y="49.0" type="curve"/>
      <point x="106.66669999999999" y="49.0"/>
      <point x="100.83335" y="29.5"/>
      <point x="100.83335" y="29.5" type="curve"/>
      <point x="27.0833" y="18.0"/>
      <point x="-15.41665" y="-26.5"/>
      <point x="-31.25" y="-97.5" type="curve" smooth="yes"/>
      <point x="-31.25" y="-97.5"/>
      <point x="-33.75" y="-109.0"/>
      <point x="-33.75" y="-109.0" type="curve" smooth="yes"/>
      <point x="-48.75" y="-177.0"/>
      <point x="-18.75" y="-250.0"/>
      <point x="81.25" y="-250.0" type="curve" smooth="yes"/>
      <point x="81.25" y="-250.0"/>
      <point x="166.25" y="-250.0"/>
      <point x="166.25" y="-250.0" type="curve" smooth="yes"/>
      <point x="301.66665" y="-250.0"/>
      <point x="357.91665" y="-197.0"/>
      <point x="375.83335" y="-109.5" type="curve" smooth="yes"/>
      <point x="375.83335" y="-109.5"/>
      <point x="378.75" y="-95.0"/>
      <point x="378.75" y="-95.0" type="curve" smooth="yes"/>
      <point x="393.33335" y="-23.5"/>
      <point x="364.16665" y="38.5"/>
      <point x="282.9167" y="41.5" type="curve" smooth="yes"/>
      <point x="282.9167" y="41.5"/>
      <point x="176.6667" y="45.0"/>
      <point x="176.6667" y="45.0" type="curve" smooth="yes"/>
      <point x="148.33335" y="46.5"/>
      <point x="136.66665" y="61.5"/>
      <point x="142.5" y="90.0" type="curve" smooth="yes"/>
      <point x="149.16665" y="122.5"/>
      <point x="171.25" y="157.0"/>
      <point x="204.16665" y="179.0" type="curve"/>
      <point x="204.16665" y="179.0"/>
      <point x="158.75" y="190.0"/>
      <point x="158.75" y="190.0" type="curve"/>
      <point x="158.75" y="190.0"/>
      <point x="157.5" y="173.0"/>
      <point x="157.5" y="173.0" type="curve"/>
      <point x="127.91669999999999" y="154.5"/>
      <point x="107.5" y="124.5"/>
    </contour>
    <contour>
      <point x="337.9167" y="493.5" type="curve"/>
      <point x="376.6667" y="456.0"/>
      <point x="390.0" y="404.5"/>
      <point x="376.66665" y="346.5" type="curve" smooth="yes"/>
      <point x="376.66665" y="346.5"/>
      <point x="371.66665" y="323.0"/>
      <point x="371.66665" y="323.0" type="curve" smooth="yes"/>
      <point x="354.1667" y="244.5"/>
      <point x="307.5" y="210.0"/>
      <point x="227.91665" y="210.0" type="curve" smooth="yes"/>
      <point x="188.75" y="210.0"/>
      <point x="159.16665" y="219.0"/>
      <point x="135.41665" y="238.0" type="curve" smooth="yes"/>
      <point x="112.08335" y="265.0"/>
      <point x="110.0" y="305.0"/>
      <point x="117.91665" y="344.0" type="curve" smooth="yes"/>
      <point x="117.91665" y="344.0"/>
      <point x="122.5" y="366.0"/>
      <point x="122.5" y="366.0" type="curve" smooth="yes"/>
      <point x="140.83335" y="449.5"/>
      <point x="192.08335" y="489.0"/>
      <point x="277.08335" y="489.0" type="curve" smooth="yes"/>
      <point x="374.1667" y="489.0"/>
      <point x="431.25" y="481.0"/>
      <point x="483.75" y="481.0" type="curve" smooth="yes"/>
      <point x="493.33335" y="481.0"/>
      <point x="499.58335" y="492.0"/>
      <point x="502.5" y="503.0" type="curve" smooth="yes"/>
      <point x="504.58335" y="512.5"/>
      <point x="505.83335" y="520.0"/>
      <point x="507.08335" y="528.5" type="curve"/>
      <point x="428.33335" y="533.0"/>
      <point x="360.41665" y="536.0"/>
      <point x="285.0" y="536.0" type="curve" smooth="yes"/>
      <point x="168.3333" y="536.0"/>
      <point x="103.33335" y="474.5"/>
      <point x="81.25" y="374.0" type="curve" smooth="yes"/>
      <point x="81.25" y="374.0"/>
      <point x="75.83335" y="349.0"/>
      <point x="75.83335" y="349.0" type="curve" smooth="yes"/>
      <point x="55.0" y="254.5"/>
      <point x="111.6667" y="166.5"/>
      <point x="220.83335" y="166.5" type="curve" smooth="yes"/>
      <point x="331.6667" y="166.5"/>
      <point x="387.5" y="214.0"/>
      <point x="410.83335" y="320.5" type="curve" smooth="yes"/>
      <point x="410.83335" y="320.5"/>
      <point x="416.25" y="345.0"/>
      <point x="416.25" y="345.0" type="curve" smooth="yes"/>
      <point x="428.33335" y="397.5"/>
      <point x="417.08335" y="446.0"/>
      <point x="385.4167" y="478.0" type="curve"/>
      <point x="385.4167" y="478.0"/>
      <point x="390.0" y="495.0"/>
      <point x="390.0" y="495.0" type="curve"/>
      <point x="390.0" y="495.0"/>
      <point x="337.9167" y="493.5"/>
    </contour>
  </outline>
</glyph>
<glyph name="h" format="2">
  <advance width="500.0"/>
  <unicode hex="0068"/>
  <anchor x="206.709" y="730.0" name="top"/>
  <anchor x="198.3333" y="0.0" name="bottom"/>
  <outline>
    <contour>
      <point x="52.0833" y="-2.5" type="curve" smooth="yes"/>
      <point x="59.583349999999996" y="-2.5"/>
      <point x="67.08335" y="-2.0"/>
      <point x="74.5833" y="-1.0" type="curve"/>
      <point x="106.66665" y="231.5"/>
      <point x="183.75" y="458.5"/>
      <point x="225.83335" y="708.5" type="curve"/>
      <point x="230.4167" y="740.0"/>
      <point x="223.3333" y="753.0"/>
      <point x="210.41665" y="753.0" type="curve" smooth="yes"/>
      <point x="200.83335" y="753.0"/>
      <point x="192.5" y="752.5"/>
      <point x="182.91665" y="750.0" type="curve"/>
      <point x="185.0" y="730.5"/>
      <point x="180.83335" y="702.5"/>
      <point x="172.91665" y="654.5" type="curve" smooth="yes"/>
      <point x="137.5" y="438.5"/>
      <point x="70.4167" y="238.0"/>
      <point x="36.6667" y="28.0" type="curve" smooth="yes"/>
      <point x="34.166650000000004" y="7.5"/>
      <point x="40.416650000000004" y="-2.5"/>
    </contour>
    <contour>
      <point x="120.83330000000001" y="277.5" type="curve"/>
      <point x="197.91665" y="400.0"/>
      <point x="280.4167" y="490.0"/>
      <point x="347.91665" y="490.0" type="curve" smooth="yes"/>
      <point x="392.5" y="490.0"/>
      <point x="410.83335" y="455.5"/>
      <point x="403.75" y="386.5" type="curve" smooth="yes"/>
      <point x="375.41665" y="261.5"/>
      <point x="347.5" y="159.5"/>
      <point x="330.0" y="59.0" type="curve" smooth="yes"/>
      <point x="324.1667" y="15.5"/>
      <point x="331.25" y="-2.5"/>
      <point x="345.83335" y="-2.5" type="curve"/>
      <point x="355.0" y="-2.5"/>
      <point x="363.33335" y="-1.5"/>
      <point x="371.66665" y="0.0" type="curve"/>
      <point x="371.66665" y="39.5"/>
      <point x="375.83335" y="72.5"/>
      <point x="382.0833" y="110.5" type="curve" smooth="yes"/>
      <point x="397.91665" y="208.5"/>
      <point x="424.16665" y="296.5"/>
      <point x="440.41665" y="389.5" type="curve" smooth="yes"/>
      <point x="452.9167" y="463.0"/>
      <point x="427.0833" y="536.5"/>
      <point x="350.41665" y="536.5" type="curve" smooth="yes"/>
      <point x="287.08335" y="536.5"/>
      <point x="219.5833" y="479.0"/>
      <point x="165.41665" y="394.0" type="curve"/>
      <point x="165.41665" y="394.0"/>
      <point x="142.91665" y="399.0"/>
      <point x="142.91665" y="399.0" type="curve"/>
      <point x="142.91665" y="399.0"/>
      <point x="120.83330000000001" y="277.5"/>
    </contour>
  </outline>
</glyph>
<glyph name="k" format="2">
  <advance width="500.0"/>
  <unicode hex="006B"/>
  <anchor x="214.0625" y="-1.0" name="bottom"/>
  <outline>
    <contour>
      <point x="74.5833" y="-1.0" type="curve"/>
      <point x="107.08330000000001" y="232.0"/>
      <point x="183.33335" y="458.0"/>
      <point x="225.83335" y="708.5" type="curve"/>
      <point x="230.4167" y="740.0"/>
      <point x="223.3333" y="753.0"/>
      <point x="210.41665" y="753.0" type="curve" smooth="yes"/>
      <point x="200.83335" y="753.0"/>
      <point x="192.5" y="752.5"/>
      <point x="182.91665" y="750.0" type="curve"/>
      <point x="185.0" y="730.5"/>
      <point x="180.83335" y="702.5"/>
      <point x="172.5" y="654.5" type="curve" smooth="yes"/>
      <point x="137.08335" y="438.5"/>
      <point x="70.4167" y="238.0"/>
      <point x="36.6667" y="28.0" type="curve"/>
      <point x="34.166650000000004" y="6.5"/>
      <point x="40.416650000000004" y="-2.5"/>
      <point x="52.0833" y="-2.5" type="curve" smooth="yes"/>
      <point x="59.583349999999996" y="-2.5"/>
      <point x="67.08335" y="-2.0"/>
    </contour>
    <contour>
      <point x="367.5" y="-5.0" type="curve" smooth="yes"/>
      <point x="380.0" y="-5.0"/>
      <point x="385.83335" y="-4.5"/>
      <point x="398.75" y="-3.5" type="curve"/>
      <point x="341.66665" y="94.0"/>
      <point x="291.6667" y="193.5"/>
      <point x="247.0833" y="300.0" type="curve"/>
      <point x="247.0833" y="300.0"/>
      <point x="209.16665" y="256.0"/>
      <point x="209.16665" y="256.0" type="curve"/>
      <point x="209.16665" y="256.0"/>
      <point x="227.08335" y="254.0"/>
      <point x="227.08335" y="254.0" type="curve"/>
      <point x="237.08335" y="214.0"/>
      <point x="244.5833" y="194.0"/>
      <point x="267.08335" y="147.0" type="curve" smooth="yes"/>
      <point x="292.08335" y="95.5"/>
      <point x="323.75" y="34.0"/>
      <point x="336.25" y="12.5" type="curve"/>
      <point x="344.16665" y="-1.0"/>
      <point x="352.5" y="-5.0"/>
    </contour>
    <contour>
      <point x="108.33335" y="252.5" type="curve"/>
      <point x="108.33335" y="252.5"/>
      <point x="99.58335" y="184.0"/>
      <point x="99.58335" y="184.0" type="curve"/>
      <point x="230.83335" y="251.0"/>
      <point x="344.1667" y="346.5"/>
      <point x="467.08335" y="493.5" type="curve" smooth="yes"/>
      <point x="475.41665" y="503.5"/>
      <point x="478.33335" y="510.5"/>
      <point x="478.75" y="516.5" type="curve" smooth="yes"/>
      <point x="479.58335" y="524.0"/>
      <point x="475.0" y="529.5"/>
      <point x="460.4167" y="529.5" type="curve"/>
      <point x="460.4167" y="529.5"/>
      <point x="430.8333" y="529.5"/>
      <point x="430.8333" y="529.5" type="curve"/>
      <point x="373.33335" y="458.5"/>
      <point x="312.5" y="393.0"/>
      <point x="265.0" y="347.5" type="curve" smooth="yes"/>
      <point x="214.58335" y="299.5"/>
      <point x="178.33335" y="273.0"/>
      <point x="128.75" y="242.0" type="curve"/>
      <point x="128.75" y="242.0"/>
      <point x="108.33335" y="252.5"/>
    </contour>
  </outline>
</glyph>
<glyph name="l" format="2">
  <advance width="500.0"/>
  <unicode hex="006C"/>
  <anchor x="251.25" y="0.0" name="bottom"/>
  <anchor x="335.8333" y="730.0" name="top"/>
  <anchor x="433.3333" y="400.0" name="dot"/>
  <anchor x="498.75" y="711.0" name="caronslovak"/>
  <anchor x="261.6667" y="371.5" name="slash"/>
  <outline>
    <contour>
      <point x="147.91665" y="734.5" type="curve"/>
      <point x="144.58335" y="726.0"/>
      <point x="142.5" y="718.0"/>
      <point x="140.41665" y="708.5" type="curve" smooth="yes"/>
      <point x="137.91665" y="696.0"/>
      <point x="142.08335" y="687.0"/>
      <point x="150.83335" y="687.0" type="curve" smooth="yes"/>
      <point x="191.90105" y="687.0"/>
      <point x="238.34475" y="706.6938867019"/>
      <point x="322.5" y="715.0" type="curve"/>
      <point x="322.5" y="715.0"/>
      <point x="330.41665" y="713.5"/>
      <point x="330.41665" y="713.5" type="curve"/>
      <point x="298.76689999999996" y="519.65088070735"/>
      <point x="219.58335" y="348.5"/>
      <point x="182.5" y="149.0" type="curve" smooth="yes"/>
      <point x="165.0" y="52.5"/>
      <point x="200.0" y="-8.0"/>
      <point x="285.83335" y="-8.0" type="curve" smooth="yes"/>
      <point x="325.83335" y="-8.0"/>
      <point x="369.58335" y="2.0"/>
      <point x="385.4167" y="18.0" type="curve" smooth="yes"/>
      <point x="394.16665" y="26.0"/>
      <point x="401.25" y="35.0"/>
      <point x="403.75" y="50.5" type="curve" smooth="yes"/>
      <point x="405.8333" y="62.0"/>
      <point x="406.66665" y="72.5"/>
      <point x="407.08335" y="85.0" type="curve"/>
      <point x="407.08335" y="85.0"/>
      <point x="399.58335" y="85.0"/>
      <point x="399.58335" y="85.0" type="curve"/>
      <point x="365.8333" y="51.0"/>
      <point x="331.25" y="37.0"/>
      <point x="290.41665" y="37.0" type="curve" smooth="yes"/>
      <point x="256.66665" y="37.0"/>
      <point x="237.0833" y="45.0"/>
      <point x="224.58335" y="63.5" type="curve" smooth="yes"/>
      <point x="216.25" y="89.0"/>
      <point x="215.41665" y="110.5"/>
      <point x="223.75" y="152.5" type="curve" smooth="yes"/>
      <point x="260.0" y="336.0"/>
      <point x="345.42295" y="541.5729535775"/>
      <point x="373.75" y="722.0" type="curve" smooth="yes"/>
      <point x="375.83335" y="743.5"/>
      <point x="365.83335" y="755.0"/>
      <point x="350.4167" y="755.0" type="curve" smooth="yes"/>
      <point x="279.69415000000004" y="755.0"/>
      <point x="210.7932" y="746.62824545355"/>
    </contour>
  </outline>
</glyph>
<glyph name="m" format="2">
  <advance width="500.0"/>
  <unicode hex="006D"/>
  <anchor x="198.3333" y="0.0" name="bottom"/>
  <anchor x="250.0" y="537.0" name="top"/>
  <outline>
    <contour>
      <point x="411.25" y="0.0" type="curve"/>
      <point x="411.25" y="38.0"/>
      <point x="415.0" y="71.0"/>
      <point x="421.66665" y="110.5" type="curve" smooth="yes"/>
      <point x="439.16665" y="217.0"/>
      <point x="468.33335" y="313.5"/>
      <point x="486.25" y="419.5" type="curve" smooth="yes"/>
      <point x="496.6667" y="484.0"/>
      <point x="478.75" y="536.0"/>
      <point x="428.75" y="536.0" type="curve" smooth="yes"/>
      <point x="389.5833" y="536.0"/>
      <point x="352.08335" y="504.5"/>
      <point x="315.0" y="441.5" type="curve"/>
      <point x="315.0" y="441.5"/>
      <point x="300.0" y="444.5"/>
      <point x="300.0" y="444.5" type="curve"/>
      <point x="300.0" y="444.5"/>
      <point x="277.0833" y="337.5"/>
      <point x="277.0833" y="337.5" type="curve"/>
      <point x="336.66665" y="435.5"/>
      <point x="380.0" y="488.5"/>
      <point x="417.0833" y="488.5" type="curve" smooth="yes"/>
      <point x="445.4167" y="488.5"/>
      <point x="453.3333" y="466.0"/>
      <point x="449.1667" y="425.5" type="curve"/>
      <point x="418.33335" y="292.5"/>
      <point x="390.0" y="185.0"/>
      <point x="369.16665" y="65.5" type="curve" smooth="yes"/>
      <point x="362.5" y="15.5"/>
      <point x="369.16665" y="-2.5"/>
      <point x="385.41665" y="-2.5" type="curve" smooth="yes"/>
      <point x="394.5833" y="-2.5"/>
      <point x="402.9167" y="-1.5"/>
    </contour>
    <contour>
      <point x="219.5833" y="0.0" type="curve"/>
      <point x="237.5" y="138.0"/>
      <point x="275.8333" y="287.0"/>
      <point x="306.25" y="431.0" type="curve"/>
      <point x="316.66665" y="479.0"/>
      <point x="298.33335" y="536.0"/>
      <point x="249.16665" y="536.0" type="curve" smooth="yes"/>
      <point x="209.58335" y="536.0"/>
      <point x="169.58335" y="506.5"/>
      <point x="130.0" y="437.0" type="curve"/>
      <point x="130.0" y="437.0"/>
      <point x="114.16665" y="440.0"/>
      <point x="114.16665" y="440.0" type="curve"/>
      <point x="114.16665" y="440.0"/>
      <point x="93.33335" y="337.5"/>
      <point x="93.33335" y="337.5" type="curve"/>
      <point x="159.58335" y="450.0"/>
      <point x="200.0" y="488.5"/>
      <point x="237.5" y="488.5" type="curve" smooth="yes"/>
      <point x="263.75" y="488.5"/>
      <point x="272.5" y="471.0"/>
      <point x="268.75" y="437.0" type="curve"/>
      <point x="237.0833" y="299.0"/>
      <point x="212.91665" y="191.5"/>
      <point x="186.6667" y="65.5" type="curve" smooth="yes"/>
      <point x="174.58335" y="10.0"/>
      <point x="182.0833" y="-1.5"/>
      <point x="195.0" y="-1.5" type="curve"/>
      <point x="203.33335" y="-1.5"/>
      <point x="211.25" y="-1.0"/>
    </contour>
    <contour>
      <point x="32.9167" y="-1.0" type="curve"/>
      <point x="55.0" y="158.5"/>
      <point x="103.75" y="324.0"/>
      <point x="125.0" y="455.0" type="curve"/>
      <point x="128.3333" y="481.0"/>
      <point x="126.66665" y="528.5"/>
      <point x="116.25" y="529.0" type="curve"/>
      <point x="106.6667" y="529.0"/>
      <point x="98.3333" y="528.5"/>
      <point x="90.0" y="526.5" type="curve"/>
      <point x="90.0" y="506.5"/>
      <point x="86.6667" y="478.5"/>
      <point x="78.75" y="430.5" type="curve" smooth="yes"/>
      <point x="55.833349999999996" y="292.0"/>
      <point x="15.41665" y="153.0"/>
      <point x="-5.0" y="26.0" type="curve" smooth="yes"/>
      <point x="-7.5" y="7.5"/>
      <point x="-2.0833" y="-2.5"/>
      <point x="10.416699999999999" y="-2.5" type="curve" smooth="yes"/>
      <point x="17.91665" y="-2.5"/>
      <point x="25.41665" y="-2.0"/>
    </contour>
  </outline>
</glyph>
<glyph name="n" format="2">
  <advance width="500.0"/>
  <unicode hex="006E"/>
  <anchor x="306.9062" y="537.0" name="top"/>
  <anchor x="195.625" y="-1.0" name="bottom"/>
  <anchor x="178.3333" y="711.0" name="caronslovak"/>
  <outline>
    <contour>
      <point x="371.66665" y="0.0" type="curve"/>
      <point x="371.66665" y="39.5"/>
      <point x="375.83335" y="72.5"/>
      <point x="382.0833" y="110.5" type="curve" smooth="yes"/>
      <point x="397.91665" y="208.5"/>
      <point x="424.16665" y="296.5"/>
      <point x="440.41665" y="389.5" type="curve" smooth="yes"/>
      <point x="452.9167" y="463.0"/>
      <point x="427.0833" y="536.5"/>
      <point x="350.41665" y="536.5" type="curve" smooth="yes"/>
      <point x="286.25" y="536.5"/>
      <point x="217.5" y="477.0"/>
      <point x="162.91665" y="389.5" type="curve"/>
      <point x="162.91665" y="389.5"/>
      <point x="141.66665" y="394.0"/>
      <point x="141.66665" y="394.0" type="curve"/>
      <point x="141.66665" y="394.0"/>
      <point x="122.5" y="277.0"/>
      <point x="122.5" y="277.0" type="curve"/>
      <point x="197.91665" y="400.0"/>
      <point x="280.4167" y="490.0"/>
      <point x="347.91665" y="490.0" type="curve" smooth="yes"/>
      <point x="392.5" y="490.0"/>
      <point x="410.83335" y="455.5"/>
      <point x="403.75" y="386.5" type="curve" smooth="yes"/>
      <point x="375.41665" y="261.5"/>
      <point x="347.5" y="159.5"/>
      <point x="330.0" y="59.0" type="curve" smooth="yes"/>
      <point x="324.1667" y="15.5"/>
      <point x="331.25" y="-2.5"/>
      <point x="345.83335" y="-2.5" type="curve"/>
      <point x="355.0" y="-2.5"/>
      <point x="363.33335" y="-1.5"/>
    </contour>
    <contour>
      <point x="74.5833" y="-1.0" type="curve"/>
      <point x="96.6667" y="158.5"/>
      <point x="145.8333" y="324.0"/>
      <point x="173.75" y="487.0" type="curve"/>
      <point x="177.91665" y="516.0"/>
      <point x="171.25" y="527.5"/>
      <point x="157.08335" y="527.5" type="curve" smooth="yes"/>
      <point x="147.9167" y="527.5"/>
      <point x="140.0" y="527.0"/>
      <point x="132.08335" y="526.0" type="curve"/>
      <point x="132.08335" y="506.0"/>
      <point x="128.75" y="478.5"/>
      <point x="120.83335" y="430.5" type="curve" smooth="yes"/>
      <point x="98.33335" y="299.5"/>
      <point x="57.5" y="153.0"/>
      <point x="36.6667" y="26.0" type="curve" smooth="yes"/>
      <point x="34.166650000000004" y="7.5"/>
      <point x="39.5833" y="-2.5"/>
      <point x="52.0833" y="-2.5" type="curve" smooth="yes"/>
      <point x="59.583349999999996" y="-2.5"/>
      <point x="67.08335" y="-2.0"/>
    </contour>
  </outline>
</glyph>
<glyph name="o" format="2">
  <advance width="500.0"/>
  <unicode hex="006F"/>
  <anchor x="305.8333" y="537.0" name="top"/>
  <anchor x="204.0625" y="-1.0" name="bottom"/>
  <anchor x="393.75" y="487.0" name="horn"/>
  <anchor x="312.0833" y="584.0" name="hook"/>
  <anchor x="269.5833" y="537.0" name="tildeviet"/>
  <anchor x="345.0" y="40.5" name="ogonek"/>
  <outline>
    <contour>
      <point x="297.9167" y="536.0" type="curve" smooth="yes"/>
      <point x="185.0" y="536.0"/>
      <point x="104.58335" y="449.0"/>
      <point x="72.5" y="294.0" type="curve" smooth="yes"/>
      <point x="72.5" y="294.0"/>
      <point x="57.083349999999996" y="220.5"/>
      <point x="57.083349999999996" y="220.5" type="curve" smooth="yes"/>
      <point x="30.32835" y="93.08352450870001"/>
      <point x="88.75" y="-10.0"/>
      <point x="209.16665" y="-10.0" type="curve" smooth="yes"/>
      <point x="323.33335" y="-10.0"/>
      <point x="389.16665" y="59.5"/>
      <point x="419.58335" y="195.5" type="curve" smooth="yes"/>
      <point x="419.58335" y="195.5"/>
      <point x="435.83335" y="270.0"/>
      <point x="435.83335" y="270.0" type="curve" smooth="yes"/>
      <point x="466.09835" y="405.74942647395"/>
      <point x="412.9167" y="536.0"/>
    </contour>
    <contour>
      <point x="292.5" y="489.0" type="curve" smooth="yes"/>
      <point x="327.08335" y="489.0"/>
      <point x="351.66665" y="479.0"/>
      <point x="369.58335" y="462.5" type="curve" smooth="yes"/>
      <point x="406.25" y="417.5"/>
      <point x="411.66665" y="344.0"/>
      <point x="396.25" y="269.5" type="curve" smooth="yes"/>
      <point x="396.25" y="269.5"/>
      <point x="381.25" y="200.0"/>
      <point x="381.25" y="200.0" type="curve" smooth="yes"/>
      <point x="359.16665" y="96.5"/>
      <point x="304.58335" y="34.5"/>
      <point x="214.58335" y="34.5" type="curve" smooth="yes"/>
      <point x="179.58335" y="34.5"/>
      <point x="152.91665" y="43.5"/>
      <point x="132.0833" y="59.5" type="curve" smooth="yes"/>
      <point x="90.8333" y="98.5"/>
      <point x="86.66665" y="163.5"/>
      <point x="99.58335" y="221.5" type="curve" smooth="yes"/>
      <point x="99.58335" y="221.5"/>
      <point x="115.0" y="292.5"/>
      <point x="115.0" y="292.5" type="curve" smooth="yes"/>
      <point x="141.6667" y="414.0"/>
      <point x="209.16665" y="489.0"/>
    </contour>
  </outline>
</glyph>
<glyph name="p" format="2">
  <advance width="500.0"/>
  <unicode hex="0070"/>
  <anchor x="250.0" y="537.0" name="top"/>
  <anchor x="250.0" y="-201.0" name="bottom"/>
  <outline>
    <contour>
      <point x="138.75" y="528.0" type="curve"/>
      <point x="138.75" y="499.0"/>
      <point x="135.0" y="472.0"/>
      <point x="128.75" y="432.5" type="curve"/>
      <point x="94.16665" y="221.0"/>
      <point x="29.16665" y="36.5"/>
      <point x="-3.75" y="-169.0" type="curve"/>
      <point x="-6.25" y="-190.5"/>
      <point x="0.41665" y="-200.0"/>
      <point x="12.08335" y="-200.0" type="curve"/>
      <point x="19.5833" y="-200.0"/>
      <point x="27.08335" y="-199.5"/>
      <point x="34.583349999999996" y="-198.5" type="curve"/>
      <point x="65.83335" y="30.5"/>
      <point x="140.41665" y="240.0"/>
      <point x="181.66665" y="486.5" type="curve" smooth="yes"/>
      <point x="186.25" y="517.0"/>
      <point x="179.1667" y="531.0"/>
      <point x="166.25" y="531.0" type="curve" smooth="yes"/>
      <point x="156.66665" y="531.0"/>
      <point x="148.33335" y="530.5"/>
    </contour>
    <contour>
      <point x="341.66665" y="536.0" type="curve" smooth="yes"/>
      <point x="277.91665" y="536.0"/>
      <point x="221.25" y="483.0"/>
      <point x="175.41665" y="406.0" type="curve"/>
      <point x="175.41665" y="406.0"/>
      <point x="161.6667" y="409.0"/>
      <point x="161.6667" y="409.0" type="curve"/>
      <point x="161.6667" y="409.0"/>
      <point x="132.9167" y="283.5"/>
      <point x="132.9167" y="283.5" type="curve"/>
      <point x="220.8333" y="439.5"/>
      <point x="278.75" y="489.5"/>
      <point x="339.5833" y="489.5" type="curve" smooth="yes"/>
      <point x="372.08335" y="489.5"/>
      <point x="394.5833" y="474.0"/>
      <point x="406.66665" y="443.5" type="curve" smooth="yes"/>
      <point x="417.08335" y="409.0"/>
      <point x="417.9167" y="368.0"/>
      <point x="406.25" y="312.5" type="curve" smooth="yes"/>
      <point x="406.25" y="312.5"/>
      <point x="391.66665" y="243.0"/>
      <point x="391.66665" y="243.0" type="curve" smooth="yes"/>
      <point x="361.66665" y="100.0"/>
      <point x="305.8333" y="36.5"/>
      <point x="227.5" y="36.5" type="curve" smooth="yes"/>
      <point x="163.75" y="36.5"/>
      <point x="130.83335" y="68.5"/>
      <point x="96.25" y="148.0" type="curve"/>
      <point x="96.25" y="148.0"/>
      <point x="78.33335" y="74.5"/>
      <point x="78.33335" y="74.5" type="curve"/>
      <point x="78.33335" y="74.5"/>
      <point x="97.5" y="77.0"/>
      <point x="97.5" y="77.0" type="curve"/>
      <point x="120.83335" y="28.5"/>
      <point x="160.83335" y="-10.0"/>
      <point x="222.91665" y="-10.0" type="curve" smooth="yes"/>
      <point x="327.5" y="-10.0"/>
      <point x="398.3333" y="69.0"/>
      <point x="433.75" y="241.0" type="curve" smooth="yes"/>
      <point x="433.75" y="241.0"/>
      <point x="448.75" y="315.0"/>
      <point x="448.75" y="315.0" type="curve" smooth="yes"/>
      <point x="475.0" y="443.5"/>
      <point x="439.1667" y="536.0"/>
    </contour>
  </outline>
</glyph>
<glyph name="q" format="2">
  <advance width="500.0"/>
  <unicode hex="0071"/>
  <anchor x="300.0" y="537.0" name="top"/>
  <anchor x="300.0" y="-201.0" name="bottom"/>
  <outline>
    <contour>
      <point x="351.66665" y="113.0" type="curve"/>
      <point x="351.66665" y="113.0"/>
      <point x="380.0" y="251.0"/>
      <point x="380.0" y="251.0" type="curve"/>
      <point x="287.91665" y="85.5"/>
      <point x="228.33335" y="36.5"/>
      <point x="160.83335" y="36.5" type="curve" smooth="yes"/>
      <point x="130.83335" y="36.5"/>
      <point x="110.0" y="51.0"/>
      <point x="96.25" y="72.5" type="curve" smooth="yes"/>
      <point x="82.08335" y="115.5"/>
      <point x="82.08335" y="162.5"/>
      <point x="94.16665" y="218.5" type="curve" smooth="yes"/>
      <point x="94.16665" y="218.5"/>
      <point x="108.75" y="287.5"/>
      <point x="108.75" y="287.5" type="curve" smooth="yes"/>
      <point x="140.8333" y="435.0"/>
      <point x="194.58335" y="489.5"/>
      <point x="271.25" y="489.5" type="curve" smooth="yes"/>
      <point x="334.16665" y="489.5"/>
      <point x="368.75" y="454.0"/>
      <point x="403.75" y="373.0" type="curve"/>
      <point x="403.75" y="373.0"/>
      <point x="420.83335" y="450.0"/>
      <point x="420.83335" y="450.0" type="curve"/>
      <point x="420.83335" y="450.0"/>
      <point x="401.66665" y="448.5"/>
      <point x="401.66665" y="448.5" type="curve"/>
      <point x="376.6667" y="499.0"/>
      <point x="336.6667" y="536.0"/>
      <point x="275.83335" y="536.0" type="curve" smooth="yes"/>
      <point x="180.41665" y="536.0"/>
      <point x="106.6667" y="481.0"/>
      <point x="67.08335" y="288.5" type="curve" smooth="yes"/>
      <point x="67.08335" y="288.5"/>
      <point x="52.5" y="216.5"/>
      <point x="52.5" y="216.5" type="curve" smooth="yes"/>
      <point x="25.4167" y="89.0"/>
      <point x="63.75" y="-10.0"/>
      <point x="160.83335" y="-10.0" type="curve" smooth="yes"/>
      <point x="228.75" y="-10.0"/>
      <point x="289.16665" y="42.0"/>
      <point x="330.0" y="117.5" type="curve"/>
      <point x="330.0" y="117.5"/>
      <point x="351.66665" y="113.0"/>
    </contour>
    <contour>
      <point x="291.66665" y="-89.0" type="curve" smooth="yes"/>
      <point x="277.91665" y="-161.0"/>
      <point x="307.0833" y="-200.0"/>
      <point x="345.0" y="-200.0" type="curve" smooth="yes"/>
      <point x="359.7316" y="-200.0"/>
      <point x="383.0439" y="-194.8473307982"/>
      <point x="393.75" y="-186.0" type="curve" smooth="yes"/>
      <point x="401.66665" y="-179.0"/>
      <point x="407.08335" y="-169.5"/>
      <point x="410.0" y="-157.5" type="curve" smooth="yes"/>
      <point x="414.16665" y="-138.5"/>
      <point x="415.8333" y="-123.0"/>
      <point x="416.66665" y="-110.5" type="curve"/>
      <point x="416.66665" y="-110.5"/>
      <point x="410.0" y="-110.5"/>
      <point x="410.0" y="-110.5" type="curve"/>
      <point x="397.9167" y="-139.0"/>
      <point x="370.8333" y="-156.0"/>
      <point x="352.91665" y="-156.0" type="curve" smooth="yes"/>
      <point x="343.33335" y="-156.0"/>
      <point x="336.66665" y="-153.5"/>
      <point x="330.83335" y="-147.0" type="curve" smooth="yes"/>
      <point x="326.66665" y="-137.0"/>
      <point x="326.66665" y="-124.0"/>
      <point x="330.4167" y="-101.0" type="curve" smooth="yes"/>
      <point x="365.83335" y="93.5"/>
      <point x="423.33335" y="268.0"/>
      <point x="460.0" y="486.5" type="curve"/>
      <point x="464.58335" y="516.5"/>
      <point x="457.91665" y="529.5"/>
      <point x="446.66665" y="529.5" type="curve" smooth="yes"/>
      <point x="437.5" y="529.5"/>
      <point x="430.0" y="529.0"/>
      <point x="420.8333" y="527.0" type="curve"/>
      <point x="417.0833" y="499.0"/>
      <point x="413.75" y="476.0"/>
      <point x="406.66665" y="430.0" type="curve" smooth="yes"/>
      <point x="376.25" y="244.0"/>
      <point x="325.0" y="86.0"/>
    </contour>
  </outline>
</glyph>
<glyph name="s" format="2">
  <advance width="500.0"/>
  <unicode hex="0073"/>
  <anchor x="319.703" y="537.0" name="top"/>
  <anchor x="205.7292" y="-1.0" name="bottom"/>
  <anchor x="362.0833" y="536.5" name="dot"/>
  <outline>
    <contour>
      <point x="205.8333" y="37.5" type="curve" smooth="yes"/>
      <point x="126.66669999999999" y="37.5"/>
      <point x="86.25" y="53.5"/>
      <point x="45.833349999999996" y="99.5" type="curve"/>
      <point x="45.833349999999996" y="99.5"/>
      <point x="38.333349999999996" y="99.5"/>
      <point x="38.333349999999996" y="99.5" type="curve"/>
      <point x="36.666650000000004" y="93.5"/>
      <point x="34.5833" y="86.5"/>
      <point x="32.083349999999996" y="74.0" type="curve" smooth="yes"/>
      <point x="30.0" y="64.5"/>
      <point x="30.83335" y="56.0"/>
      <point x="35.0" y="49.0" type="curve" smooth="yes"/>
      <point x="55.0" y="21.0"/>
      <point x="108.75" y="-9.0"/>
      <point x="197.08335" y="-9.0" type="curve" smooth="yes"/>
      <point x="306.25" y="-9.0"/>
      <point x="373.33335" y="36.5"/>
      <point x="393.33335" y="126.0" type="curve" smooth="yes"/>
      <point x="407.91665" y="195.5"/>
      <point x="381.6667" y="252.5"/>
      <point x="300.83335" y="273.5" type="curve" smooth="yes"/>
      <point x="300.83335" y="273.5"/>
      <point x="229.5833" y="292.5"/>
      <point x="229.5833" y="292.5" type="curve" smooth="yes"/>
      <point x="155.8333" y="313.0"/>
      <point x="149.58335" y="349.5"/>
      <point x="158.33335" y="391.0" type="curve" smooth="yes"/>
      <point x="171.23795" y="450.9459408552"/>
      <point x="238.63305" y="489.0"/>
      <point x="314.5833" y="489.0" type="curve" smooth="yes"/>
      <point x="371.19045" y="489.0"/>
      <point x="404.84450000000004" y="471.83180771925004"/>
      <point x="425.41665" y="433.5" type="curve"/>
      <point x="425.41665" y="433.5"/>
      <point x="432.91665" y="433.5"/>
      <point x="432.91665" y="433.5" type="curve"/>
      <point x="438.75" y="443.5"/>
      <point x="442.5" y="452.0"/>
      <point x="445.41665" y="464.0" type="curve"/>
      <point x="447.91665" y="474.5"/>
      <point x="446.25" y="486.0"/>
      <point x="441.25" y="494.0" type="curve" smooth="yes"/>
      <point x="430.03335" y="511.46000240945"/>
      <point x="385.45500000000004" y="536.5"/>
      <point x="320.41665" y="536.5" type="curve" smooth="yes"/>
      <point x="212.8679" y="536.5"/>
      <point x="137.4851" y="483.93471917989996"/>
      <point x="117.91665" y="394.0" type="curve" smooth="yes"/>
      <point x="104.16665" y="330.0"/>
      <point x="131.25" y="273.0"/>
      <point x="210.41665" y="251.5" type="curve" smooth="yes"/>
      <point x="210.41665" y="251.5"/>
      <point x="280.8333" y="232.0"/>
      <point x="280.8333" y="232.0" type="curve" smooth="yes"/>
      <point x="352.9167" y="212.0"/>
      <point x="365.41665" y="180.5"/>
      <point x="353.33335" y="120.0" type="curve" smooth="yes"/>
      <point x="334.16665" y="69.0"/>
      <point x="286.25" y="37.5"/>
    </contour>
  </outline>
</glyph>
<glyph name="t" format="2">
  <advance width="500.0"/>
  <unicode hex="0074"/>
  <anchor x="247.2916" y="-1.0" name="bottom"/>
  <anchor x="451.2704" y="700.0" name="caronslovak"/>
  <anchor x="276.25" y="648.5" name="top"/>
  <outline>
    <contour>
      <point x="116.25" y="526.0" type="curve"/>
      <point x="114.16665" y="518.5"/>
      <point x="112.0833" y="512.0"/>
      <point x="110.41665" y="504.0" type="curve" smooth="yes"/>
      <point x="107.08335" y="488.0"/>
      <point x="115.41665" y="480.0"/>
      <point x="148.75" y="480.0" type="curve" smooth="yes"/>
      <point x="148.75" y="480.0"/>
      <point x="472.08335" y="480.0"/>
      <point x="472.08335" y="480.0" type="curve"/>
      <point x="473.75" y="488.0"/>
      <point x="475.0" y="494.5"/>
      <point x="476.6667" y="502.5" type="curve" smooth="yes"/>
      <point x="479.16665" y="516.0"/>
      <point x="475.83335" y="526.0"/>
      <point x="465.83335" y="526.0" type="curve" smooth="yes"/>
      <point x="465.83335" y="526.0"/>
      <point x="116.25" y="526.0"/>
    </contour>
    <contour>
      <point x="402.5" y="96.5" type="curve"/>
      <point x="402.5" y="96.5"/>
      <point x="395.83335" y="96.5"/>
      <point x="395.83335" y="96.5" type="curve"/>
      <point x="359.1667" y="55.5"/>
      <point x="323.75" y="36.5"/>
      <point x="278.3333" y="36.5" type="curve" smooth="yes"/>
      <point x="241.66665" y="36.5"/>
      <point x="216.25" y="47.0"/>
      <point x="201.25" y="66.0" type="curve" smooth="yes"/>
      <point x="188.75" y="95.0"/>
      <point x="189.16665" y="128.5"/>
      <point x="200.41665" y="191.5" type="curve"/>
      <point x="228.75" y="346.5"/>
      <point x="281.25" y="496.0"/>
      <point x="305.41665" y="653.5" type="curve" smooth="yes"/>
      <point x="309.58335" y="692.5"/>
      <point x="298.75" y="702.5"/>
      <point x="289.1667" y="702.5" type="curve"/>
      <point x="279.16665" y="702.5"/>
      <point x="271.25" y="702.0"/>
      <point x="261.6667" y="700.0" type="curve"/>
      <point x="260.41665" y="668.0"/>
      <point x="256.66665" y="637.5"/>
      <point x="251.25" y="603.0" type="curve" smooth="yes"/>
      <point x="228.33335" y="458.5"/>
      <point x="183.75" y="335.5"/>
      <point x="157.9167" y="185.0" type="curve"/>
      <point x="135.0" y="56.5"/>
      <point x="180.0" y="-7.5"/>
      <point x="275.4167" y="-7.5" type="curve" smooth="yes"/>
      <point x="318.75" y="-7.5"/>
      <point x="359.16665" y="6.5"/>
      <point x="376.66665" y="23.5" type="curve" smooth="yes"/>
      <point x="391.25" y="37.5"/>
      <point x="395.4167" y="43.0"/>
      <point x="399.1667" y="59.0" type="curve" smooth="yes"/>
      <point x="401.25" y="69.5"/>
      <point x="402.5" y="83.0"/>
    </contour>
  </outline>
</glyph>
<glyph name="y" format="2">
  <advance width="500.0"/>
  <unicode hex="0079"/>
  <anchor x="306.6667" y="537.0" name="top"/>
  <anchor x="343.75" y="-161.0" name="dot"/>
  <anchor x="316.25" y="584.0" name="hook"/>
  <anchor x="250.0" y="-201.0" name="bottom"/>
  <outline>
    <contour>
      <point x="485.83335" y="527.5" type="curve" smooth="yes"/>
      <point x="477.08335" y="527.5"/>
      <point x="469.58335" y="527.0"/>
      <point x="462.0833" y="526.0" type="curve"/>
      <point x="347.08335" y="211.0"/>
      <point x="236.25" y="5.0"/>
      <point x="162.91665" y="-84.0" type="curve" smooth="yes"/>
      <point x="125.0" y="-132.0"/>
      <point x="78.75" y="-152.5"/>
      <point x="35.416700000000006" y="-152.5" type="curve" smooth="yes"/>
      <point x="24.1667" y="-152.5"/>
      <point x="13.33335" y="-152.5"/>
      <point x="2.0833500000000003" y="-152.5" type="curve"/>
      <point x="2.0833500000000003" y="-152.5"/>
      <point x="-5.41665" y="-152.5"/>
      <point x="-5.41665" y="-152.5" type="curve"/>
      <point x="-5.41665" y="-152.5"/>
      <point x="-9.58335" y="-172.5"/>
      <point x="-9.58335" y="-172.5" type="curve" smooth="yes"/>
      <point x="-12.5" y="-185.0"/>
      <point x="-9.5833" y="-192.5"/>
      <point x="-4.5833" y="-195.5" type="curve" smooth="yes"/>
      <point x="0.41670000000000007" y="-198.5"/>
      <point x="22.08335" y="-200.0"/>
      <point x="37.5" y="-200.0" type="curve" smooth="yes"/>
      <point x="94.5833" y="-200.0"/>
      <point x="150.4167" y="-170.5"/>
      <point x="198.75" y="-103.5" type="curve" smooth="yes"/>
      <point x="293.75" y="27.0"/>
      <point x="392.0833" y="214.5"/>
      <point x="501.25" y="503.5" type="curve" smooth="yes"/>
      <point x="507.08335" y="520.0"/>
      <point x="499.16665" y="527.5"/>
    </contour>
    <contour>
      <point x="130.41665" y="527.5" type="curve" smooth="yes"/>
      <point x="122.08330000000001" y="527.5"/>
      <point x="115.0" y="527.0"/>
      <point x="107.5" y="526.5" type="curve"/>
      <point x="105.41665" y="307.5"/>
      <point x="131.6667" y="133.5"/>
      <point x="164.16665" y="49.5" type="curve" smooth="yes"/>
      <point x="181.25" y="10.5"/>
      <point x="200.0" y="0.0"/>
      <point x="226.25" y="0.0" type="curve" smooth="yes"/>
      <point x="226.25" y="0.0"/>
      <point x="240.8333" y="0.0"/>
      <point x="240.8333" y="0.0" type="curve"/>
      <point x="240.8333" y="0.0"/>
      <point x="262.91665" y="34.0"/>
      <point x="262.91665" y="34.0" type="curve"/>
      <point x="262.91665" y="34.0"/>
      <point x="232.9167" y="34.0"/>
      <point x="232.9167" y="34.0" type="curve"/>
      <point x="170.41665" y="71.0"/>
      <point x="150.83335" y="271.0"/>
      <point x="150.0" y="498.5" type="curve" smooth="yes"/>
      <point x="152.08335" y="524.5"/>
      <point x="144.5833" y="527.5"/>
    </contour>
  </outline>
</glyph>
<glyph name="z" format="2">
  <advance width="500.0"/>
  <unicode hex="007A"/>
  <anchor x="306.6667" y="537.0" name="top"/>
  <anchor x="198.3333" y="0.0" name="bottom"/>
  <outline>
    <contour>
      <point x="125.83330000000001" y="526.0" type="curve"/>
      <point x="124.16665" y="519.0"/>
      <point x="122.5" y="511.0"/>
      <point x="120.8333" y="504.0" type="curve" smooth="yes"/>
      <point x="118.33335" y="489.5"/>
      <point x="123.75" y="479.5"/>
      <point x="134.16665" y="479.5" type="curve" smooth="yes"/>
      <point x="134.16665" y="479.5"/>
      <point x="330.41665" y="479.5"/>
      <point x="330.41665" y="479.5" type="curve" smooth="yes"/>
      <point x="362.08335" y="479.5"/>
      <point x="395.0" y="481.0"/>
      <point x="426.66665" y="483.5" type="curve"/>
      <point x="426.66665" y="483.5"/>
      <point x="426.66665" y="474.5"/>
      <point x="426.66665" y="474.5" type="curve"/>
      <point x="404.5833" y="445.5"/>
      <point x="380.41665" y="417.0"/>
      <point x="356.25" y="389.0" type="curve" smooth="yes"/>
      <point x="257.5" y="276.5"/>
      <point x="145.41665" y="161.5"/>
      <point x="29.58335" y="58.0" type="curve"/>
      <point x="29.58335" y="58.0"/>
      <point x="22.5" y="24.0"/>
      <point x="22.5" y="24.0" type="curve" smooth="yes"/>
      <point x="20.0" y="9.5"/>
      <point x="22.91665" y="0.0"/>
      <point x="33.333349999999996" y="0.0" type="curve" smooth="yes"/>
      <point x="33.333349999999996" y="0.0"/>
      <point x="380.41665" y="0.0"/>
      <point x="380.41665" y="0.0" type="curve"/>
      <point x="382.91665" y="7.0"/>
      <point x="385.0" y="15.0"/>
      <point x="386.66665" y="22.0" type="curve"/>
      <point x="389.5833" y="36.0"/>
      <point x="378.75" y="46.5"/>
      <point x="360.83335" y="46.5" type="curve" smooth="yes"/>
      <point x="360.83335" y="46.5"/>
      <point x="168.75" y="46.5"/>
      <point x="168.75" y="46.5" type="curve" smooth="yes"/>
      <point x="140.0" y="46.5"/>
      <point x="110.0" y="46.0"/>
      <point x="78.75" y="43.5" type="curve"/>
      <point x="78.75" y="43.5"/>
      <point x="79.1667" y="52.5"/>
      <point x="79.1667" y="52.5" type="curve"/>
      <point x="102.9167" y="72.5"/>
      <point x="131.66665" y="98.0"/>
      <point x="159.1667" y="124.5" type="curve" smooth="yes"/>
      <point x="291.66665" y="252.0"/>
      <point x="412.5" y="400.5"/>
      <point x="472.08335" y="469.5" type="curve"/>
      <point x="472.08335" y="469.5"/>
      <point x="479.16665" y="503.5"/>
      <point x="479.16665" y="503.5" type="curve" smooth="yes"/>
      <point x="480.8333" y="513.5"/>
      <point x="478.75" y="526.0"/>
      <point x="470.0" y="526.0" type="curve" smooth="yes"/>
      <point x="470.0" y="526.0"/>
      <point x="125.83330000000001" y="526.0"/>
    </contour>
  </outline>
</glyph>
